0
SECTION
2
HEADER
9
$INSUNITS
70
4
0
ENDSEC
0
SECTION
2
TABLES
0
TABLE
2
LTYPE
0
LTYPE
72
65
70
64
2
CONTINUOUS
3
______
73
0
40
0
0
ENDTAB
0
TABLE
2
LAYER
0
ENDTAB
0
ENDSEC
0
SECTION
2
ENTITIES
0
LINE
8
0
10
28.2259293
20
-9.525
11
9.8899836
21
-9.525
0
LINE
8
0
10
9.1819482
20
-9.231177
11
-9.2330354
21
9.2322671
0
LINE
8
0
10
-9.525
20
9.9384441
11
-9.525
21
65.9819775
0
LINE
8
0
10
-8.8773609
20
66.9178417
11
28.2546565
21
80.8983642
0
LINE
8
0
10
28.6070174
20
80.9625
11
95.6520403
21
80.9625
0
LINE
8
0
10
96.3422691
20
80.6860912
11
113.7102309
21
64.1189088
0
LINE
8
0
10
114.4004597
20
63.8425
11
152.525
21
63.8425
0
LINE
8
0
10
153.525
20
62.8425
11
153.525
21
16.3670164
0
LINE
8
0
10
153.4812674
20
16.0745225
11
146.229104
21
-7.6353956
0
LINE
8
0
10
146.2005636
20
-7.7542413
11
142.2498464
21
-30.1598718
0
LINE
8
0
10
141.0913904
20
-30.9710314
11
104.6110804
21
-24.5385685
0
LINE
8
0
10
104.5974566
20
-24.5360688
11
95.3461187
21
-22.7723485
0
LINE
8
0
10
95.2451704
20
-22.7583895
11
85.4680816
21
-21.9112329
0
LINE
8
0
10
85.3817579
20
-21.9075
11
47.6740707
21
-21.9075
0
LINE
8
0
10
47.1250366
20
-21.7432999
11
28.7749634
21
-9.6892001
0
ARC
8
0
10
9.8899836
20
-8.525
40
1
50
224.9247083
51
270
0
ARC
8
0
10
-8.525
20
9.9384441
40
1
50
180
51
224.9247083
0
ARC
8
0
10
-8.525
20
65.9819775
40
1
50
110.6317864
51
180
0
ARC
8
0
10
28.6070174
20
79.9625
40
1
50
90
51
110.6317864
0
ARC
8
0
10
95.6520403
20
79.9625
40
1
50
46.3517775
51
90
0
ARC
8
0
10
114.4004597
20
64.8425
40
1
50
226.3517775
51
270
0
ARC
8
0
10
152.525
20
62.8425
40
1
50
0
51
90
0
ARC
8
0
10
152.525
20
16.3670164
40
1
50
342.9926789
51
0
0
ARC
8
0
10
147.1853714
20
-7.9278895
40
1
50
162.9926789
51
169.9999992
0
ARC
8
0
10
141.2650386
20
-29.9862236
40
1
50
259.9999992
51
349.9999992
0
ARC
8
0
10
104.7847286
20
-23.5537607
40
1
50
259.2063762
51
259.9999992
0
ARC
8
0
10
95.1588467
20
-23.7546566
40
1
50
79.2063762
51
85.0478527
0
ARC
8
0
10
85.3817579
20
-22.9075
40
1
50
85.0478527
51
90
0
ARC
8
0
10
47.6740707
20
-20.9075
40
1
50
236.699225
51
270
0
ARC
8
0
10
28.2259293
20
-10.525
40
1
50
56.699225
51
90
0
ENDSEC
0
EOF