0
SECTION
2
HEADER
9
$INSUNITS
70
4
0
ENDSEC
0
SECTION
2
TABLES
0
TABLE
2
LTYPE
0
LTYPE
72
65
70
64
2
CONTINUOUS
3
______
73
0
40
0
0
ENDTAB
0
TABLE
2
LAYER
0
ENDTAB
0
ENDSEC
0
SECTION
2
ENTITIES
0
LINE
8
0
10
27.9031818
20
-9.5
11
15.8436733
21
-9.5
0
LINE
8
0
10
3.1063267
20
-9.5
11
-7.5
21
-9.5
0
LINE
8
0
10
-9.5
20
-7.5
11
-9.5
21
-6.3686733
0
LINE
8
0
10
-9.5
20
6.3686733
11
-9.5
21
50.7813267
0
LINE
8
0
10
-9.5
20
63.5186733
11
-9.5
21
65.2649549
0
LINE
8
0
10
-8.2047218
20
67.1366833
11
28.1093129
21
80.8092284
0
LINE
8
0
10
28.8140347
20
80.9375
11
29.1313267
21
80.9375
0
LINE
8
0
10
41.8686733
20
80.9375
11
81.6563267
21
80.9375
0
LINE
8
0
10
95.6463165
20
80.4206737
11
113.4286835
21
64.3343263
0
LINE
8
0
10
114.7703973
20
63.8175
11
140.55
21
63.8175
0
LINE
8
0
10
142.55
20
61.8175
11
142.55
21
60.6861733
0
LINE
8
0
10
142.55
20
47.9488267
11
142.55
21
16.3405834
0
LINE
8
0
10
142.5650924
20
16.0953452
11
145.8209832
21
-10.2571704
0
LINE
8
0
10
145.8056911
20
-10.849705
11
145.3139799
21
-13.6383383
0
LINE
8
0
10
143.1021629
20
-26.1821759
11
142.4095789
21
-30.1100147
0
LINE
8
0
10
140.0922784
20
-31.7322652
11
129.2835502
21
-29.8241951
0
LINE
8
0
10
117.5621647
20
-27.7550131
11
104.6504844
21
-25.4757078
0
LINE
8
0
10
104.6311868
20
-25.4722036
11
85.5819201
21
-21.9164573
0
LINE
8
0
10
85.2149375
20
-21.8825
11
72.7686733
21
-21.8825
0
LINE
8
0
10
60.0313267
20
-21.8825
11
47.9968182
21
-21.8825
0
LINE
8
0
10
46.9007818
20
-21.5554328
11
28.9992182
21
-9.8270672
0
ARC
8
0
10
-7.5
20
-7.5
40
2
50
180
51
270
0
ARC
8
0
10
-7.5
20
65.2649549
40
2
50
110.6317864
51
180
0
ARC
8
0
10
28.8140347
20
78.9375
40
2
50
90
51
110.6317864
0
ARC
8
0
10
94.3046027
20
78.9375
40
2
50
47.8667638
51
90
0
ARC
8
0
10
114.7703973
20
65.8175
40
2
50
227.8667638
51
270
0
ARC
8
0
10
140.55
20
61.8175
40
2
50
0
51
90
0
ARC
8
0
10
144.55
20
16.3405834
40
2
50
180
51
187.0432825
0
ARC
8
0
10
143.8360756
20
-10.5024086
40
2
50
349.9999992
51
7.0432825
0
ARC
8
0
10
140.4399634
20
-29.7627183
40
2
50
259.9886945
51
349.9999992
0
ARC
8
0
10
104.9981694
20
-23.5061609
40
2
50
259.426815
51
259.9886945
0
ARC
8
0
10
85.2149375
20
-23.8825
40
2
50
79.426815
51
90
0
ARC
8
0
10
47.9968182
20
-19.8825
40
2
50
236.7688406
51
270
0
ARC
8
0
10
27.9031818
20
-11.5
40
2
50
56.7688406
51
90
0
LINE
8
0
10
14.8777475
20
-10.241181
11
13.5318885
21
-15.2639953
0
LINE
8
0
10
5.4181115
20
-15.2639953
11
4.0722525
21
-10.241181
0
ARC
8
0
10
3.1063267
20
-10.5
40
1
50
14.9999979
51
90
0
ARC
8
0
10
15.8436733
20
-10.5
40
1
50
90
51
165.0000021
0
ARC
8
0
10
9.475
20
-14.1769553
40
4.2
50
195
51
345
0
CIRCLE
8
0
10
9.475
20
-14.1769553
40
2.2
0
LINE
8
0
10
-10.241181
20
51.7472525
11
-15.2639953
21
53.0931115
0
LINE
8
0
10
-15.2639953
20
61.2068885
11
-10.241181
21
62.5527475
0
ARC
8
0
10
-10.5
20
63.5186733
40
1
50
284.9999979
51
0
0
ARC
8
0
10
-10.5
20
50.7813267
40
1
50
0
51
75.0000021
0
ARC
8
0
10
-14.1769553
20
57.15
40
4.2
50
105
51
255
0
CIRCLE
8
0
10
-14.1769553
20
57.15
40
2.2
0
LINE
8
0
10
-10.241181
20
-5.4027475
11
-15.2639953
21
-4.0568885
0
LINE
8
0
10
-15.2639953
20
4.0568885
11
-10.241181
21
5.4027475
0
ARC
8
0
10
-10.5
20
6.3686733
40
1
50
284.9999979
51
0
0
ARC
8
0
10
-10.5
20
-6.3686733
40
1
50
0
51
75.0000021
0
ARC
8
0
10
-14.1769553
20
0
40
4.2
50
105
51
255
0
CIRCLE
8
0
10
-14.1769553
20
0
40
2.2
0
LINE
8
0
10
71.8027475
20
-22.623681
11
70.4568885
21
-27.6464953
0
LINE
8
0
10
62.3431115
20
-27.6464953
11
60.9972525
21
-22.623681
0
ARC
8
0
10
60.0313267
20
-22.8825
40
1
50
14.9999979
51
90
0
ARC
8
0
10
72.7686733
20
-22.8825
40
1
50
90
51
165.0000021
0
ARC
8
0
10
66.4
20
-26.5594553
40
4.2
50
195
51
345
0
CIRCLE
8
0
10
66.4
20
-26.5594553
40
2.2
0
LINE
8
0
10
128.6331868
20
-30.3682684
11
126.4355719
21
-35.0810689
0
LINE
8
0
10
118.4450614
20
-33.6721263
11
117.9918515
21
-28.4919138
0
ARC
8
0
10
116.9956569
20
-28.5790695
40
1
50
4.9999979
51
55.4929395
0
ARC
8
0
10
129.5394946
20
-30.7908866
40
1
50
104.8295525
51
155.0000021
0
ARC
8
0
10
122.6290791
20
-33.3060721
40
4.2
50
185
51
335
0
CIRCLE
8
0
10
122.6290791
20
-33.3060721
40
2.2
0
LINE
8
0
10
145.8761695
20
-14.7182942
11
150.58897
21
-16.9159091
0
LINE
8
0
10
149.1800274
20
-24.9064196
11
143.9998149
21
-25.3596295
0
ARC
8
0
10
144.0869706
20
-26.3558241
40
1
50
94.9999979
51
170
0
ARC
8
0
10
146.2987877
20
-13.8119864
40
1
50
170
51
245.0000021
0
ARC
8
0
10
148.8139732
20
-20.7224019
40
4.2
50
275
51
65
0
CIRCLE
8
0
10
148.8139732
20
-20.7224019
40
2.2
0
LINE
8
0
10
143.291181
20
59.7202475
11
148.3139953
21
58.3743885
0
LINE
8
0
10
148.3139953
20
50.2606115
11
143.291181
21
48.9147525
0
ARC
8
0
10
143.55
20
47.9488267
40
1
50
104.9999979
51
180
0
ARC
8
0
10
143.55
20
60.6861733
40
1
50
180
51
255.0000021
0
ARC
8
0
10
147.2269553
20
54.3175
40
4.2
50
285
51
75
0
CIRCLE
8
0
10
147.2269553
20
54.3175
40
2.2
0
LINE
8
0
10
30.0972525
20
81.678681
11
31.4431115
21
86.7014953
0
LINE
8
0
10
39.5568885
20
86.7014953
11
40.9027475
21
81.678681
0
ARC
8
0
10
41.8686733
20
81.9375
40
1
50
554.9999979
51
630
0
ARC
8
0
10
29.1313267
20
81.9375
40
1
50
270
51
345.0000021
0
ARC
8
0
10
35.5
20
85.6144553
40
4.2
50
375
51
525
0
CIRCLE
8
0
10
35.5
20
85.6144553
40
2.2
0
LINE
8
0
10
94.3936733
20
80.9375
11
94.3046027
21
80.9375
0
LINE
8
0
10
82.6222525
20
81.678681
11
83.9681115
21
86.7014953
0
LINE
8
0
10
92.0818885
20
86.7014953
11
93.4277475
21
81.678681
0
ARC
8
0
10
94.3936733
20
81.9375
40
1
50
554.9999979
51
630
0
ARC
8
0
10
81.6563267
20
81.9375
40
1
50
270
51
345.0000021
0
ARC
8
0
10
88.025
20
85.6144553
40
4.2
50
375
51
525
0
CIRCLE
8
0
10
88.025
20
85.6144553
40
2.2
0
LINE
8
0
10
-7
20
-7
11
7
21
-7
0
LINE
8
0
10
7
20
-7
11
7
21
7
0
LINE
8
0
10
7
20
7
11
-7
21
7
0
LINE
8
0
10
-7
20
7
11
-7
21
-7
0
LINE
8
0
10
-7
20
12.05
11
7
21
12.05
0
LINE
8
0
10
7
20
12.05
11
7
21
26.05
0
LINE
8
0
10
7
20
26.05
11
-7
21
26.05
0
LINE
8
0
10
-7
20
26.05
11
-7
21
12.05
0
LINE
8
0
10
-7
20
31.1
11
7
21
31.1
0
LINE
8
0
10
7
20
31.1
11
7
21
45.1
0
LINE
8
0
10
7
20
45.1
11
-7
21
45.1
0
LINE
8
0
10
-7
20
45.1
11
-7
21
31.1
0
LINE
8
0
10
-7
20
50.15
11
7
21
50.15
0
LINE
8
0
10
7
20
50.15
11
7
21
64.15
0
LINE
8
0
10
7
20
64.15
11
-7
21
64.15
0
LINE
8
0
10
-7
20
64.15
11
-7
21
50.15
0
LINE
8
0
10
12
20
-7
11
26
21
-7
0
LINE
8
0
10
26
20
-7
11
26
21
7
0
LINE
8
0
10
26
20
7
11
12
21
7
0
LINE
8
0
10
12
20
7
11
12
21
-7
0
LINE
8
0
10
12
20
12.05
11
26
21
12.05
0
LINE
8
0
10
26
20
12.05
11
26
21
26.05
0
LINE
8
0
10
26
20
26.05
11
12
21
26.05
0
LINE
8
0
10
12
20
26.05
11
12
21
12.05
0
LINE
8
0
10
12
20
31.1
11
26
21
31.1
0
LINE
8
0
10
26
20
31.1
11
26
21
45.1
0
LINE
8
0
10
26
20
45.1
11
12
21
45.1
0
LINE
8
0
10
12
20
45.1
11
12
21
31.1
0
LINE
8
0
10
12
20
50.15
11
26
21
50.15
0
LINE
8
0
10
26
20
50.15
11
26
21
64.15
0
LINE
8
0
10
26
20
64.15
11
12
21
64.15
0
LINE
8
0
10
12
20
64.15
11
12
21
50.15
0
LINE
8
0
10
31
20
4.43
11
45
21
4.43
0
LINE
8
0
10
45
20
4.43
11
45
21
18.43
0
LINE
8
0
10
45
20
18.43
11
31
21
18.43
0
LINE
8
0
10
31
20
18.43
11
31
21
4.43
0
LINE
8
0
10
31
20
23.48
11
45
21
23.48
0
LINE
8
0
10
45
20
23.48
11
45
21
37.48
0
LINE
8
0
10
45
20
37.48
11
31
21
37.48
0
LINE
8
0
10
31
20
37.48
11
31
21
23.48
0
LINE
8
0
10
31
20
42.53
11
45
21
42.53
0
LINE
8
0
10
45
20
42.53
11
45
21
56.53
0
LINE
8
0
10
45
20
56.53
11
31
21
56.53
0
LINE
8
0
10
31
20
56.53
11
31
21
42.53
0
LINE
8
0
10
31
20
61.58
11
45
21
61.58
0
LINE
8
0
10
45
20
61.58
11
45
21
75.58
0
LINE
8
0
10
45
20
75.58
11
31
21
75.58
0
LINE
8
0
10
31
20
75.58
11
31
21
61.58
0
LINE
8
0
10
50
20
7.2875
11
64
21
7.2875
0
LINE
8
0
10
64
20
7.2875
11
64
21
21.2875
0
LINE
8
0
10
64
20
21.2875
11
50
21
21.2875
0
LINE
8
0
10
50
20
21.2875
11
50
21
7.2875
0
LINE
8
0
10
50
20
26.3375
11
64
21
26.3375
0
LINE
8
0
10
64
20
26.3375
11
64
21
40.3375
0
LINE
8
0
10
64
20
40.3375
11
50
21
40.3375
0
LINE
8
0
10
50
20
40.3375
11
50
21
26.3375
0
LINE
8
0
10
50
20
45.3875
11
64
21
45.3875
0
LINE
8
0
10
64
20
45.3875
11
64
21
59.3875
0
LINE
8
0
10
64
20
59.3875
11
50
21
59.3875
0
LINE
8
0
10
50
20
59.3875
11
50
21
45.3875
0
LINE
8
0
10
50
20
64.4375
11
64
21
64.4375
0
LINE
8
0
10
64
20
64.4375
11
64
21
78.4375
0
LINE
8
0
10
64
20
78.4375
11
50
21
78.4375
0
LINE
8
0
10
50
20
78.4375
11
50
21
64.4375
0
LINE
8
0
10
69
20
2.525
11
83
21
2.525
0
LINE
8
0
10
83
20
2.525
11
83
21
16.525
0
LINE
8
0
10
83
20
16.525
11
69
21
16.525
0
LINE
8
0
10
69
20
16.525
11
69
21
2.525
0
LINE
8
0
10
69
20
21.575
11
83
21
21.575
0
LINE
8
0
10
83
20
21.575
11
83
21
35.575
0
LINE
8
0
10
83
20
35.575
11
69
21
35.575
0
LINE
8
0
10
69
20
35.575
11
69
21
21.575
0
LINE
8
0
10
69
20
40.625
11
83
21
40.625
0
LINE
8
0
10
83
20
40.625
11
83
21
54.625
0
LINE
8
0
10
83
20
54.625
11
69
21
54.625
0
LINE
8
0
10
69
20
54.625
11
69
21
40.625
0
LINE
8
0
10
69
20
59.675
11
83
21
59.675
0
LINE
8
0
10
83
20
59.675
11
83
21
73.675
0
LINE
8
0
10
83
20
73.675
11
69
21
73.675
0
LINE
8
0
10
69
20
73.675
11
69
21
59.675
0
LINE
8
0
10
88
20
-0.3325
11
102
21
-0.3325
0
LINE
8
0
10
102
20
-0.3325
11
102
21
13.6675
0
LINE
8
0
10
102
20
13.6675
11
88
21
13.6675
0
LINE
8
0
10
88
20
13.6675
11
88
21
-0.3325
0
LINE
8
0
10
88
20
18.7175
11
102
21
18.7175
0
LINE
8
0
10
102
20
18.7175
11
102
21
32.7175
0
LINE
8
0
10
102
20
32.7175
11
88
21
32.7175
0
LINE
8
0
10
88
20
32.7175
11
88
21
18.7175
0
LINE
8
0
10
88
20
37.7675
11
102
21
37.7675
0
LINE
8
0
10
102
20
37.7675
11
102
21
51.7675
0
LINE
8
0
10
102
20
51.7675
11
88
21
51.7675
0
LINE
8
0
10
88
20
51.7675
11
88
21
37.7675
0
LINE
8
0
10
88
20
56.8175
11
102
21
56.8175
0
LINE
8
0
10
102
20
56.8175
11
102
21
70.8175
0
LINE
8
0
10
102
20
70.8175
11
88
21
70.8175
0
LINE
8
0
10
88
20
70.8175
11
88
21
56.8175
0
LINE
8
0
10
107
20
9.2175
11
121
21
9.2175
0
LINE
8
0
10
121
20
9.2175
11
121
21
23.2175
0
LINE
8
0
10
121
20
23.2175
11
107
21
23.2175
0
LINE
8
0
10
107
20
23.2175
11
107
21
9.2175
0
LINE
8
0
10
107
20
28.2675
11
121
21
28.2675
0
LINE
8
0
10
121
20
28.2675
11
121
21
42.2675
0
LINE
8
0
10
121
20
42.2675
11
107
21
42.2675
0
LINE
8
0
10
107
20
42.2675
11
107
21
28.2675
0
LINE
8
0
10
107
20
47.3175
11
121
21
47.3175
0
LINE
8
0
10
121
20
47.3175
11
121
21
61.3175
0
LINE
8
0
10
121
20
61.3175
11
107
21
61.3175
0
LINE
8
0
10
107
20
61.3175
11
107
21
47.3175
0
LINE
8
0
10
49.9
20
-19.3825
11
63.9
21
-19.3825
0
LINE
8
0
10
63.9
20
-19.3825
11
63.9
21
-5.3825
0
LINE
8
0
10
63.9
20
-5.3825
11
49.9
21
-5.3825
0
LINE
8
0
10
49.9
20
-5.3825
11
49.9
21
-19.3825
0
LINE
8
0
10
68.9
20
-19.3825
11
82.9
21
-19.3825
0
LINE
8
0
10
82.9
20
-19.3825
11
82.9
21
-5.3825
0
LINE
8
0
10
82.9
20
-5.3825
11
68.9
21
-5.3825
0
LINE
8
0
10
68.9
20
-5.3825
11
68.9
21
-19.3825
0
LINE
8
0
10
88.8408085
20
-20.060617
11
102.628117
21
-22.4916915
0
LINE
8
0
10
102.628117
20
-22.4916915
11
105.0591915
21
-8.704383
0
LINE
8
0
10
105.0591915
20
-8.704383
11
91.271883
21
-6.2733085
0
LINE
8
0
10
91.271883
20
-6.2733085
11
88.8408085
21
-20.060617
0
LINE
8
0
10
121.8191674
20
-23.0704755
11
124.2502419
21
-9.283167
0
LINE
8
0
10
124.2502419
20
-9.283167
11
110.4629334
21
-6.8520925
0
LINE
8
0
10
110.4629334
20
-6.8520925
11
108.0318589
21
-20.639401
0
LINE
8
0
10
108.0318589
20
-20.639401
11
121.8191674
21
-23.0704755
0
LINE
8
0
10
129.1742807
20
-10.1514079
11
126.7432062
21
-23.9387164
0
LINE
8
0
10
126.7432062
20
-23.9387164
11
140.5305147
21
-26.3697909
0
LINE
8
0
10
140.5305147
20
-26.3697909
11
142.9615892
21
-12.5824824
0
LINE
8
0
10
142.9615892
20
-12.5824824
11
129.1742807
21
-10.1514079
0
ENDSEC
0
EOF