0
SECTION
2
HEADER
9
$INSUNITS
70
4
0
ENDSEC
0
SECTION
2
TABLES
0
TABLE
2
LTYPE
0
LTYPE
72
65
70
64
2
CONTINUOUS
3
______
73
0
40
0
0
ENDTAB
0
TABLE
2
LAYER
0
ENDTAB
0
ENDSEC
0
SECTION
2
ENTITIES
0
LINE
8
0
10
28.2259293
20
-9.525
11
23.7626349
21
-9.525
0
LINE
8
0
10
14.2373651
20
-9.525
11
9.8899836
21
-9.525
0
LINE
8
0
10
9.1819482
20
-9.231177
11
-9.2330354
21
9.2322671
0
LINE
8
0
10
-9.525
20
9.9384441
11
-9.525
21
14.2873651
0
LINE
8
0
10
-9.525
20
23.8126349
11
-9.525
21
52.3873651
0
LINE
8
0
10
-9.525
20
61.9126349
11
-9.525
21
65.9819775
0
LINE
8
0
10
-8.8773609
20
66.9178417
11
28.2546565
21
80.8983642
0
LINE
8
0
10
28.6070174
20
80.9625
11
30.3298651
21
80.9625
0
LINE
8
0
10
39.8551349
20
80.9625
11
85.5748651
21
80.9625
0
LINE
8
0
10
95.1001349
20
80.9625
11
95.6520403
21
80.9625
0
LINE
8
0
10
96.3422691
20
80.6860912
11
113.7102309
21
64.1189088
0
LINE
8
0
10
114.4004597
20
63.8425
11
137.2623651
21
63.8425
0
LINE
8
0
10
146.7876349
20
63.8425
11
152.525
21
63.8425
0
LINE
8
0
10
153.525
20
62.8425
11
153.525
21
59.0801349
0
LINE
8
0
10
153.525
20
49.5548651
11
153.525
21
16.3670164
0
LINE
8
0
10
153.4812674
20
16.0745225
11
146.229104
21
-7.6353956
0
LINE
8
0
10
146.2005636
20
-7.7542413
11
144.9707197
21
-14.7290325
0
LINE
8
0
10
143.3166739
20
-24.1095921
11
142.2498464
21
-30.1598718
0
LINE
8
0
10
144.9707197
20
-14.7290325
11
144.9706421
21
-14.729473
0
LINE
8
0
10
141.0913904
20
-30.9710314
11
128.0551307
21
-28.6723871
0
LINE
8
0
10
118.6745711
20
-27.0183413
11
104.6110804
21
-24.5385685
0
LINE
8
0
10
104.5974566
20
-24.5360688
11
95.3461187
21
-22.7723485
0
LINE
8
0
10
95.2451704
20
-22.7583895
11
85.4680816
21
-21.9112329
0
LINE
8
0
10
85.3817579
20
-21.9075
11
71.1876349
21
-21.9075
0
LINE
8
0
10
61.6623651
20
-21.9075
11
47.6740707
21
-21.9075
0
LINE
8
0
10
47.1250366
20
-21.7432999
11
28.7749634
21
-9.6892001
0
ARC
8
0
10
9.8899836
20
-8.525
40
1
50
224.9247083
51
270
0
ARC
8
0
10
-8.525
20
9.9384441
40
1
50
180
51
224.9247083
0
ARC
8
0
10
-8.525
20
65.9819775
40
1
50
110.6317864
51
180
0
ARC
8
0
10
28.6070174
20
79.9625
40
1
50
90
51
110.6317864
0
ARC
8
0
10
95.6520403
20
79.9625
40
1
50
46.3517775
51
90
0
ARC
8
0
10
114.4004597
20
64.8425
40
1
50
226.3517775
51
270
0
ARC
8
0
10
152.525
20
62.8425
40
1
50
0
51
90
0
ARC
8
0
10
152.525
20
16.3670164
40
1
50
342.9926789
51
0
0
ARC
8
0
10
147.1853714
20
-7.9278895
40
1
50
162.9926789
51
169.9999992
0
ARC
8
0
10
141.2650386
20
-29.9862236
40
1
50
259.9999992
51
349.9999992
0
ARC
8
0
10
104.7847286
20
-23.5537607
40
1
50
259.2063762
51
259.9999992
0
ARC
8
0
10
95.1588467
20
-23.7546566
40
1
50
79.2063762
51
85.0478527
0
ARC
8
0
10
85.3817579
20
-22.9075
40
1
50
85.0478527
51
90
0
ARC
8
0
10
47.6740707
20
-20.9075
40
1
50
236.699225
51
270
0
ARC
8
0
10
28.2259293
20
-10.525
40
1
50
56.699225
51
90
0
LINE
8
0
10
22.7967091
20
-10.266181
11
21.9943701
21
-13.2605511
0
LINE
8
0
10
16.0056299
20
-13.2605511
11
15.2032909
21
-10.266181
0
ARC
8
0
10
14.2373651
20
-10.525
40
1
50
14.9999979
51
90
0
ARC
8
0
10
23.7626349
20
-10.525
40
1
50
90
51
165.0000021
0
ARC
8
0
10
19
20
-12.4582121
40
3.1
50
194.9999991
51
345.0000009
0
CIRCLE
8
0
10
19
20
-12.4582121
40
1.1
0
LINE
8
0
10
-10.266181
20
53.3532909
11
-13.2605511
21
54.1556299
0
LINE
8
0
10
-13.2605511
20
60.1443701
11
-10.266181
21
60.9467091
0
ARC
8
0
10
-10.525
20
61.9126349
40
1
50
284.9999979
51
0
0
ARC
8
0
10
-10.525
20
52.3873651
40
1
50
0
51
75.0000021
0
ARC
8
0
10
-12.4582121
20
57.15
40
3.1
50
104.9999991
51
255.0000009
0
CIRCLE
8
0
10
-12.4582121
20
57.15
40
1.1
0
LINE
8
0
10
-10.266181
20
15.2532909
11
-13.2605511
21
16.0556299
0
LINE
8
0
10
-13.2605511
20
22.0443701
11
-10.266181
21
22.8467091
0
ARC
8
0
10
-10.525
20
23.8126349
40
1
50
284.9999979
51
0
0
ARC
8
0
10
-10.525
20
14.2873651
40
1
50
0
51
75.0000021
0
ARC
8
0
10
-12.4582121
20
19.05
40
3.1
50
104.9999991
51
255.0000009
0
CIRCLE
8
0
10
-12.4582121
20
19.05
40
1.1
0
LINE
8
0
10
70.2217091
20
-22.648681
11
69.4193701
21
-25.6430511
0
LINE
8
0
10
63.4306299
20
-25.6430511
11
62.6282909
21
-22.648681
0
ARC
8
0
10
61.6623651
20
-22.9075
40
1
50
14.9999979
51
90
0
ARC
8
0
10
71.1876349
20
-22.9075
40
1
50
90
51
165.0000021
0
ARC
8
0
10
66.425
20
-24.8407121
40
3.1
50
194.9999991
51
345.0000009
0
CIRCLE
8
0
10
66.425
20
-24.8407121
40
1.1
0
LINE
8
0
10
126.9751747
20
-29.2345766
11
125.6650581
21
-32.0441308
0
LINE
8
0
10
119.7673004
20
-31.004197
11
119.4971176
21
-27.9159934
0
ARC
8
0
10
118.5009229
20
-28.0031491
40
1
50
4.9999979
51
80
0
ARC
8
0
10
127.8814825
20
-29.6571948
40
1
50
80
51
155.0000021
0
ARC
8
0
10
122.855504
20
-30.7340142
40
3.1
50
184.9999991
51
335.0000009
0
CIRCLE
8
0
10
122.855504
20
-30.7340142
40
1.1
0
LINE
8
0
10
145.5329092
20
-15.8089885
11
148.3424634
21
-17.1191051
0
LINE
8
0
10
147.3025296
20
-23.0168628
11
144.214326
21
-23.2870456
0
ARC
8
0
10
144.3014817
20
-24.2832403
40
1
50
94.9999979
51
170
0
ARC
8
0
10
145.9555274
20
-14.9026807
40
1
50
170.0256256
51
245.0000021
0
ARC
8
0
10
147.0323468
20
-19.9286592
40
3.1
50
274.9999991
51
65.0000009
0
CIRCLE
8
0
10
147.0323468
20
-19.9286592
40
1.1
0
LINE
8
0
10
154.266181
20
58.1142091
11
157.2605511
21
57.3118701
0
LINE
8
0
10
157.2605511
20
51.3231299
11
154.266181
21
50.5207909
0
ARC
8
0
10
154.525
20
49.5548651
40
1
50
104.9999979
51
180
0
ARC
8
0
10
154.525
20
59.0801349
40
1
50
180
51
255.0000021
0
ARC
8
0
10
156.4582121
20
54.3175
40
3.1
50
284.9999991
51
75.0000009
0
CIRCLE
8
0
10
156.4582121
20
54.3175
40
1.1
0
LINE
8
0
10
31.2957909
20
81.703681
11
32.0981299
21
84.6980511
0
LINE
8
0
10
38.0868701
20
84.6980511
11
38.8892091
21
81.703681
0
ARC
8
0
10
39.8551349
20
81.9625
40
1
50
554.9999979
51
630
0
ARC
8
0
10
30.3298651
20
81.9625
40
1
50
270
51
345.0000021
0
ARC
8
0
10
35.0925
20
83.8957121
40
3.1
50
374.9999991
51
525.0000009
0
CIRCLE
8
0
10
35.0925
20
83.8957121
40
1.1
0
LINE
8
0
10
86.5407909
20
81.703681
11
87.3431299
21
84.6980511
0
LINE
8
0
10
93.3318701
20
84.6980511
11
94.1342091
21
81.703681
0
ARC
8
0
10
95.1001349
20
81.9625
40
1
50
554.9999979
51
630
0
ARC
8
0
10
85.5748651
20
81.9625
40
1
50
270
51
345.0000021
0
ARC
8
0
10
90.3375
20
83.8957121
40
3.1
50
374.9999991
51
525.0000009
0
CIRCLE
8
0
10
90.3375
20
83.8957121
40
1.1
0
LINE
8
0
10
138.2282909
20
64.583681
11
139.0306299
21
67.5780511
0
LINE
8
0
10
145.0193701
20
67.5780511
11
145.8217091
21
64.583681
0
ARC
8
0
10
146.7876349
20
64.8425
40
1
50
554.9999979
51
630
0
ARC
8
0
10
137.2623651
20
64.8425
40
1
50
270
51
345.0000021
0
ARC
8
0
10
142.025
20
66.7757121
40
3.1
50
374.9999991
51
525.0000009
0
CIRCLE
8
0
10
142.025
20
66.7757121
40
1.1
0
LINE
8
0
10
-7
20
12.05
11
7
21
12.05
0
LINE
8
0
10
7
20
12.05
11
7
21
26.05
0
LINE
8
0
10
7
20
26.05
11
-7
21
26.05
0
LINE
8
0
10
-7
20
26.05
11
-7
21
12.05
0
LINE
8
0
10
-7
20
31.1
11
7
21
31.1
0
LINE
8
0
10
7
20
31.1
11
7
21
45.1
0
LINE
8
0
10
7
20
45.1
11
-7
21
45.1
0
LINE
8
0
10
-7
20
45.1
11
-7
21
31.1
0
LINE
8
0
10
-7
20
50.15
11
7
21
50.15
0
LINE
8
0
10
7
20
50.15
11
7
21
64.15
0
LINE
8
0
10
7
20
64.15
11
-7
21
64.15
0
LINE
8
0
10
-7
20
64.15
11
-7
21
50.15
0
LINE
8
0
10
12
20
-7
11
26
21
-7
0
LINE
8
0
10
26
20
-7
11
26
21
7
0
LINE
8
0
10
26
20
7
11
12
21
7
0
LINE
8
0
10
12
20
7
11
12
21
-7
0
LINE
8
0
10
12
20
12.05
11
26
21
12.05
0
LINE
8
0
10
26
20
12.05
11
26
21
26.05
0
LINE
8
0
10
26
20
26.05
11
12
21
26.05
0
LINE
8
0
10
12
20
26.05
11
12
21
12.05
0
LINE
8
0
10
12
20
31.1
11
26
21
31.1
0
LINE
8
0
10
26
20
31.1
11
26
21
45.1
0
LINE
8
0
10
26
20
45.1
11
12
21
45.1
0
LINE
8
0
10
12
20
45.1
11
12
21
31.1
0
LINE
8
0
10
12
20
50.15
11
26
21
50.15
0
LINE
8
0
10
26
20
50.15
11
26
21
64.15
0
LINE
8
0
10
26
20
64.15
11
12
21
64.15
0
LINE
8
0
10
12
20
64.15
11
12
21
50.15
0
LINE
8
0
10
31
20
4.43
11
45
21
4.43
0
LINE
8
0
10
45
20
4.43
11
45
21
18.43
0
LINE
8
0
10
45
20
18.43
11
31
21
18.43
0
LINE
8
0
10
31
20
18.43
11
31
21
4.43
0
LINE
8
0
10
31
20
23.48
11
45
21
23.48
0
LINE
8
0
10
45
20
23.48
11
45
21
37.48
0
LINE
8
0
10
45
20
37.48
11
31
21
37.48
0
LINE
8
0
10
31
20
37.48
11
31
21
23.48
0
LINE
8
0
10
31
20
42.53
11
45
21
42.53
0
LINE
8
0
10
45
20
42.53
11
45
21
56.53
0
LINE
8
0
10
45
20
56.53
11
31
21
56.53
0
LINE
8
0
10
31
20
56.53
11
31
21
42.53
0
LINE
8
0
10
31
20
61.58
11
45
21
61.58
0
LINE
8
0
10
45
20
61.58
11
45
21
75.58
0
LINE
8
0
10
45
20
75.58
11
31
21
75.58
0
LINE
8
0
10
31
20
75.58
11
31
21
61.58
0
LINE
8
0
10
50
20
7.2875
11
64
21
7.2875
0
LINE
8
0
10
64
20
7.2875
11
64
21
21.2875
0
LINE
8
0
10
64
20
21.2875
11
50
21
21.2875
0
LINE
8
0
10
50
20
21.2875
11
50
21
7.2875
0
LINE
8
0
10
50
20
26.3375
11
64
21
26.3375
0
LINE
8
0
10
64
20
26.3375
11
64
21
40.3375
0
LINE
8
0
10
64
20
40.3375
11
50
21
40.3375
0
LINE
8
0
10
50
20
40.3375
11
50
21
26.3375
0
LINE
8
0
10
50
20
45.3875
11
64
21
45.3875
0
LINE
8
0
10
64
20
45.3875
11
64
21
59.3875
0
LINE
8
0
10
64
20
59.3875
11
50
21
59.3875
0
LINE
8
0
10
50
20
59.3875
11
50
21
45.3875
0
LINE
8
0
10
50
20
64.4375
11
64
21
64.4375
0
LINE
8
0
10
64
20
64.4375
11
64
21
78.4375
0
LINE
8
0
10
64
20
78.4375
11
50
21
78.4375
0
LINE
8
0
10
50
20
78.4375
11
50
21
64.4375
0
LINE
8
0
10
69
20
2.525
11
83
21
2.525
0
LINE
8
0
10
83
20
2.525
11
83
21
16.525
0
LINE
8
0
10
83
20
16.525
11
69
21
16.525
0
LINE
8
0
10
69
20
16.525
11
69
21
2.525
0
LINE
8
0
10
69
20
21.575
11
83
21
21.575
0
LINE
8
0
10
83
20
21.575
11
83
21
35.575
0
LINE
8
0
10
83
20
35.575
11
69
21
35.575
0
LINE
8
0
10
69
20
35.575
11
69
21
21.575
0
LINE
8
0
10
69
20
40.625
11
83
21
40.625
0
LINE
8
0
10
83
20
40.625
11
83
21
54.625
0
LINE
8
0
10
83
20
54.625
11
69
21
54.625
0
LINE
8
0
10
69
20
54.625
11
69
21
40.625
0
LINE
8
0
10
69
20
59.675
11
83
21
59.675
0
LINE
8
0
10
83
20
59.675
11
83
21
73.675
0
LINE
8
0
10
83
20
73.675
11
69
21
73.675
0
LINE
8
0
10
69
20
73.675
11
69
21
59.675
0
LINE
8
0
10
88
20
-0.3325
11
102
21
-0.3325
0
LINE
8
0
10
102
20
-0.3325
11
102
21
13.6675
0
LINE
8
0
10
102
20
13.6675
11
88
21
13.6675
0
LINE
8
0
10
88
20
13.6675
11
88
21
-0.3325
0
LINE
8
0
10
88
20
18.7175
11
102
21
18.7175
0
LINE
8
0
10
102
20
18.7175
11
102
21
32.7175
0
LINE
8
0
10
102
20
32.7175
11
88
21
32.7175
0
LINE
8
0
10
88
20
32.7175
11
88
21
18.7175
0
LINE
8
0
10
88
20
37.7675
11
102
21
37.7675
0
LINE
8
0
10
102
20
37.7675
11
102
21
51.7675
0
LINE
8
0
10
102
20
51.7675
11
88
21
51.7675
0
LINE
8
0
10
88
20
51.7675
11
88
21
37.7675
0
LINE
8
0
10
88
20
56.8175
11
102
21
56.8175
0
LINE
8
0
10
102
20
56.8175
11
102
21
70.8175
0
LINE
8
0
10
102
20
70.8175
11
88
21
70.8175
0
LINE
8
0
10
88
20
70.8175
11
88
21
56.8175
0
LINE
8
0
10
107
20
9.2175
11
121
21
9.2175
0
LINE
8
0
10
121
20
9.2175
11
121
21
23.2175
0
LINE
8
0
10
121
20
23.2175
11
107
21
23.2175
0
LINE
8
0
10
107
20
23.2175
11
107
21
9.2175
0
LINE
8
0
10
107
20
28.2675
11
121
21
28.2675
0
LINE
8
0
10
121
20
28.2675
11
121
21
42.2675
0
LINE
8
0
10
121
20
42.2675
11
107
21
42.2675
0
LINE
8
0
10
107
20
42.2675
11
107
21
28.2675
0
LINE
8
0
10
107
20
47.3175
11
121
21
47.3175
0
LINE
8
0
10
121
20
47.3175
11
121
21
61.3175
0
LINE
8
0
10
121
20
61.3175
11
107
21
61.3175
0
LINE
8
0
10
107
20
61.3175
11
107
21
47.3175
0
LINE
8
0
10
49.9
20
-19.3825
11
63.9
21
-19.3825
0
LINE
8
0
10
63.9
20
-19.3825
11
63.9
21
-5.3825
0
LINE
8
0
10
63.9
20
-5.3825
11
49.9
21
-5.3825
0
LINE
8
0
10
49.9
20
-5.3825
11
49.9
21
-19.3825
0
LINE
8
0
10
68.9
20
-19.3825
11
82.9
21
-19.3825
0
LINE
8
0
10
82.9
20
-19.3825
11
82.9
21
-5.3825
0
LINE
8
0
10
82.9
20
-5.3825
11
68.9
21
-5.3825
0
LINE
8
0
10
68.9
20
-5.3825
11
68.9
21
-19.3825
0
LINE
8
0
10
88.8408085
20
-19.060617
11
102.628117
21
-21.4916915
0
LINE
8
0
10
102.628117
20
-21.4916915
11
105.0591915
21
-7.704383
0
LINE
8
0
10
105.0591915
20
-7.704383
11
91.271883
21
-5.2733085
0
LINE
8
0
10
91.271883
20
-5.2733085
11
88.8408085
21
-19.060617
0
LINE
8
0
10
121.7301727
20
-22.5751895
11
124.1612472
21
-8.787881
0
LINE
8
0
10
124.1612472
20
-8.787881
11
110.3739387
21
-6.3568065
0
LINE
8
0
10
110.3739387
20
-6.3568065
11
107.9428642
21
-20.144115
0
LINE
8
0
10
107.9428642
20
-20.144115
11
121.7301727
21
-22.5751895
0
LINE
8
0
10
129.085286
20
-9.6561219
11
126.6542115
21
-23.4434304
0
LINE
8
0
10
126.6542115
20
-23.4434304
11
140.44152
21
-25.8745049
0
LINE
8
0
10
140.44152
20
-25.8745049
11
142.8725945
21
-12.0871964
0
LINE
8
0
10
142.8725945
20
-12.0871964
11
129.085286
21
-9.6561219
0
LINE
8
0
10
128.2195
20
19.9055
11
140.0805
21
19.9055
0
LINE
8
0
10
140.0805
20
19.9055
11
140.0805
21
26.5795
0
LINE
8
0
10
140.0805
20
26.5795
11
128.2195
21
26.5795
0
LINE
8
0
10
128.2195
20
26.5795
11
128.2195
21
19.9055
0
LINE
8
0
10
131.525
20
4.2175
11
145.525
21
4.2175
0
LINE
8
0
10
145.525
20
4.2175
11
145.525
21
18.2175
0
LINE
8
0
10
145.525
20
18.2175
11
131.525
21
18.2175
0
LINE
8
0
10
131.525
20
18.2175
11
131.525
21
4.2175
0
ENDSEC
0
EOF