0
SECTION
2
HEADER
9
$INSUNITS
70
4
0
ENDSEC
0
SECTION
2
TABLES
0
TABLE
2
LTYPE
0
LTYPE
72
65
70
64
2
CONTINUOUS
3
______
73
0
40
0
0
ENDTAB
0
TABLE
2
LAYER
0
ENDTAB
0
ENDSEC
0
SECTION
2
ENTITIES
0
LINE
8
0
10
27.9031818
20
-9.5
11
14.2376349
21
-9.5
0
LINE
8
0
10
4.7123651
20
-9.5
11
-7.5
21
-9.5
0
LINE
8
0
10
-9.5
20
-7.5
11
-9.5
21
-4.7626349
0
LINE
8
0
10
-9.5
20
4.7626349
11
-9.5
21
52.3873651
0
LINE
8
0
10
-9.5
20
61.9126349
11
-9.5
21
65.2649549
0
LINE
8
0
10
-8.2047218
20
67.1366833
11
28.1093129
21
80.8092284
0
LINE
8
0
10
28.8140347
20
80.9375
11
30.7373651
21
80.9375
0
LINE
8
0
10
40.2626349
20
80.9375
11
83.2623651
21
80.9375
0
LINE
8
0
10
92.7876349
20
80.9375
11
94.3046027
21
80.9375
0
LINE
8
0
10
95.6463165
20
80.4206737
11
113.4286835
21
64.3343263
0
LINE
8
0
10
114.7703973
20
63.8175
11
118.7623651
21
63.8175
0
LINE
8
0
10
128.2876349
20
63.8175
11
140.55
21
63.8175
0
LINE
8
0
10
142.55
20
61.8175
11
142.55
21
59.0801349
0
LINE
8
0
10
142.55
20
49.5548651
11
142.55
21
16.3405834
0
LINE
8
0
10
142.5650924
20
16.0953452
11
145.8209832
21
-10.2571704
0
LINE
8
0
10
145.8056911
20
-10.849705
11
145.0350943
21
-15.2199773
0
LINE
8
0
10
143.3810485
20
-24.6005369
11
142.4095789
21
-30.1100147
0
LINE
8
0
10
140.0922784
20
-31.7322652
11
127.7026412
21
-29.5451164
0
LINE
8
0
10
119.1444329
20
-28.0343317
11
104.6504844
21
-25.4757078
0
LINE
8
0
10
104.6311868
20
-25.4722036
11
85.5819201
21
-21.9164573
0
LINE
8
0
10
85.2149375
20
-21.8825
11
71.1626349
21
-21.8825
0
LINE
8
0
10
61.6373651
20
-21.8825
11
47.9968182
21
-21.8825
0
LINE
8
0
10
46.9007818
20
-21.5554328
11
28.9992182
21
-9.8270672
0
ARC
8
0
10
-7.5
20
-7.5
40
2
50
180
51
270
0
ARC
8
0
10
-7.5
20
65.2649549
40
2
50
110.6317864
51
180
0
ARC
8
0
10
28.8140347
20
78.9375
40
2
50
90
51
110.6317864
0
ARC
8
0
10
94.3046027
20
78.9375
40
2
50
47.8667638
51
90
0
ARC
8
0
10
114.7703973
20
65.8175
40
2
50
227.8667638
51
270
0
ARC
8
0
10
140.55
20
61.8175
40
2
50
0
51
90
0
ARC
8
0
10
144.55
20
16.3405834
40
2
50
180
51
187.0432825
0
ARC
8
0
10
143.8360756
20
-10.5024086
40
2
50
349.9999992
51
7.0432825
0
ARC
8
0
10
140.4399634
20
-29.7627183
40
2
50
259.9886945
51
349.9999992
0
ARC
8
0
10
104.9981694
20
-23.5061609
40
2
50
259.426815
51
259.9886945
0
ARC
8
0
10
85.2149375
20
-23.8825
40
2
50
79.426815
51
90
0
ARC
8
0
10
47.9968182
20
-19.8825
40
2
50
236.7688406
51
270
0
ARC
8
0
10
27.9031818
20
-11.5
40
2
50
56.7688406
51
90
0
LINE
8
0
10
13.2717091
20
-10.241181
11
12.4693701
21
-13.2355511
0
LINE
8
0
10
6.4806299
20
-13.2355511
11
5.6782909
21
-10.241181
0
ARC
8
0
10
4.7123651
20
-10.5
40
1
50
14.9999979
51
90
0
ARC
8
0
10
14.2376349
20
-10.5
40
1
50
90
51
165.0000021
0
ARC
8
0
10
9.475
20
-12.4332121
40
3.1
50
194.9999991
51
345.0000009
0
CIRCLE
8
0
10
9.475
20
-12.4332121
40
1.1
0
LINE
8
0
10
-10.241181
20
53.3532909
11
-13.2355511
21
54.1556299
0
LINE
8
0
10
-13.2355511
20
60.1443701
11
-10.241181
21
60.9467091
0
ARC
8
0
10
-10.5
20
61.9126349
40
1
50
284.9999979
51
0
0
ARC
8
0
10
-10.5
20
52.3873651
40
1
50
0
51
75.0000021
0
ARC
8
0
10
-12.4332121
20
57.15
40
3.1
50
104.9999991
51
255.0000009
0
CIRCLE
8
0
10
-12.4332121
20
57.15
40
1.1
0
LINE
8
0
10
-10.241181
20
-3.7967091
11
-13.2355511
21
-2.9943701
0
LINE
8
0
10
-13.2355511
20
2.9943701
11
-10.241181
21
3.7967091
0
ARC
8
0
10
-10.5
20
4.7626349
40
1
50
284.9999979
51
0
0
ARC
8
0
10
-10.5
20
-4.7626349
40
1
50
0
51
75.0000021
0
ARC
8
0
10
-12.4332121
20
0
40
3.1
50
104.9999991
51
255.0000009
0
CIRCLE
8
0
10
-12.4332121
20
0
40
1.1
0
LINE
8
0
10
70.1967091
20
-22.623681
11
69.3943701
21
-25.6180511
0
LINE
8
0
10
63.4056299
20
-25.6180511
11
62.6032909
21
-22.623681
0
ARC
8
0
10
61.6373651
20
-22.8825
40
1
50
14.9999979
51
90
0
ARC
8
0
10
71.1626349
20
-22.8825
40
1
50
90
51
165.0000021
0
ARC
8
0
10
66.4
20
-24.8157121
40
3.1
50
194.9999991
51
345.0000009
0
CIRCLE
8
0
10
66.4
20
-24.8157121
40
1.1
0
LINE
8
0
10
127.0515477
20
-30.0893827
11
125.7414311
21
-32.8989369
0
LINE
8
0
10
119.8436734
20
-31.8590031
11
119.5734906
21
-28.7707995
0
ARC
8
0
10
118.5772959
20
-28.8579552
40
1
50
4.9999979
51
55.4491805
0
ARC
8
0
10
127.9578555
20
-30.5120009
40
1
50
104.786284
51
155.0000021
0
ARC
8
0
10
122.931877
20
-31.5888203
40
3.1
50
184.9999991
51
335.0000009
0
CIRCLE
8
0
10
122.931877
20
-31.5888203
40
1.1
0
LINE
8
0
10
145.5972838
20
-16.2999333
11
148.406838
21
-17.6100499
0
LINE
8
0
10
147.3669042
20
-23.5078076
11
144.2787006
21
-23.7779904
0
ARC
8
0
10
144.3658563
20
-24.7741851
40
1
50
94.9999979
51
170
0
ARC
8
0
10
146.019902
20
-15.3936255
40
1
50
170
51
245.0000021
0
ARC
8
0
10
147.0967214
20
-20.419604
40
3.1
50
274.9999991
51
65.0000009
0
CIRCLE
8
0
10
147.0967214
20
-20.419604
40
1.1
0
LINE
8
0
10
143.291181
20
58.1142091
11
146.2855511
21
57.3118701
0
LINE
8
0
10
146.2855511
20
51.3231299
11
143.291181
21
50.5207909
0
ARC
8
0
10
143.55
20
49.5548651
40
1
50
104.9999979
51
180
0
ARC
8
0
10
143.55
20
59.0801349
40
1
50
180
51
255.0000021
0
ARC
8
0
10
145.4832121
20
54.3175
40
3.1
50
284.9999991
51
75.0000009
0
CIRCLE
8
0
10
145.4832121
20
54.3175
40
1.1
0
LINE
8
0
10
31.7032909
20
81.678681
11
32.5056299
21
84.6730511
0
LINE
8
0
10
38.4943701
20
84.6730511
11
39.2967091
21
81.678681
0
ARC
8
0
10
40.2626349
20
81.9375
40
1
50
554.9999979
51
630
0
ARC
8
0
10
30.7373651
20
81.9375
40
1
50
270
51
345.0000021
0
ARC
8
0
10
35.5
20
83.8707121
40
3.1
50
374.9999991
51
525.0000009
0
CIRCLE
8
0
10
35.5
20
83.8707121
40
1.1
0
LINE
8
0
10
84.2282909
20
81.678681
11
85.0306299
21
84.6730511
0
LINE
8
0
10
91.0193701
20
84.6730511
11
91.8217091
21
81.678681
0
ARC
8
0
10
92.7876349
20
81.9375
40
1
50
554.9999979
51
630
0
ARC
8
0
10
83.2623651
20
81.9375
40
1
50
270
51
345.0000021
0
ARC
8
0
10
88.025
20
83.8707121
40
3.1
50
374.9999991
51
525.0000009
0
CIRCLE
8
0
10
88.025
20
83.8707121
40
1.1
0
LINE
8
0
10
119.7282909
20
64.558681
11
120.5306299
21
67.5530511
0
LINE
8
0
10
126.5193701
20
67.5530511
11
127.3217091
21
64.558681
0
ARC
8
0
10
128.2876349
20
64.8175
40
1
50
554.9999979
51
630
0
ARC
8
0
10
118.7623651
20
64.8175
40
1
50
270
51
345.0000021
0
ARC
8
0
10
123.525
20
66.7507121
40
3.1
50
374.9999991
51
525.0000009
0
CIRCLE
8
0
10
123.525
20
66.7507121
40
1.1
0
LINE
8
0
10
-7
20
-7
11
7
21
-7
0
LINE
8
0
10
7
20
-7
11
7
21
7
0
LINE
8
0
10
7
20
7
11
-7
21
7
0
LINE
8
0
10
-7
20
7
11
-7
21
-7
0
LINE
8
0
10
-7
20
12.05
11
7
21
12.05
0
LINE
8
0
10
7
20
12.05
11
7
21
26.05
0
LINE
8
0
10
7
20
26.05
11
-7
21
26.05
0
LINE
8
0
10
-7
20
26.05
11
-7
21
12.05
0
LINE
8
0
10
-7
20
31.1
11
7
21
31.1
0
LINE
8
0
10
7
20
31.1
11
7
21
45.1
0
LINE
8
0
10
7
20
45.1
11
-7
21
45.1
0
LINE
8
0
10
-7
20
45.1
11
-7
21
31.1
0
LINE
8
0
10
-7
20
50.15
11
7
21
50.15
0
LINE
8
0
10
7
20
50.15
11
7
21
64.15
0
LINE
8
0
10
7
20
64.15
11
-7
21
64.15
0
LINE
8
0
10
-7
20
64.15
11
-7
21
50.15
0
LINE
8
0
10
12
20
-7
11
26
21
-7
0
LINE
8
0
10
26
20
-7
11
26
21
7
0
LINE
8
0
10
26
20
7
11
12
21
7
0
LINE
8
0
10
12
20
7
11
12
21
-7
0
LINE
8
0
10
12
20
12.05
11
26
21
12.05
0
LINE
8
0
10
26
20
12.05
11
26
21
26.05
0
LINE
8
0
10
26
20
26.05
11
12
21
26.05
0
LINE
8
0
10
12
20
26.05
11
12
21
12.05
0
LINE
8
0
10
12
20
31.1
11
26
21
31.1
0
LINE
8
0
10
26
20
31.1
11
26
21
45.1
0
LINE
8
0
10
26
20
45.1
11
12
21
45.1
0
LINE
8
0
10
12
20
45.1
11
12
21
31.1
0
LINE
8
0
10
12
20
50.15
11
26
21
50.15
0
LINE
8
0
10
26
20
50.15
11
26
21
64.15
0
LINE
8
0
10
26
20
64.15
11
12
21
64.15
0
LINE
8
0
10
12
20
64.15
11
12
21
50.15
0
LINE
8
0
10
31
20
4.43
11
45
21
4.43
0
LINE
8
0
10
45
20
4.43
11
45
21
18.43
0
LINE
8
0
10
45
20
18.43
11
31
21
18.43
0
LINE
8
0
10
31
20
18.43
11
31
21
4.43
0
LINE
8
0
10
31
20
23.48
11
45
21
23.48
0
LINE
8
0
10
45
20
23.48
11
45
21
37.48
0
LINE
8
0
10
45
20
37.48
11
31
21
37.48
0
LINE
8
0
10
31
20
37.48
11
31
21
23.48
0
LINE
8
0
10
31
20
42.53
11
45
21
42.53
0
LINE
8
0
10
45
20
42.53
11
45
21
56.53
0
LINE
8
0
10
45
20
56.53
11
31
21
56.53
0
LINE
8
0
10
31
20
56.53
11
31
21
42.53
0
LINE
8
0
10
31
20
61.58
11
45
21
61.58
0
LINE
8
0
10
45
20
61.58
11
45
21
75.58
0
LINE
8
0
10
45
20
75.58
11
31
21
75.58
0
LINE
8
0
10
31
20
75.58
11
31
21
61.58
0
LINE
8
0
10
50
20
7.2875
11
64
21
7.2875
0
LINE
8
0
10
64
20
7.2875
11
64
21
21.2875
0
LINE
8
0
10
64
20
21.2875
11
50
21
21.2875
0
LINE
8
0
10
50
20
21.2875
11
50
21
7.2875
0
LINE
8
0
10
50
20
26.3375
11
64
21
26.3375
0
LINE
8
0
10
64
20
26.3375
11
64
21
40.3375
0
LINE
8
0
10
64
20
40.3375
11
50
21
40.3375
0
LINE
8
0
10
50
20
40.3375
11
50
21
26.3375
0
LINE
8
0
10
50
20
45.3875
11
64
21
45.3875
0
LINE
8
0
10
64
20
45.3875
11
64
21
59.3875
0
LINE
8
0
10
64
20
59.3875
11
50
21
59.3875
0
LINE
8
0
10
50
20
59.3875
11
50
21
45.3875
0
LINE
8
0
10
50
20
64.4375
11
64
21
64.4375
0
LINE
8
0
10
64
20
64.4375
11
64
21
78.4375
0
LINE
8
0
10
64
20
78.4375
11
50
21
78.4375
0
LINE
8
0
10
50
20
78.4375
11
50
21
64.4375
0
LINE
8
0
10
69
20
2.525
11
83
21
2.525
0
LINE
8
0
10
83
20
2.525
11
83
21
16.525
0
LINE
8
0
10
83
20
16.525
11
69
21
16.525
0
LINE
8
0
10
69
20
16.525
11
69
21
2.525
0
LINE
8
0
10
69
20
21.575
11
83
21
21.575
0
LINE
8
0
10
83
20
21.575
11
83
21
35.575
0
LINE
8
0
10
83
20
35.575
11
69
21
35.575
0
LINE
8
0
10
69
20
35.575
11
69
21
21.575
0
LINE
8
0
10
69
20
40.625
11
83
21
40.625
0
LINE
8
0
10
83
20
40.625
11
83
21
54.625
0
LINE
8
0
10
83
20
54.625
11
69
21
54.625
0
LINE
8
0
10
69
20
54.625
11
69
21
40.625
0
LINE
8
0
10
69
20
59.675
11
83
21
59.675
0
LINE
8
0
10
83
20
59.675
11
83
21
73.675
0
LINE
8
0
10
83
20
73.675
11
69
21
73.675
0
LINE
8
0
10
69
20
73.675
11
69
21
59.675
0
LINE
8
0
10
88
20
-0.3325
11
102
21
-0.3325
0
LINE
8
0
10
102
20
-0.3325
11
102
21
13.6675
0
LINE
8
0
10
102
20
13.6675
11
88
21
13.6675
0
LINE
8
0
10
88
20
13.6675
11
88
21
-0.3325
0
LINE
8
0
10
88
20
18.7175
11
102
21
18.7175
0
LINE
8
0
10
102
20
18.7175
11
102
21
32.7175
0
LINE
8
0
10
102
20
32.7175
11
88
21
32.7175
0
LINE
8
0
10
88
20
32.7175
11
88
21
18.7175
0
LINE
8
0
10
88
20
37.7675
11
102
21
37.7675
0
LINE
8
0
10
102
20
37.7675
11
102
21
51.7675
0
LINE
8
0
10
102
20
51.7675
11
88
21
51.7675
0
LINE
8
0
10
88
20
51.7675
11
88
21
37.7675
0
LINE
8
0
10
88
20
56.8175
11
102
21
56.8175
0
LINE
8
0
10
102
20
56.8175
11
102
21
70.8175
0
LINE
8
0
10
102
20
70.8175
11
88
21
70.8175
0
LINE
8
0
10
88
20
70.8175
11
88
21
56.8175
0
LINE
8
0
10
107
20
9.2175
11
121
21
9.2175
0
LINE
8
0
10
121
20
9.2175
11
121
21
23.2175
0
LINE
8
0
10
121
20
23.2175
11
107
21
23.2175
0
LINE
8
0
10
107
20
23.2175
11
107
21
9.2175
0
LINE
8
0
10
107
20
28.2675
11
121
21
28.2675
0
LINE
8
0
10
121
20
28.2675
11
121
21
42.2675
0
LINE
8
0
10
121
20
42.2675
11
107
21
42.2675
0
LINE
8
0
10
107
20
42.2675
11
107
21
28.2675
0
LINE
8
0
10
107
20
47.3175
11
121
21
47.3175
0
LINE
8
0
10
121
20
47.3175
11
121
21
61.3175
0
LINE
8
0
10
121
20
61.3175
11
107
21
61.3175
0
LINE
8
0
10
107
20
61.3175
11
107
21
47.3175
0
LINE
8
0
10
49.9
20
-19.3825
11
63.9
21
-19.3825
0
LINE
8
0
10
63.9
20
-19.3825
11
63.9
21
-5.3825
0
LINE
8
0
10
63.9
20
-5.3825
11
49.9
21
-5.3825
0
LINE
8
0
10
49.9
20
-5.3825
11
49.9
21
-19.3825
0
LINE
8
0
10
68.9
20
-19.3825
11
82.9
21
-19.3825
0
LINE
8
0
10
82.9
20
-19.3825
11
82.9
21
-5.3825
0
LINE
8
0
10
82.9
20
-5.3825
11
68.9
21
-5.3825
0
LINE
8
0
10
68.9
20
-5.3825
11
68.9
21
-19.3825
0
LINE
8
0
10
88.8408085
20
-20.060617
11
102.628117
21
-22.4916915
0
LINE
8
0
10
102.628117
20
-22.4916915
11
105.0591915
21
-8.704383
0
LINE
8
0
10
105.0591915
20
-8.704383
11
91.271883
21
-6.2733085
0
LINE
8
0
10
91.271883
20
-6.2733085
11
88.8408085
21
-20.060617
0
LINE
8
0
10
121.8191674
20
-23.0704755
11
124.2502419
21
-9.283167
0
LINE
8
0
10
124.2502419
20
-9.283167
11
110.4629334
21
-6.8520925
0
LINE
8
0
10
110.4629334
20
-6.8520925
11
108.0318589
21
-20.639401
0
LINE
8
0
10
108.0318589
20
-20.639401
11
121.8191674
21
-23.0704755
0
LINE
8
0
10
129.1742807
20
-10.1514079
11
126.7432062
21
-23.9387164
0
LINE
8
0
10
126.7432062
20
-23.9387164
11
140.5305147
21
-26.3697909
0
LINE
8
0
10
140.5305147
20
-26.3697909
11
142.9615892
21
-12.5824824
0
LINE
8
0
10
142.9615892
20
-12.5824824
11
129.1742807
21
-10.1514079
0
LINE
8
0
10
126.55
20
22.8175
11
139.55
21
22.8175
0
LINE
8
0
10
139.55
20
22.8175
11
139.55
21
61.8175
0
LINE
8
0
10
139.55
20
61.8175
11
126.55
21
61.8175
0
LINE
8
0
10
126.55
20
61.8175
11
126.55
21
22.8175
0
ENDSEC
0
EOF