0
SECTION
2
HEADER
9
$INSUNITS
70
4
0
ENDSEC
0
SECTION
2
TABLES
0
TABLE
2
LTYPE
0
LTYPE
72
65
70
64
2
CONTINUOUS
3
______
73
0
40
0
0
ENDTAB
0
TABLE
2
LAYER
0
ENDTAB
0
ENDSEC
0
SECTION
2
ENTITIES
0
LINE
8
0
10
26.4315047
20
-16.525
11
9.8899836
21
-16.525
0
ARC
8
0
10
9.8899836
20
-8.525
40
8
50
224.9247083
51
270
0
LINE
8
0
10
4.2257007
20
-14.1744159
11
-14.1892828
21
4.2890281
0
ARC
8
0
10
-8.525
20
9.9384441
40
8
50
180
51
224.9247083
0
LINE
8
0
10
-16.525
20
9.9384441
11
-16.525
21
65.9819775
0
ARC
8
0
10
-8.525
20
65.9819775
40
8
50
110.6317864
51
180
0
LINE
8
0
10
-11.3438871
20
73.4688911
11
25.787023
21
87.4489966
0
ARC
8
0
10
28.2546565
20
80.8983642
40
7
50
110.6317864
51
110.6414704
0
ARC
8
0
10
28.6070174
20
79.9625
40
8
50
90
51
110.6317864
0
LINE
8
0
10
28.6070174
20
87.9625
11
95.6520403
21
87.9625
0
ARC
8
0
10
95.6520403
20
79.9625
40
8
50
46.3517775
51
90
0
LINE
8
0
10
101.1738706
20
85.7512296
11
116.8032178
21
70.8425
0
LINE
8
0
10
116.8032178
20
70.8425
11
152.525
21
70.8425
0
ARC
8
0
10
152.525
20
62.8425
40
8
50
0
51
90
0
LINE
8
0
10
160.525
20
62.8425
11
160.525
21
16.3670164
0
ARC
8
0
10
152.525
20
16.3670164
40
8
50
342.9926789
51
360
0
ARC
8
0
10
153.4812674
20
16.0745225
40
7
50
342.9829918
51
342.9926789
0
LINE
8
0
10
160.1747929
20
14.0259335
11
153.0304264
21
-9.3315583
0
LINE
8
0
10
153.0304264
20
-9.3315583
11
149.1435006
21
-31.3754091
0
ARC
8
0
10
141.2650386
20
-29.9862236
40
8
50
260.0239679
51
349.9999992
0
ARC
8
0
10
141.0913904
20
-30.9710314
40
7
50
259.9999999
51
260.0273918
0
LINE
8
0
10
139.8758531
20
-37.8646857
11
103.3955431
21
-31.4322227
0
ARC
8
0
10
104.7847286
20
-23.5537607
40
8
50
259.2063762
51
259.9999992
0
LINE
8
0
10
103.2865525
20
-31.4122255
11
94.335923
21
-29.7058337
0
LINE
8
0
10
94.335923
20
-29.7058337
11
85.1223027
21
-28.9075
0
LINE
8
0
10
85.1223027
20
-28.9075
11
47.6740707
21
-28.9075
0
ARC
8
0
10
47.6740707
20
-20.9075
40
8
50
236.699225
51
270
0
LINE
8
0
10
43.2817979
20
-27.5938995
11
26.4315047
21
-16.525
0
LINE
8
0
10
-9
20
10.05
11
9
21
10.05
0
LINE
8
0
10
9
20
10.05
11
9
21
28.05
0
LINE
8
0
10
9
20
28.05
11
-9
21
28.05
0
LINE
8
0
10
-9
20
28.05
11
-9
21
10.05
0
LINE
8
0
10
-9
20
29.1
11
9
21
29.1
0
LINE
8
0
10
9
20
29.1
11
9
21
47.1
0
LINE
8
0
10
9
20
47.1
11
-9
21
47.1
0
LINE
8
0
10
-9
20
47.1
11
-9
21
29.1
0
LINE
8
0
10
-9
20
48.15
11
9
21
48.15
0
LINE
8
0
10
9
20
48.15
11
9
21
66.15
0
LINE
8
0
10
9
20
66.15
11
-9
21
66.15
0
LINE
8
0
10
-9
20
66.15
11
-9
21
48.15
0
LINE
8
0
10
10
20
-9
11
28
21
-9
0
LINE
8
0
10
28
20
-9
11
28
21
9
0
LINE
8
0
10
28
20
9
11
10
21
9
0
LINE
8
0
10
10
20
9
11
10
21
-9
0
LINE
8
0
10
10
20
10.05
11
28
21
10.05
0
LINE
8
0
10
28
20
10.05
11
28
21
28.05
0
LINE
8
0
10
28
20
28.05
11
10
21
28.05
0
LINE
8
0
10
10
20
28.05
11
10
21
10.05
0
LINE
8
0
10
10
20
29.1
11
28
21
29.1
0
LINE
8
0
10
28
20
29.1
11
28
21
47.1
0
LINE
8
0
10
28
20
47.1
11
10
21
47.1
0
LINE
8
0
10
10
20
47.1
11
10
21
29.1
0
LINE
8
0
10
10
20
48.15
11
28
21
48.15
0
LINE
8
0
10
28
20
48.15
11
28
21
66.15
0
LINE
8
0
10
28
20
66.15
11
10
21
66.15
0
LINE
8
0
10
10
20
66.15
11
10
21
48.15
0
LINE
8
0
10
29
20
2.43
11
47
21
2.43
0
LINE
8
0
10
47
20
2.43
11
47
21
20.43
0
LINE
8
0
10
47
20
20.43
11
29
21
20.43
0
LINE
8
0
10
29
20
20.43
11
29
21
2.43
0
LINE
8
0
10
29
20
21.48
11
47
21
21.48
0
LINE
8
0
10
47
20
21.48
11
47
21
39.48
0
LINE
8
0
10
47
20
39.48
11
29
21
39.48
0
LINE
8
0
10
29
20
39.48
11
29
21
21.48
0
LINE
8
0
10
29
20
40.53
11
47
21
40.53
0
LINE
8
0
10
47
20
40.53
11
47
21
58.53
0
LINE
8
0
10
47
20
58.53
11
29
21
58.53
0
LINE
8
0
10
29
20
58.53
11
29
21
40.53
0
LINE
8
0
10
29
20
59.58
11
47
21
59.58
0
LINE
8
0
10
47
20
59.58
11
47
21
77.58
0
LINE
8
0
10
47
20
77.58
11
29
21
77.58
0
LINE
8
0
10
29
20
77.58
11
29
21
59.58
0
LINE
8
0
10
48
20
5.2875
11
66
21
5.2875
0
LINE
8
0
10
66
20
5.2875
11
66
21
23.2875
0
LINE
8
0
10
66
20
23.2875
11
48
21
23.2875
0
LINE
8
0
10
48
20
23.2875
11
48
21
5.2875
0
LINE
8
0
10
48
20
24.3375
11
66
21
24.3375
0
LINE
8
0
10
66
20
24.3375
11
66
21
42.3375
0
LINE
8
0
10
66
20
42.3375
11
48
21
42.3375
0
LINE
8
0
10
48
20
42.3375
11
48
21
24.3375
0
LINE
8
0
10
48
20
43.3875
11
66
21
43.3875
0
LINE
8
0
10
66
20
43.3875
11
66
21
61.3875
0
LINE
8
0
10
66
20
61.3875
11
48
21
61.3875
0
LINE
8
0
10
48
20
61.3875
11
48
21
43.3875
0
LINE
8
0
10
48
20
62.4375
11
66
21
62.4375
0
LINE
8
0
10
66
20
62.4375
11
66
21
80.4375
0
LINE
8
0
10
66
20
80.4375
11
48
21
80.4375
0
LINE
8
0
10
48
20
80.4375
11
48
21
62.4375
0
LINE
8
0
10
67
20
0.525
11
85
21
0.525
0
LINE
8
0
10
85
20
0.525
11
85
21
18.525
0
LINE
8
0
10
85
20
18.525
11
67
21
18.525
0
LINE
8
0
10
67
20
18.525
11
67
21
0.525
0
LINE
8
0
10
67
20
19.575
11
85
21
19.575
0
LINE
8
0
10
85
20
19.575
11
85
21
37.575
0
LINE
8
0
10
85
20
37.575
11
67
21
37.575
0
LINE
8
0
10
67
20
37.575
11
67
21
19.575
0
LINE
8
0
10
67
20
38.625
11
85
21
38.625
0
LINE
8
0
10
85
20
38.625
11
85
21
56.625
0
LINE
8
0
10
85
20
56.625
11
67
21
56.625
0
LINE
8
0
10
67
20
56.625
11
67
21
38.625
0
LINE
8
0
10
67
20
57.675
11
85
21
57.675
0
LINE
8
0
10
85
20
57.675
11
85
21
75.675
0
LINE
8
0
10
85
20
75.675
11
67
21
75.675
0
LINE
8
0
10
67
20
75.675
11
67
21
57.675
0
LINE
8
0
10
86
20
-2.3325
11
104
21
-2.3325
0
LINE
8
0
10
104
20
-2.3325
11
104
21
15.6675
0
LINE
8
0
10
104
20
15.6675
11
86
21
15.6675
0
LINE
8
0
10
86
20
15.6675
11
86
21
-2.3325
0
LINE
8
0
10
86
20
16.7175
11
104
21
16.7175
0
LINE
8
0
10
104
20
16.7175
11
104
21
34.7175
0
LINE
8
0
10
104
20
34.7175
11
86
21
34.7175
0
LINE
8
0
10
86
20
34.7175
11
86
21
16.7175
0
LINE
8
0
10
86
20
35.7675
11
104
21
35.7675
0
LINE
8
0
10
104
20
35.7675
11
104
21
53.7675
0
LINE
8
0
10
104
20
53.7675
11
86
21
53.7675
0
LINE
8
0
10
86
20
53.7675
11
86
21
35.7675
0
LINE
8
0
10
86
20
54.8175
11
104
21
54.8175
0
LINE
8
0
10
104
20
54.8175
11
104
21
72.8175
0
LINE
8
0
10
104
20
72.8175
11
86
21
72.8175
0
LINE
8
0
10
86
20
72.8175
11
86
21
54.8175
0
LINE
8
0
10
105
20
7.2175
11
123
21
7.2175
0
LINE
8
0
10
123
20
7.2175
11
123
21
25.2175
0
LINE
8
0
10
123
20
25.2175
11
105
21
25.2175
0
LINE
8
0
10
105
20
25.2175
11
105
21
7.2175
0
LINE
8
0
10
105
20
26.2675
11
123
21
26.2675
0
LINE
8
0
10
123
20
26.2675
11
123
21
44.2675
0
LINE
8
0
10
123
20
44.2675
11
105
21
44.2675
0
LINE
8
0
10
105
20
44.2675
11
105
21
26.2675
0
LINE
8
0
10
105
20
45.3175
11
123
21
45.3175
0
LINE
8
0
10
123
20
45.3175
11
123
21
63.3175
0
LINE
8
0
10
123
20
63.3175
11
105
21
63.3175
0
LINE
8
0
10
105
20
63.3175
11
105
21
45.3175
0
LINE
8
0
10
47.9
20
-21.3825
11
65.9
21
-21.3825
0
LINE
8
0
10
65.9
20
-21.3825
11
65.9
21
-3.3825
0
LINE
8
0
10
65.9
20
-3.3825
11
47.9
21
-3.3825
0
LINE
8
0
10
47.9
20
-3.3825
11
47.9
21
-21.3825
0
LINE
8
0
10
66.9
20
-21.3825
11
84.9
21
-21.3825
0
LINE
8
0
10
84.9
20
-21.3825
11
84.9
21
-3.3825
0
LINE
8
0
10
84.9
20
-3.3825
11
66.9
21
-3.3825
0
LINE
8
0
10
66.9
20
-3.3825
11
66.9
21
-21.3825
0
LINE
8
0
10
86.5238966
20
-20.6829362
11
104.2504362
21
-23.8086034
0
LINE
8
0
10
104.2504362
20
-23.8086034
11
107.3761034
21
-6.0820638
0
LINE
8
0
10
107.3761034
20
-6.0820638
11
89.6495638
21
-2.9563966
0
LINE
8
0
10
89.6495638
20
-2.9563966
11
86.5238966
21
-20.6829362
0
LINE
8
0
10
122.9617835
20
-27.1079188
11
126.8688675
21
-4.9497444
0
LINE
8
0
10
126.8688675
20
-4.9497444
11
109.1423279
21
-1.8240772
0
LINE
8
0
10
109.1423279
20
-1.8240772
11
105.2352439
21
-23.9822516
0
LINE
8
0
10
105.2352439
20
-23.9822516
11
122.9617835
21
-27.1079188
0
LINE
8
0
10
127.8536752
20
-5.1233926
11
123.9465912
21
-27.281567
0
LINE
8
0
10
123.9465912
20
-27.281567
11
141.6731308
21
-30.4072342
0
LINE
8
0
10
141.6731308
20
-30.4072342
11
145.5802148
21
-8.2490598
0
LINE
8
0
10
145.5802148
20
-8.2490598
11
127.8536752
21
-5.1233926
0
LINE
8
0
10
28.2259293
20
-9.525
11
9.8899836
21
-9.525
0
LINE
8
0
10
9.1819482
20
-9.231177
11
-9.2330354
21
9.2322671
0
LINE
8
0
10
-9.525
20
9.9384441
11
-9.525
21
65.9819775
0
LINE
8
0
10
-8.8773609
20
66.9178417
11
28.2546565
21
80.8983642
0
LINE
8
0
10
28.6070174
20
80.9625
11
95.6520403
21
80.9625
0
LINE
8
0
10
96.3422691
20
80.6860912
11
113.7102309
21
64.1189088
0
LINE
8
0
10
114.4004597
20
63.8425
11
152.525
21
63.8425
0
LINE
8
0
10
153.525
20
62.8425
11
153.525
21
16.3670164
0
LINE
8
0
10
153.4812674
20
16.0745225
11
146.229104
21
-7.6353956
0
LINE
8
0
10
146.2005636
20
-7.7542413
11
142.2498464
21
-30.1598718
0
LINE
8
0
10
141.0913904
20
-30.9710314
11
104.6110804
21
-24.5385685
0
LINE
8
0
10
104.5974566
20
-24.5360688
11
95.3461187
21
-22.7723485
0
LINE
8
0
10
95.2451704
20
-22.7583895
11
85.4680816
21
-21.9112329
0
LINE
8
0
10
85.3817579
20
-21.9075
11
47.6740707
21
-21.9075
0
LINE
8
0
10
47.1250366
20
-21.7432999
11
28.7749634
21
-9.6892001
0
ARC
8
0
10
9.8899836
20
-8.525
40
1
50
224.9247083
51
270
0
ARC
8
0
10
-8.525
20
9.9384441
40
1
50
180
51
224.9247083
0
ARC
8
0
10
-8.525
20
65.9819775
40
1
50
110.6317864
51
180
0
ARC
8
0
10
28.6070174
20
79.9625
40
1
50
90
51
110.6317864
0
ARC
8
0
10
95.6520403
20
79.9625
40
1
50
46.3517775
51
90
0
ARC
8
0
10
114.4004597
20
64.8425
40
1
50
226.3517775
51
270
0
ARC
8
0
10
152.525
20
62.8425
40
1
50
0
51
90
0
ARC
8
0
10
152.525
20
16.3670164
40
1
50
342.9926789
51
0
0
ARC
8
0
10
147.1853714
20
-7.9278895
40
1
50
162.9926789
51
169.9999992
0
ARC
8
0
10
141.2650386
20
-29.9862236
40
1
50
259.9999992
51
349.9999992
0
ARC
8
0
10
104.7847286
20
-23.5537607
40
1
50
259.2063762
51
259.9999992
0
ARC
8
0
10
95.1588467
20
-23.7546566
40
1
50
79.2063762
51
85.0478527
0
ARC
8
0
10
85.3817579
20
-22.9075
40
1
50
85.0478527
51
90
0
ARC
8
0
10
47.6740707
20
-20.9075
40
1
50
236.699225
51
270
0
ARC
8
0
10
28.2259293
20
-10.525
40
1
50
56.699225
51
90
0
LINE
8
0
10
129.025
20
35.3175
11
144.025
21
35.3175
0
LINE
8
0
10
144.025
20
35.3175
11
144.025
21
57.3175
0
LINE
8
0
10
144.025
20
57.3175
11
129.025
21
57.3175
0
LINE
8
0
10
129.025
20
57.3175
11
129.025
21
35.3175
0
CIRCLE
8
0
10
138.525
20
11.2175
40
9.5
0
ENDSEC
0
EOF