0
SECTION
2
HEADER
9
$INSUNITS
70
4
0
ENDSEC
0
SECTION
2
TABLES
0
TABLE
2
LTYPE
0
LTYPE
72
65
70
64
2
CONTINUOUS
3
______
73
0
40
0
0
ENDTAB
0
TABLE
2
LAYER
0
ENDTAB
0
ENDSEC
0
SECTION
2
ENTITIES
0
LINE
8
0
10
26.4111364
20
-16.5
11
-7.5
21
-16.5
0
ARC
8
0
10
-7.5
20
-7.5
40
9
50
180
51
270
0
LINE
8
0
10
-16.5
20
-7.5
11
-16.5
21
65.2649549
0
ARC
8
0
10
-7.5
20
65.2649549
40
9
50
110.6317864
51
180
0
LINE
8
0
10
-10.671248
20
73.6877327
11
25.6427867
21
87.3602778
0
ARC
8
0
10
28.8140347
20
78.9375
40
9
50
90
51
110.6317864
0
LINE
8
0
10
28.8140347
20
87.9375
11
94.3046027
21
87.9375
0
ARC
8
0
10
94.3046027
20
78.9375
40
9
50
47.8667638
51
90
0
LINE
8
0
10
100.3423147
20
85.6117815
11
116.6963905
21
70.8175
0
LINE
8
0
10
116.6963905
20
70.8175
11
140.55
21
70.8175
0
ARC
8
0
10
140.55
20
61.8175
40
9
50
0
51
90
0
LINE
8
0
10
149.55
20
61.8175
11
149.55
21
16.7742653
0
LINE
8
0
10
149.55
20
16.7742653
11
153.2292384
21
-6.2082433
0
ARC
8
0
10
146.3172496
20
-7.3147742
40
7
50
369.074681
51
9.0952283
0
ARC
8
0
10
144.3423956
20
-7.6309258
40
9
50
349.9999992
51
369.0792465
0
LINE
8
0
10
153.2056654
20
-9.1937594
11
149.3209637
21
-31.2249978
0
ARC
8
0
10
140.4576938
20
-29.6621641
40
9
50
259.9999992
51
349.9999992
0
LINE
8
0
10
138.8948603
20
-38.5254339
11
103.7608098
21
-32.3303529
0
ARC
8
0
10
104.656016
20
-25.3878313
40
7
50
259.6829486
51
262.652516
0
LINE
8
0
10
103.4023509
20
-32.2746538
11
84.7680587
21
-28.8825
0
LINE
8
0
10
84.7680587
20
-28.8825
11
47.9968182
21
-28.8825
0
ARC
8
0
10
47.9968182
20
-19.8825
40
9
50
236.7688406
51
270
0
LINE
8
0
10
43.0646541
20
-27.4106974
11
26.4111364
21
-16.5
0
LINE
8
0
10
-9
20
-9
11
9
21
-9
0
LINE
8
0
10
9
20
-9
11
9
21
9
0
LINE
8
0
10
9
20
9
11
-9
21
9
0
LINE
8
0
10
-9
20
9
11
-9
21
-9
0
LINE
8
0
10
-9
20
10.05
11
9
21
10.05
0
LINE
8
0
10
9
20
10.05
11
9
21
28.05
0
LINE
8
0
10
9
20
28.05
11
-9
21
28.05
0
LINE
8
0
10
-9
20
28.05
11
-9
21
10.05
0
LINE
8
0
10
-9
20
29.1
11
9
21
29.1
0
LINE
8
0
10
9
20
29.1
11
9
21
47.1
0
LINE
8
0
10
9
20
47.1
11
-9
21
47.1
0
LINE
8
0
10
-9
20
47.1
11
-9
21
29.1
0
LINE
8
0
10
-9
20
48.15
11
9
21
48.15
0
LINE
8
0
10
9
20
48.15
11
9
21
66.15
0
LINE
8
0
10
9
20
66.15
11
-9
21
66.15
0
LINE
8
0
10
-9
20
66.15
11
-9
21
48.15
0
LINE
8
0
10
10
20
-9
11
28
21
-9
0
LINE
8
0
10
28
20
-9
11
28
21
9
0
LINE
8
0
10
28
20
9
11
10
21
9
0
LINE
8
0
10
10
20
9
11
10
21
-9
0
LINE
8
0
10
10
20
10.05
11
28
21
10.05
0
LINE
8
0
10
28
20
10.05
11
28
21
28.05
0
LINE
8
0
10
28
20
28.05
11
10
21
28.05
0
LINE
8
0
10
10
20
28.05
11
10
21
10.05
0
LINE
8
0
10
10
20
29.1
11
28
21
29.1
0
LINE
8
0
10
28
20
29.1
11
28
21
47.1
0
LINE
8
0
10
28
20
47.1
11
10
21
47.1
0
LINE
8
0
10
10
20
47.1
11
10
21
29.1
0
LINE
8
0
10
10
20
48.15
11
28
21
48.15
0
LINE
8
0
10
28
20
48.15
11
28
21
66.15
0
LINE
8
0
10
28
20
66.15
11
10
21
66.15
0
LINE
8
0
10
10
20
66.15
11
10
21
48.15
0
LINE
8
0
10
29
20
2.43
11
47
21
2.43
0
LINE
8
0
10
47
20
2.43
11
47
21
20.43
0
LINE
8
0
10
47
20
20.43
11
29
21
20.43
0
LINE
8
0
10
29
20
20.43
11
29
21
2.43
0
LINE
8
0
10
29
20
21.48
11
47
21
21.48
0
LINE
8
0
10
47
20
21.48
11
47
21
39.48
0
LINE
8
0
10
47
20
39.48
11
29
21
39.48
0
LINE
8
0
10
29
20
39.48
11
29
21
21.48
0
LINE
8
0
10
29
20
40.53
11
47
21
40.53
0
LINE
8
0
10
47
20
40.53
11
47
21
58.53
0
LINE
8
0
10
47
20
58.53
11
29
21
58.53
0
LINE
8
0
10
29
20
58.53
11
29
21
40.53
0
LINE
8
0
10
29
20
59.58
11
47
21
59.58
0
LINE
8
0
10
47
20
59.58
11
47
21
77.58
0
LINE
8
0
10
47
20
77.58
11
29
21
77.58
0
LINE
8
0
10
29
20
77.58
11
29
21
59.58
0
LINE
8
0
10
48
20
5.2875
11
66
21
5.2875
0
LINE
8
0
10
66
20
5.2875
11
66
21
23.2875
0
LINE
8
0
10
66
20
23.2875
11
48
21
23.2875
0
LINE
8
0
10
48
20
23.2875
11
48
21
5.2875
0
LINE
8
0
10
48
20
24.3375
11
66
21
24.3375
0
LINE
8
0
10
66
20
24.3375
11
66
21
42.3375
0
LINE
8
0
10
66
20
42.3375
11
48
21
42.3375
0
LINE
8
0
10
48
20
42.3375
11
48
21
24.3375
0
LINE
8
0
10
48
20
43.3875
11
66
21
43.3875
0
LINE
8
0
10
66
20
43.3875
11
66
21
61.3875
0
LINE
8
0
10
66
20
61.3875
11
48
21
61.3875
0
LINE
8
0
10
48
20
61.3875
11
48
21
43.3875
0
LINE
8
0
10
48
20
62.4375
11
66
21
62.4375
0
LINE
8
0
10
66
20
62.4375
11
66
21
80.4375
0
LINE
8
0
10
66
20
80.4375
11
48
21
80.4375
0
LINE
8
0
10
48
20
80.4375
11
48
21
62.4375
0
LINE
8
0
10
67
20
0.525
11
85
21
0.525
0
LINE
8
0
10
85
20
0.525
11
85
21
18.525
0
LINE
8
0
10
85
20
18.525
11
67
21
18.525
0
LINE
8
0
10
67
20
18.525
11
67
21
0.525
0
LINE
8
0
10
67
20
19.575
11
85
21
19.575
0
LINE
8
0
10
85
20
19.575
11
85
21
37.575
0
LINE
8
0
10
85
20
37.575
11
67
21
37.575
0
LINE
8
0
10
67
20
37.575
11
67
21
19.575
0
LINE
8
0
10
67
20
38.625
11
85
21
38.625
0
LINE
8
0
10
85
20
38.625
11
85
21
56.625
0
LINE
8
0
10
85
20
56.625
11
67
21
56.625
0
LINE
8
0
10
67
20
56.625
11
67
21
38.625
0
LINE
8
0
10
67
20
57.675
11
85
21
57.675
0
LINE
8
0
10
85
20
57.675
11
85
21
75.675
0
LINE
8
0
10
85
20
75.675
11
67
21
75.675
0
LINE
8
0
10
67
20
75.675
11
67
21
57.675
0
LINE
8
0
10
86
20
-2.3325
11
104
21
-2.3325
0
LINE
8
0
10
104
20
-2.3325
11
104
21
15.6675
0
LINE
8
0
10
104
20
15.6675
11
86
21
15.6675
0
LINE
8
0
10
86
20
15.6675
11
86
21
-2.3325
0
LINE
8
0
10
86
20
16.7175
11
104
21
16.7175
0
LINE
8
0
10
104
20
16.7175
11
104
21
34.7175
0
LINE
8
0
10
104
20
34.7175
11
86
21
34.7175
0
LINE
8
0
10
86
20
34.7175
11
86
21
16.7175
0
LINE
8
0
10
86
20
35.7675
11
104
21
35.7675
0
LINE
8
0
10
104
20
35.7675
11
104
21
53.7675
0
LINE
8
0
10
104
20
53.7675
11
86
21
53.7675
0
LINE
8
0
10
86
20
53.7675
11
86
21
35.7675
0
LINE
8
0
10
86
20
54.8175
11
104
21
54.8175
0
LINE
8
0
10
104
20
54.8175
11
104
21
72.8175
0
LINE
8
0
10
104
20
72.8175
11
86
21
72.8175
0
LINE
8
0
10
86
20
72.8175
11
86
21
54.8175
0
LINE
8
0
10
105
20
7.2175
11
123
21
7.2175
0
LINE
8
0
10
123
20
7.2175
11
123
21
25.2175
0
LINE
8
0
10
123
20
25.2175
11
105
21
25.2175
0
LINE
8
0
10
105
20
25.2175
11
105
21
7.2175
0
LINE
8
0
10
105
20
26.2675
11
123
21
26.2675
0
LINE
8
0
10
123
20
26.2675
11
123
21
44.2675
0
LINE
8
0
10
123
20
44.2675
11
105
21
44.2675
0
LINE
8
0
10
105
20
44.2675
11
105
21
26.2675
0
LINE
8
0
10
105
20
45.3175
11
123
21
45.3175
0
LINE
8
0
10
123
20
45.3175
11
123
21
63.3175
0
LINE
8
0
10
123
20
63.3175
11
105
21
63.3175
0
LINE
8
0
10
105
20
63.3175
11
105
21
45.3175
0
LINE
8
0
10
47.9
20
-21.3825
11
65.9
21
-21.3825
0
LINE
8
0
10
65.9
20
-21.3825
11
65.9
21
-3.3825
0
LINE
8
0
10
65.9
20
-3.3825
11
47.9
21
-3.3825
0
LINE
8
0
10
47.9
20
-3.3825
11
47.9
21
-21.3825
0
LINE
8
0
10
66.9
20
-21.3825
11
84.9
21
-21.3825
0
LINE
8
0
10
84.9
20
-21.3825
11
84.9
21
-3.3825
0
LINE
8
0
10
84.9
20
-3.3825
11
66.9
21
-3.3825
0
LINE
8
0
10
66.9
20
-3.3825
11
66.9
21
-21.3825
0
LINE
8
0
10
86.5238966
20
-21.6829362
11
104.2504362
21
-24.8086034
0
LINE
8
0
10
104.2504362
20
-24.8086034
11
107.3761034
21
-7.0820638
0
LINE
8
0
10
107.3761034
20
-7.0820638
11
89.6495638
21
-3.9563966
0
LINE
8
0
10
89.6495638
20
-3.9563966
11
86.5238966
21
-21.6829362
0
LINE
8
0
10
123.4579832
20
-25.2938306
11
126.5836504
21
-7.567291
0
LINE
8
0
10
126.5836504
20
-7.567291
11
108.8571108
21
-4.4416238
0
LINE
8
0
10
108.8571108
20
-4.4416238
11
105.7314436
21
-22.1681634
0
LINE
8
0
10
105.7314436
20
-22.1681634
11
123.4579832
21
-25.2938306
0
LINE
8
0
10
127.5684581
20
-7.7409392
11
124.4427909
21
-25.4674788
0
LINE
8
0
10
124.4427909
20
-25.4674788
11
142.1693305
21
-28.593146
0
LINE
8
0
10
142.1693305
20
-28.593146
11
145.2949977
21
-10.8666064
0
LINE
8
0
10
145.2949977
20
-10.8666064
11
127.5684581
21
-7.7409392
0
LINE
8
0
10
127.05
20
29.0175
11
139.05
21
29.0175
0
LINE
8
0
10
139.05
20
29.0175
11
139.05
21
55.6175
0
LINE
8
0
10
139.05
20
55.6175
11
127.05
21
55.6175
0
LINE
8
0
10
127.05
20
55.6175
11
127.05
21
29.0175
0
ENDSEC
0
EOF