0
SECTION
2
HEADER
9
$INSUNITS
70
4
0
ENDSEC
0
SECTION
2
TABLES
0
TABLE
2
LTYPE
0
LTYPE
72
65
70
64
2
CONTINUOUS
3
______
73
0
40
0
0
ENDTAB
0
TABLE
2
LAYER
0
ENDTAB
0
ENDSEC
0
SECTION
2
ENTITIES
0
LINE
8
0
10
25.5159091
20
-19.5
11
-7.5
21
-19.5
0
ARC
8
0
10
-7.5
20
-7.5
40
12
50
180
51
270
0
LINE
8
0
10
-19.5
20
-7.5
11
-19.5
21
65.2649549
0
ARC
8
0
10
-7.5
20
65.2649549
40
12
50
110.6317864
51
180
0
LINE
8
0
10
-11.7283307
20
76.4953253
11
24.5857041
21
90.1678704
0
ARC
8
0
10
28.8140347
20
78.9375
40
12
50
90
51
110.6317864
0
LINE
8
0
10
28.8140347
20
90.9375
11
94.3046027
21
90.9375
0
ARC
8
0
10
94.3046027
20
78.9375
40
12
50
47.8667638
51
90
0
LINE
8
0
10
102.3548854
20
87.8365421
11
117.8519864
21
73.8175
0
LINE
8
0
10
117.8519864
20
73.8175
11
140.55
21
73.8175
0
ARC
8
0
10
140.55
20
61.8175
40
12
50
0
51
90
0
LINE
8
0
10
152.55
20
61.8175
11
152.55
21
16.8329176
0
LINE
8
0
10
152.55
20
16.8329176
11
155.7455213
21
-9.0309796
0
ARC
8
0
10
143.8360756
20
-10.5024086
40
12
50
349.9999992
51
367.0432825
0
LINE
8
0
10
155.6537686
20
-12.5861868
11
152.2576564
21
-31.8464964
0
ARC
8
0
10
140.4399634
20
-29.7627183
40
12
50
259.9886945
51
349.9999992
0
LINE
8
0
10
138.353853
20
-41.5799998
11
102.912059
21
-35.3234425
0
ARC
8
0
10
104.9981694
20
-23.5061609
40
12
50
259.426815
51
259.9886945
0
LINE
8
0
10
102.7962739
20
-35.302417
11
84.4746884
21
-31.8825
0
LINE
8
0
10
84.4746884
20
-31.8825
11
47.9968183
21
-31.8825
0
ARC
8
0
10
47.9968182
20
-19.8825
40
12
50
236.7688406
51
270
0
LINE
8
0
10
41.4205993
20
-29.9200966
11
25.5159091
21
-19.5
0
LINE
8
0
10
-7
20
-7
11
7
21
-7
0
LINE
8
0
10
7
20
-7
11
7
21
7
0
LINE
8
0
10
7
20
7
11
-7
21
7
0
LINE
8
0
10
-7
20
7
11
-7
21
-7
0
LINE
8
0
10
-7
20
12.05
11
7
21
12.05
0
LINE
8
0
10
7
20
12.05
11
7
21
26.05
0
LINE
8
0
10
7
20
26.05
11
-7
21
26.05
0
LINE
8
0
10
-7
20
26.05
11
-7
21
12.05
0
LINE
8
0
10
-7
20
31.1
11
7
21
31.1
0
LINE
8
0
10
7
20
31.1
11
7
21
45.1
0
LINE
8
0
10
7
20
45.1
11
-7
21
45.1
0
LINE
8
0
10
-7
20
45.1
11
-7
21
31.1
0
LINE
8
0
10
-7
20
50.15
11
7
21
50.15
0
LINE
8
0
10
7
20
50.15
11
7
21
64.15
0
LINE
8
0
10
7
20
64.15
11
-7
21
64.15
0
LINE
8
0
10
-7
20
64.15
11
-7
21
50.15
0
LINE
8
0
10
12
20
-7
11
26
21
-7
0
LINE
8
0
10
26
20
-7
11
26
21
7
0
LINE
8
0
10
26
20
7
11
12
21
7
0
LINE
8
0
10
12
20
7
11
12
21
-7
0
LINE
8
0
10
12
20
12.05
11
26
21
12.05
0
LINE
8
0
10
26
20
12.05
11
26
21
26.05
0
LINE
8
0
10
26
20
26.05
11
12
21
26.05
0
LINE
8
0
10
12
20
26.05
11
12
21
12.05
0
LINE
8
0
10
12
20
31.1
11
26
21
31.1
0
LINE
8
0
10
26
20
31.1
11
26
21
45.1
0
LINE
8
0
10
26
20
45.1
11
12
21
45.1
0
LINE
8
0
10
12
20
45.1
11
12
21
31.1
0
LINE
8
0
10
12
20
50.15
11
26
21
50.15
0
LINE
8
0
10
26
20
50.15
11
26
21
64.15
0
LINE
8
0
10
26
20
64.15
11
12
21
64.15
0
LINE
8
0
10
12
20
64.15
11
12
21
50.15
0
LINE
8
0
10
31
20
4.43
11
45
21
4.43
0
LINE
8
0
10
45
20
4.43
11
45
21
18.43
0
LINE
8
0
10
45
20
18.43
11
31
21
18.43
0
LINE
8
0
10
31
20
18.43
11
31
21
4.43
0
LINE
8
0
10
31
20
23.48
11
45
21
23.48
0
LINE
8
0
10
45
20
23.48
11
45
21
37.48
0
LINE
8
0
10
45
20
37.48
11
31
21
37.48
0
LINE
8
0
10
31
20
37.48
11
31
21
23.48
0
LINE
8
0
10
31
20
42.53
11
45
21
42.53
0
LINE
8
0
10
45
20
42.53
11
45
21
56.53
0
LINE
8
0
10
45
20
56.53
11
31
21
56.53
0
LINE
8
0
10
31
20
56.53
11
31
21
42.53
0
LINE
8
0
10
31
20
61.58
11
45
21
61.58
0
LINE
8
0
10
45
20
61.58
11
45
21
75.58
0
LINE
8
0
10
45
20
75.58
11
31
21
75.58
0
LINE
8
0
10
31
20
75.58
11
31
21
61.58
0
LINE
8
0
10
50
20
7.2875
11
64
21
7.2875
0
LINE
8
0
10
64
20
7.2875
11
64
21
21.2875
0
LINE
8
0
10
64
20
21.2875
11
50
21
21.2875
0
LINE
8
0
10
50
20
21.2875
11
50
21
7.2875
0
LINE
8
0
10
50
20
26.3375
11
64
21
26.3375
0
LINE
8
0
10
64
20
26.3375
11
64
21
40.3375
0
LINE
8
0
10
64
20
40.3375
11
50
21
40.3375
0
LINE
8
0
10
50
20
40.3375
11
50
21
26.3375
0
LINE
8
0
10
50
20
45.3875
11
64
21
45.3875
0
LINE
8
0
10
64
20
45.3875
11
64
21
59.3875
0
LINE
8
0
10
64
20
59.3875
11
50
21
59.3875
0
LINE
8
0
10
50
20
59.3875
11
50
21
45.3875
0
LINE
8
0
10
50
20
64.4375
11
64
21
64.4375
0
LINE
8
0
10
64
20
64.4375
11
64
21
78.4375
0
LINE
8
0
10
64
20
78.4375
11
50
21
78.4375
0
LINE
8
0
10
50
20
78.4375
11
50
21
64.4375
0
LINE
8
0
10
69
20
2.525
11
83
21
2.525
0
LINE
8
0
10
83
20
2.525
11
83
21
16.525
0
LINE
8
0
10
83
20
16.525
11
69
21
16.525
0
LINE
8
0
10
69
20
16.525
11
69
21
2.525
0
LINE
8
0
10
69
20
21.575
11
83
21
21.575
0
LINE
8
0
10
83
20
21.575
11
83
21
35.575
0
LINE
8
0
10
83
20
35.575
11
69
21
35.575
0
LINE
8
0
10
69
20
35.575
11
69
21
21.575
0
LINE
8
0
10
69
20
40.625
11
83
21
40.625
0
LINE
8
0
10
83
20
40.625
11
83
21
54.625
0
LINE
8
0
10
83
20
54.625
11
69
21
54.625
0
LINE
8
0
10
69
20
54.625
11
69
21
40.625
0
LINE
8
0
10
69
20
59.675
11
83
21
59.675
0
LINE
8
0
10
83
20
59.675
11
83
21
73.675
0
LINE
8
0
10
83
20
73.675
11
69
21
73.675
0
LINE
8
0
10
69
20
73.675
11
69
21
59.675
0
LINE
8
0
10
88
20
-0.3325
11
102
21
-0.3325
0
LINE
8
0
10
102
20
-0.3325
11
102
21
13.6675
0
LINE
8
0
10
102
20
13.6675
11
88
21
13.6675
0
LINE
8
0
10
88
20
13.6675
11
88
21
-0.3325
0
LINE
8
0
10
88
20
18.7175
11
102
21
18.7175
0
LINE
8
0
10
102
20
18.7175
11
102
21
32.7175
0
LINE
8
0
10
102
20
32.7175
11
88
21
32.7175
0
LINE
8
0
10
88
20
32.7175
11
88
21
18.7175
0
LINE
8
0
10
88
20
37.7675
11
102
21
37.7675
0
LINE
8
0
10
102
20
37.7675
11
102
21
51.7675
0
LINE
8
0
10
102
20
51.7675
11
88
21
51.7675
0
LINE
8
0
10
88
20
51.7675
11
88
21
37.7675
0
LINE
8
0
10
88
20
56.8175
11
102
21
56.8175
0
LINE
8
0
10
102
20
56.8175
11
102
21
70.8175
0
LINE
8
0
10
102
20
70.8175
11
88
21
70.8175
0
LINE
8
0
10
88
20
70.8175
11
88
21
56.8175
0
LINE
8
0
10
107
20
9.2175
11
121
21
9.2175
0
LINE
8
0
10
121
20
9.2175
11
121
21
23.2175
0
LINE
8
0
10
121
20
23.2175
11
107
21
23.2175
0
LINE
8
0
10
107
20
23.2175
11
107
21
9.2175
0
LINE
8
0
10
107
20
28.2675
11
121
21
28.2675
0
LINE
8
0
10
121
20
28.2675
11
121
21
42.2675
0
LINE
8
0
10
121
20
42.2675
11
107
21
42.2675
0
LINE
8
0
10
107
20
42.2675
11
107
21
28.2675
0
LINE
8
0
10
107
20
47.3175
11
121
21
47.3175
0
LINE
8
0
10
121
20
47.3175
11
121
21
61.3175
0
LINE
8
0
10
121
20
61.3175
11
107
21
61.3175
0
LINE
8
0
10
107
20
61.3175
11
107
21
47.3175
0
LINE
8
0
10
49.9
20
-19.3825
11
63.9
21
-19.3825
0
LINE
8
0
10
63.9
20
-19.3825
11
63.9
21
-5.3825
0
LINE
8
0
10
63.9
20
-5.3825
11
49.9
21
-5.3825
0
LINE
8
0
10
49.9
20
-5.3825
11
49.9
21
-19.3825
0
LINE
8
0
10
68.9
20
-19.3825
11
82.9
21
-19.3825
0
LINE
8
0
10
82.9
20
-19.3825
11
82.9
21
-5.3825
0
LINE
8
0
10
82.9
20
-5.3825
11
68.9
21
-5.3825
0
LINE
8
0
10
68.9
20
-5.3825
11
68.9
21
-19.3825
0
LINE
8
0
10
88.8408085
20
-20.060617
11
102.628117
21
-22.4916915
0
LINE
8
0
10
102.628117
20
-22.4916915
11
105.0591915
21
-8.704383
0
LINE
8
0
10
105.0591915
20
-8.704383
11
91.271883
21
-6.2733085
0
LINE
8
0
10
91.271883
20
-6.2733085
11
88.8408085
21
-20.060617
0
LINE
8
0
10
121.8191674
20
-23.0704755
11
124.2502419
21
-9.283167
0
LINE
8
0
10
124.2502419
20
-9.283167
11
110.4629334
21
-6.8520925
0
LINE
8
0
10
110.4629334
20
-6.8520925
11
108.0318589
21
-20.639401
0
LINE
8
0
10
108.0318589
20
-20.639401
11
121.8191674
21
-23.0704755
0
LINE
8
0
10
129.1742807
20
-10.1514079
11
126.7432062
21
-23.9387164
0
LINE
8
0
10
126.7432062
20
-23.9387164
11
140.5305147
21
-26.3697909
0
LINE
8
0
10
140.5305147
20
-26.3697909
11
142.9615892
21
-12.5824824
0
LINE
8
0
10
142.9615892
20
-12.5824824
11
129.1742807
21
-10.1514079
0
ENDSEC
0
EOF