<?xml version="1.0" encoding="UTF-8" standalone="no"?>
<!-- Created with Inkscape (http://www.inkscape.org/) -->

<svg
   version="1.1"
   id="svg781"
   width="1024"
   height="1024"
   viewBox="0 0 1024 1024"
   sodipodi:docname="spleeb.svg"
   inkscape:version="1.2.1 (9c6d41e410, 2022-07-14)"
   xmlns:inkscape="http://www.inkscape.org/namespaces/inkscape"
   xmlns:sodipodi="http://sodipodi.sourceforge.net/DTD/sodipodi-0.dtd"
   xmlns="http://www.w3.org/2000/svg"
   xmlns:svg="http://www.w3.org/2000/svg">
  <defs
     id="defs785" />
  <sodipodi:namedview
     id="namedview783"
     pagecolor="#ffffff"
     bordercolor="#000000"
     borderopacity="0.25"
     inkscape:showpageshadow="2"
     inkscape:pageopacity="0.0"
     inkscape:pagecheckerboard="0"
     inkscape:deskcolor="#d1d1d1"
     showgrid="false"
     inkscape:zoom="0.37712537"
     inkscape:cx="425.58791"
     inkscape:cy="517.06943"
     inkscape:window-width="1264"
     inkscape:window-height="687"
     inkscape:window-x="1055"
     inkscape:window-y="860"
     inkscape:window-maximized="1"
     inkscape:current-layer="g787" />
  <g
     inkscape:groupmode="layer"
     inkscape:label="Image"
     id="g787">
    <path
       style="fill:#211e1e;stroke:none"
       d="m 326.31461,1.5613783 v 1 c 13.046,5.6218297 24.57,14.8480007 37.00002,21.6945007 5.303,2.921 14.177,6.598 16.933,12.345599 4.33,9.029301 -2.967,30.0444 -5.933,38.9599 -16.181,-3.004 -29.20302,-10.5301 -44.00002,-17.742299 -20.635,-10.0576 -41.721,-20.184801 -63,-28.8048 -8.56,-3.4674 -17.707,-1.4785 -25.536,-4.0748 -3.969,-1.316 -7.445,-7.4772 -10.465,-10.2878 -6.234,-5.803071 -13.548,-10.104771 -21.999,-11.6257607 -32.692,-5.88397 -61.632,26.6174607 -49.907,58.5354607 12.636,34.3966 66.426,37.5573 79.907,2 34.62,11.360399 67.397,34.9454 100,51.247001 7.669,3.835 31.28702,11.135 26.46202,22.753 -4.774,11.497 -21.68702,15.131 -32.46202,18.435 -29.546,9.06 -59.304,16.799 -89,25.275 -16.1,4.595 -29.27,21.763 -15.786,37.275 12.044,13.856 32.166,6.237 46.786,1.674 23.282,-7.266 46.857,-13.611 70,-21.326 10.95702,-3.652 25.55202,-11.32 37.00002,-11.872 10.132,-0.488 25.599,12.362 34,17.477 25.133,15.303 50.921,30.531 77,44.172 14.212,7.435 36.26198,5.129 40.47098,-13.11 4.024,-17.437 -9.16,-24.595 -22.47098,-31.247 -25.116,-12.55 -51.435,-24.791 -75,-40.098 -8.282,-5.379 -28.357,-15.962 -26.691,-27.655 1.775,-12.448 20.016,-15.741 29.691,-19.85 20.1,-8.537 40.824,-15.7474 61,-24.138402 10.015,-4.1652 22.37098,-7.6953 29.78598,-16.0517 10.063,-11.3398 6.44,-32.1846 -8.78598,-36.9051 -8.255,-2.5593 -17.418,1.4625 -25,4.5486 -10.318,4.199501 -20.608,8.439101 -31,12.457501 -15.337,5.9309 -30.714,11.888699 -46,17.939099 -2.132,-8.9544 -3.175,-29.9857 1.858,-37.9568 3.54,-5.607099 12.44,-8.804399 18.142,-11.787799 14.532,-7.6035 29.468,-16.966461 45,-22.2554007 -12.169,-5.10657 -33.747,-1 -47,-1 H 326.31461 m 275,0 c -8.029,43.2195997 -8.091,89.2125997 -11.089,133.0000017 -1.057,15.422 -7.413,37.494 -0.227,51.999 8.712,17.589 33.842,16.137 41.988,-0.999 4.038,-8.494 3.387,-18.841 4.483,-28 2.538,-21.21 4.164,-42.701 5.845,-64.000002 22.984,1.814101 46.618,8.701002 69,14.130002 17.299,4.195 34.626,8.457 52,12.294 9.24,2.041 19.49,5.241 29,3.047 20.296,-4.684 25.193,-30.820902 8.999,-43.052102 -8.183,-6.1804 -22.225,-6.393 -31.999,-8.7931 -27.456,-6.742099 -55.385,-12.102199 -83,-18.201399 -9.912,-2.1893 -31.949,-2.979 -38.411,-11.557901 -6.17,-8.1897 -3.359,-30.3347 -1.589,-39.8664997 h -45 m 353,0 c -0.188,9.1002797 0.236,23.4821007 -8.043,29.2971007 -8.144,5.719899 -21.829,1.755899 -30.957,0.872599 -26.308,-2.545899 -52.682,-4.485099 -79,-6.999999 -16.136,-1.5418 -48.328,-6.4752 -45.823,19.830299 2.04,21.4115 24.077,22.2792 40.823,23.0394 28.569,1.2968 57.601,4.1881 86,7.6759 10.79,1.3251 24.713,0.4413 30.911,11.2855 7.249,12.685701 2.513,33.943202 3.128,47.999202 1.572,35.89 3.095,71.588 7.501,107.286 1.751,14.181 -1.503,34.541 9.565,45.609 11.358,11.359 33.83509,7.815 40.54509,-6.895 5.94,-13.017 2.35,-32.937 2.35,-47 0,-23.645 -3.1,-51.931 2.19,-74.996 1.44,-6.305 8.37,-7.386 10.87,-13.019 3.96,-8.898 1.12,-25.298 0.94,-34.985 -0.2,-10.4445 -12.6,-10.3715 -13.87,-20.000802 -3.76,-28.598599 -0.13,-60.128699 -0.13,-88.9991997 H 954.31461 M 1.3146192,131.56138 v 42 c 11.7234998,0 23.3367998,0.7 34.9999998,0.985 3.9284,0.097 11.3401,-1.438 14.3966,1.618 3.5088,3.509 1.6034,13.807 1.6034,18.397 0,14.432 5.8338,45.331 -7.1049,55.351 -10.0965,7.819 -31.7741,3.649 -43.8950998,3.649 v 41 c 11.5637998,0 33.3100998,-4.058 42.9559998,3.434 8.1555,6.334 5.0446,17.716 5.044,26.566 -10e-4,18.39 -1.0879,36.62 -0.9992,55 0.0508,10.533 2.8248,21.068 13.0031,26.015 2.772,1.348 5.9308,2.305 8.9961,2.67 26.4513,3.156 24.9935,-29.737 25,-46.685 v -186 c 25.713991,0 51.274991,1 76.999991,1 12.437,0 25.787,1.387 38,-1.289 15.981,-3.502 26.695,-25.272 11.956,-37.178 -7.673,-6.198 -20.587,-5.533 -29.956,-5.533 h -65 c -7.718,0 -15.323,-0.959 -23,-0.999 -3.15539,-0.017 -7.927691,0.745 -9.972191,-2.319 -2.2546,-3.379 -0.9856,-9.811 -1.0317,-13.682 -0.1227,-10.318 -0.9961,-20.621601 -0.9961,-31.000002 20.139991,-4.6216 26.763991,-30.451699 22.240991,-48 -6.105,-23.682099 -33.403191,-37.8566897 -56.240991,-28.52472 -22.2409,9.088121 -33.4099,36.78872 -23.2184,58.52472 4.6666,9.9526 15.1271,14.9816 16.5031,26 1.157,9.264002 0.7195,18.670002 0.7153,28.000002 -10e-4,3.15 0.737,7.934 -2.3179,9.972 -3.3501,2.236 -9.8392,1.028 -13.6821,1.028 H 1.3146192 M 197.35861,38.090678 c 9.527,-2.7325 13.676,11.871601 3.941,13.993101 -8.611,1.8763 -12.539,-11.527301 -3.941,-13.993101 m -125.999991,0.9198 c 9.807,-2.5302 13.7141,12.773501 3.9406,15.098001 -9.1961,2.1871 -13.1167,-12.730601 -3.9406,-15.098001 M 870.31461,397.56138 c 3.778,8.981 11.037,17.01 16.586,25 9.094,13.092 17.744,29.974 31.414,38.891 16.486,10.755 35.391,-3.719 33.907,-21.891 -0.912,-11.158 -10.8,-21.194 -16.881,-30 -14.853,-21.509 -35.61,-43.763 -45.663,-68 -3.835,-9.245 -1.363,-23.105 -1.363,-33 0,-25.059 1,-49.959 1,-75 13.586,0 33.548,3.503 45.961,-3 12.139,-6.36 12.495,-24.353 1.996,-32.431 -9.106,-7.007 -27.095,-3.569 -37.957,-3.569 -3.672,0 -9.369,1.039 -12.61,-1.028 -7.217,-4.604 -11.209,-21.323 -14.39,-28.972 20.583,-0.438 31.739,-22.658 28.42,-41.286 -4.925,-27.636401 -37.336,-44.930502 -62.42,-29.154601 -16.464,10.354601 -23.983,30.029601 -16.547,48.440601 2.891,7.159 10.796,13.327 11.489,21 4,44.311 5.061,88.605 5.058,133 -10e-4,17.812 2.427,37.405 0.552,55 -0.829,7.787 -9.195,15.855 -13.516,22 -9.223,13.118 -18.675,26.081 -28.19,39 -5.297,7.191 -12.043,14.209 -14.545,23 -5.137,18.045 10.992,36.367 29.699,29.441 11.403,-4.222 19.238,-18.212 26.349,-27.441 9.705,-12.596 18.823,-30.552 31.651,-40 m -10.982,-276.512 c 8.023,-1.672 10.722,10.464 2.963,12.661 -7.732,2.189 -11.088,-10.967 -2.963,-12.661 m -161.018,31.03 c -32.246,6.84 -45.049,47.938 -25.791,73.393 10.205,13.488 29.633,18.735 45.791,15.423 55.942,-11.467 35.844,-100.662 -20,-88.816 m 7.055,37.086 c 10.089,-3.964 15.545,11.113 5.926,14.638 -8.928,3.273 -15.069,-11.045 -5.926,-14.638 m -158.055,282.396 c 19.765,0 40.808,-2.58 52.441,-21 22.006,-34.846 -0.658,-91.991 -45.441,-88.911 -5.828,0.401 -11.561,1.893 -17,3.976 -37.06298,14.189 -34.67098,57.24 -36.90998,89.935 -0.669,9.769 2.258,32.896 -7.198,38.911 -5.538,3.523 -12.978,1.065 -18.892,-0.111 -16.469,-3.273 -30.751,-8.801 -46,-15.8 -14.816,-6.8 -29.564,-14.123 -44,-21.703 -6.122,-3.214 -14.316,-6.137 -18.092,-12.312 -3.985,-6.518 0.961,-19.792 1.962,-26.985 2.414,-17.356 5.865,-34.605 7.975,-52 1.171,-9.653 0.767,-23.151 4.808,-31.996 5.523,-12.09 27.045,-5.624 37.347,-4.286 31.733,4.122 64.983,11.127 97,11.281 14.24098,0.069 29.62698,-4.487 28.95598,-21.999 -0.747,-19.482 -23.25098,-18.554 -36.95598,-20.425 -26.586,-3.63 -53.36,-6.008 -80,-9.29 -11.293,-1.392 -26.607,-0.58 -36.956,-5.719 -7.247,-3.598 -4.359,-13.933 -3.584,-20.396 1.775,-14.798 9.842,-47.432 -9.46,-52.999 -29.07002,-8.385 -28.89302,28.988 -31.15502,47.829 -0.776,6.459 -0.704,16.426 -7.86,19.258 -10.304,4.076 -26.339,-1.124 -36.895,-2.587 -27.967,-3.879 -56.03,-7.831 -84.09,-10.837 -11.976,-1.283 -30.274,-8.277 -40.907,-0.185 -14.006,10.66 -7.188,32.873 8.907,36.671 33.604,7.93 69.822,8.71 104,14.09 11.681,1.838 30.937,1.244 39.945,9.723 8.088,7.614 2.804,21.104 1.48,30.868 -2.842,20.957 -5.409,42.01 -8.143,62.999 -1.025,7.867 -0.62,18.015 -3.434,25.431 -1.714,4.518 -15.5,6.825 -19.848,8.225 -15.537,5.002 -48.899,8.891 -54.892,26.344 -4.829,14.062 7.607,27.799 21.892,26.674 17.774,-1.399 36.186,-11.403 53,-17.007 6.14,-2.047 13.411,-5.708 20,-5.392 10.424,0.5 21.87902,8.918 31.00002,13.478 22.74,11.37 44.793,24.554 68,34.935 8.15,3.645 17.119,5.614 26,6.223 9.264,0.634 20.937,-0.821 24.968,10.089 3.864,10.46 0.226,25.233 -0.798,36 -0.83,8.715 0.551,18.705 -2.783,27 -6.023,14.988 -20.969,29.433 -30.987,42 -22.144,27.778 -46.831,55.958 -65.79,86 -11.091,17.574 2.307,44.447 24.39,40.38 12.181,-2.243 19.432,-13.124 26.373,-22.38 13.818,-18.425 27.691,-36.75 41.746,-55 6.119,-7.946 17.485,-27.946 29.881,-22.99 9.133,3.651 13.57198,15.198 18.42498,22.99 11.895,19.099 23.756,38.281 36.242,57 8.397,12.59 17.036,26.29 34.333,22.319 25.571,-5.87 19.676,-31.713 10.15,-48.319 -14.025,-24.447 -29.6,-48.291 -44.842,-72 -8.172,-12.712 -19.625,-27.303 -23.674,-42 -3.803,-13.807 -0.291,-31.887 0.327,-46 1.454,-33.211 4.597,-66.811 5.039,-100 m 161,9 h 3 c 5.786,15.899 13.901,31.409 20.573,47 9.932,23.211 18.458,51.262 41.427,64.907 19.333,11.485 50.089,11.033 72,11.093 0,15.698 -2.275,31.338 -2.961,47 -0.308,7.047 0.764,16.703 -3.267,22.892 -4.811,7.385 -14.611,4.241 -21.772,3.394 -12.597,-1.492 -26.257,1.22 -30.892,14.714 -1.182,3.441 -1.416,7.403 -0.898,11 0.609,4.236 2.656,8.633 5.322,11.96 10.707,13.359 33.065,12.069 48.468,13.129 43.469,2.994 87.403,8.858 131,8.911 17.534,0.021 45.64009,6.412 48.81009,-19 2.22,-17.742 -11.2,-25.971 -26.81009,-28.41 -20.209,-3.156 -41.587,-2.005 -62,-3.501 -6.249,-0.458 -17.358,0.815 -22.772,-2.407 -5.246,-3.122 -3.228,-13.536 -3.228,-18.682 0,-17.997 -1,-35.954 -1,-54 19.452,0.15 46.51,9.909 65,2.387 14.994,-6.101 17.729,-30.002 3.96,-38.919 -6.949,-4.5 -14.139,-3.893 -21.96,-4.638 -15.53,-1.478 -33.098,-1.106 -48,-5.83 2.059,-18.438 0,-38.391 0,-57 0,-11.222 1.772,-24.162 -1.573,-35 -5.13,-16.616 -25.233,-24.067 -37.959,-10.699 -8.041,8.446 -6.631,18.118 -7.638,28.699 -2.246,23.598 -1.856,47.467 -4.83,71 -12.076,-0.008 -23.971,-2.415 -36,-2.961 -5.49,-0.249 -14.252,0.524 -18.956,-2.642 -7.927,-5.337 -9.562,-22.846 -13.194,-31.397 -9.976,-23.49 -18.965,-47.418 -28.711,-71 -4.037,-9.768 -11.916,-22.164 -10.965,-33 1.261,-14.362 9.723,-28.621 16.52,-41 8.007,-14.58 15.591,-29.388 23.537,-44 11.493,-21.135 25.555,-41.913 35.092,-64 3.828,-8.865 5.808,-21.188 -1.537,-28.815 -9.729,-10.103 -25.673,-7.888 -34.612,1.83 -18.608,20.228 -31.876,48.491 -45.974,71.985 -3.477,5.794 -9.99,21.724 -17.2,23.118 -7.709,1.49 -19.536,-19.733 -23.424,-25.118 -16.325,-22.608 -32.289,-47.191 -50.865,-67.985 -7.456,-8.346 -19.981,-14.04 -30.711,-7.926 -20.472,11.666 -5.051,33.742 4.026,46.911 17.646,25.603 35.131,51.297 52.63,77 7.113,10.449 19.78,23.274 22.015,36 2.757,15.693 -10.159,31.103 -17.521,44 -12.316,21.578 -24.693,43.153 -36.524,65 -6.146,11.349 -14.501,22.901 -16.325,36 -2.738,19.659 20.416,36.386 36.684,22.671 7.856,-6.623 11.842,-17.074 17.077,-25.671 11.398,-18.72 24.551,-38.765 32.938,-59 m -706.9999908,-158 v 85 c 10.0688008,-3.276 19.7462998,-6.762 25.8950998,-16 15.4872,-23.268 -0.1434,-60.461 -25.8950998,-69 m 1023.0000808,20 c -9.68,16.648 -7.99,33.199 0,50 h 1 c 0,-14.049 4.41,-37.111 -1,-50 m -785.00009,4.555 c -36.723,2.935 -74.434,-1.762 -111,2.731 -14.984,1.842 -24.218,16.327 -17.647,30.714 10.893,23.85 38.794,3.602 55.607,12.457 7.667,4.038 6.04,13.285 6.04,20.543 0,15.56 -0.973,31.477 0.09,47 0.501,7.329 3.327,18.302 -0.948,24.945 -4.679,7.271 -20.406,5.959 -28.142,6.051 -23.545,0.28 -50.960791,-4.076 -73.999991,0.823 -11.7324,2.494 -21.6078,11.37 -20.892,24.181 1.0009,17.912 18.1652,22 32.892,22 21.665991,0 43.373991,-0.404 64.999991,-0.441 7.769,-0.013 18.164,-2.32 24.892,2.955 7.234,5.671 5.108,17.432 5.108,25.486 0,18.556 -6.379,52.197 7.188,66.957 13.583,14.777 40.286,7.85 57.812,7.082 41.665,-1.824 83.4,-1.101 125.00002,-3.95 15.937,-1.091 35.874,2.799 51,-2.8 19.743,-7.307 21.522,-38.95 1,-46.727 -14.737,-5.584 -35.536,-1.71 -51,-0.651 -25.14002,1.721 -50.98602,-0.577 -76.00002,2.375 -14.349,1.692 -46.501,7.019 -57.775,-3.765 -9.418,-9.008 -4.277,-30.773 -5.395,-42.521 -3.238,-34.023 -2.83,-69.815 -2.83,-104 0,-11.757 -4.437,-28.108 1.303,-38.985 4.137,-7.838 12.397,-6.068 19.697,-6.02 9.538,0.064 19.061,-2.735 23.352,-11.996 10.561,-22.795 -10.208,-36.054 -30.352,-34.444 m -237.9999908,62.445 v 126 c 53.7655998,-15.519 62.2615998,-117.96 0,-126 m 551.0149908,1.604 c 9.55,-3.583 18.363,9.861 6.98,14.008 -2.98,1.086 -8.578,2.587 -11.392,0.36 -4.71,-3.728 0.056,-12.733 4.412,-14.368 m 472.98509,121.396 v -50 c -9.31,0.001 -19.18,0.163 -26.99909,5.789 -13.051,9.387 -15.2,29.595 -0.986,39.358 7.63509,5.246 19.08509,4.853 27.98509,4.853 m -959.000081,112 c 0.3989,15.591 9.6794,48.315 -9.0008,56.722 -5.1361,2.312 -11.4812,2.285 -16.9992,2.278 -5.055,-0.006 -10.2504,-0.285 -15,-2.21 -9.6182,-3.897 -15.004719,-13.566 -23.9999998,-17.79 v 63 c 10.4850008,2.192 20.1156998,5.719 30.9999998,5.985 9.1679,0.225 23.2732,-2.754 30.9414,3.445 7.9694,6.443 5.0592,22.5 5.0586,31.57 -0.002,37.288 -32.7037,69.728 -52.9753,99 -4.321359,6.24 -10.6196598,12.804 -13.2060198,20 -4.26374,11.862 -0.81868,30.417 -0.81868,43 0,5.349 -2.67548,20.475 3.14815,23.107 11.8554498,5.357 23.2286498,-10.041 28.8271498,-18.107 12.9578,-18.668 26.0683,-37.234 40.2176,-55 4.0941,-5.141 9.6788,-16.382 15.9738,-18.824 6.7837,-2.631 14.980291,17.289 17.552291,21.824 9.96,17.556 17.293,42.503 31.374,56.957 9.14,9.381 24.584,9.383 33.799,-0.051 14.796,-15.149 -1.073,-39.502 -8.673,-53.906 -18.171,-34.438 -39.574,-70.579 -43.389,-110 -1.074,-11.105 -4.479,-30.615 3.589,-39.79 8.606,-9.787 24.664,-9.248 36.581,-10.121 15.991,-1.172 31.949,-3.089 48,-3.089 0.564,68.151 9.253,136.993 13.91,205 1.311,19.139 1.321,38.496 3.411,57.58002 0.525,4.79 -1.154,15.01 1.858,18.82 2.334,2.94 9.515,1.6 12.821,1.6 h 38 c 0,-35.71602 -6.771,-71.29602 -7.001,-107.00002 -0.069,-10.794 -5.16,-27.906 3.344,-36.671 7.398,-7.625 18.598,-6.595 28.233,-7.65 23.757,-2.603 47.762,-4.028 71.42402,-7.408 15.302,-2.186 32.776,-11.221 31.895,-29.271 -1.004,-20.568 -21.218,-21.721 -36.895,-19.845 -25.07802,3.001 -50.74102,4.371 -75.98502,4.87 -9.892,0.195 -23.037,0.37 -29.273,-9.068 -3.879,-5.871 -4.076,-16.117 -4.897,-22.957 -1.558,-12.975 -4.397,-25.973 -5.376,-39 -0.352,-4.688 2.325,-9.74 6.571,-11.972 4.541,-2.388 11.969,-1.02 16.96,-1.028 12.407,-0.02 30.657,1.066 42,-4.328 10.744,-5.109 15.697,-19.056 9.633,-29.671 -9.826,-17.199 -36.41,-10.598 -52.633,-9.672 -37.517,2.143 -75.456,4.671 -113,4.671 -11.201,0 -30.54,5.079 -39.945,-2.43 -8.434,-6.733 -7.284,-22.845 -8.225,-32.57 -1.115,-11.527 -2.822,-23.418 -2.822,-35 0,-26.744 4.77,-60.652 -30.007991,-69.1 -10.3798,-2.522 -24.416,-1.795 -34,3.096 -38.7235098,19.763 -24.2667,79.189 18,81.004 M 621.31461,1025.5614 c 19.93,0 40.077,0.87 59.985,-0.02 4.225,-0.19 6.716,-5.79 10.03,-5.36 3.47,0.44 5.269,4.71 9.075,5.25 28.729,4.06 60.866,0.13 89.91,0.13 v -1 c -19.138,-10.66 -37.489,-23.229 -56,-34.94702 -9.828,-6.221 -21.513,-12.309 -27.12,-23.053 -5.855,-11.218 -4.88,-22.735 -4.88,-35 v -52 -40 c 0,-5.427 -1.257,-12.42 2.318,-16.96 6.102,-7.748 17.548,-13.874 25.682,-19.37 14.141,-9.555 27.858,-19.761 42,-29.341 13.485,-9.133 26.407,-21.618 22.319,-39.329 -3.482,-15.089 -19.014,-23.158 -33.319,-18.239 -22.674,7.796 -39.907,30.01 -61,41.239 v -49 c 0,-7.391 -1.56,-16.799 0.318,-23.961 1.609,-6.137 10.373,-11.883 14.204,-17.039 9.826,-13.228 12.763,-29.167 8.038,-45 -12.281,-41.156 -71.926,-38.663 -83.839,1 -6.099,20.309 3.573,37.412 7.613,57 4.114,19.945 0.666,40.874 0.666,61 0,9.988 2.35,23.438 -0.653,33 -4.008,12.764 -17.313,9.802 -27.347,11.301 -9.642,1.44 -16.786,10.317 -18.037,19.699 -3.98,29.843 39.723,34.467 45.229,62 3.276,16.382 0.808,35.314 0.808,52 0,14.349 2.12,31 -1.414,45 -5.33,21.122 -19.623,39.55002 -24.586,61.00002 M 67.330019,596.01038 c 9.7778,-2.445 13.6822,13.018 3.9692,15.218 -9.9593,2.255 -13.8052,-12.758 -3.9692,-15.218 m 957.984681,85.551 v -39 c 0,-4.16 1.46,-11.795 -1.03,-15.363 -12.95,-18.587 -48.05709,-11.693 -45.26509,13.363 2.156,19.344 31.05509,32.513 46.29509,41 m -346.96009,-48.551 c 8.95,-2.284 13.618,10.78 3.955,13.099 -8.794,2.11 -13.337,-10.705 -3.955,-13.099 M 455.31463,1025.5614 h 56 v -30.00004 c 0,-4.23898 -0.557,-9.47398 3.228,-12.39698 4.509,-3.48 14.36798,-1.603 19.77198,-1.603 19.365,0 67.442,10.429 71.787,-18 5.913,-38.69 -47.371,-31 -70.787,-31 -6.485,0 -18.53798,2.213 -23.26198,-3.419 -6.366,-7.59 -2.738,-27.27 -2.738,-36.581 0,-31.27 1.829,-64.594 -1.229,-95.714 -1.869,-19.023 -20.82,-35.444 -39.771,-25.367 -17.786,9.457 -15.786,32.098 -14.17,49.081 2.334,24.525 1.17,50.35 1.17,75 0,8.25 2.59,21.563 -1.446,28.956 -5.478,10.035 -27.132,6.441 -36.554,5.33 -18.527,-2.187 -38.341,-0.286 -57,-0.286 -11.79002,0 -25.50402,-1.911 -37.00002,0.9 -11.027,2.695 -18.942,12.556 -18.541,24.1 0.968,27.871 37.525,24 56.54102,24 21.986,0 43.971,0.965 66,1 6.593,0.011 19.617,-0.877 24.348,4.394 7.798,8.689 3.652,30.72602 3.652,41.60602 M 768.31461,804.09038 c -15.522,3.564 -22.55,23.474 -13.351,36.467 9.646,13.624 31.641,11.004 46.351,11.004 5.988,0 17.717,-2.215 20.382,5.044 2.873,7.826 -2.784,24.682 -4.136,32.956 -4.3,26.316 -7.922,52.719 -12.496,79 -2.541,14.598 -7.571,34.34002 7.251,44.03002 13.1,8.58 29.638,2.79 34.895,-12.03 3.203,-9.02802 2.923,-19.56402 4.234,-29.00002 2.874,-20.675 5.548,-41.35 8.598,-62 1.048,-7.094 2.271,-36.414 14.268,-33.288 11.039,2.877 9.252,24.642 10.29,33.288 3.366,28.058 2.273,58.54 8.844,85.99998 3.193,13.34004 11.726,24.09004 26.87,21.79004 20.761,-3.16 19.738,-25.09202 17.95,-40.79002 -3.314,-29.095 -9.627,-57.867 -12.9,-87 -0.795,-7.076 -6.177,-23.451 -2.022,-29.682 3.42,-5.129 20.619,-2.445 25.972,-1.742 20.272,2.661 46.244,2.422 52.39009,-21.576 7.51,-29.329 -25.03509,-31 -44.39009,-31 -43.972,0 -87.954,-2 -132,-2 -17.799,0 -39.658,-3.452 -57,0.529 m 256.00009,99.471 c -0.92,4.788 -3.56,8.823 -6.01,13 -7.73,13.156 -20.18709,47.511 7.01,49 v -42 l -1,-20 m -60.00009,105.00002 v 1 h 37.00009 c -10.24209,-9.93704 -25.54009,-5.76 -37.00009,-1 m 45.00009,1 v 16 h 16 v -16 z"
       id="path949" />
  </g>
</svg>
