M48
; DRILL file {KiCad 6.0.5-a6ca702e91~116~ubuntu20.04.1} date Wed Aug 10 01:11:28 2022
; FORMAT={-:-/ absolute / metric / decimal}
; #@! TF.CreationDate,2022-08-10T01:11:28+00:00
; #@! TF.GenerationSoftware,Kicad,Pcbnew,6.0.5-a6ca702e91~116~ubuntu20.04.1
; #@! TF.FileFunction,MixedPlating,1,2
FMAT,2
METRIC
; #@! TA.AperFunction,Plated,PTH,ComponentDrill
T1C0.300
; #@! TA.AperFunction,Plated,PTH,ViaDrill
T2C0.400
; #@! TA.AperFunction,Plated,PTH,ComponentDrill
T3C0.400
; #@! TA.AperFunction,Plated,PTH,ComponentDrill
T4C0.900
; #@! TA.AperFunction,Plated,PTH,ComponentDrill
T5C0.991
; #@! TA.AperFunction,Plated,PTH,ComponentDrill
T6C1.000
; #@! TA.AperFunction,Plated,PTH,ComponentDrill
T7C1.100
; #@! TA.AperFunction,Plated,PTH,ComponentDrill
T8C1.300
; #@! TA.AperFunction,Plated,PTH,ComponentDrill
T9C1.499
; #@! TA.AperFunction,NonPlated,NPTH,ComponentDrill
T10C1.500
; #@! TA.AperFunction,NonPlated,NPTH,ComponentDrill
T11C1.702
; #@! TA.AperFunction,NonPlated,NPTH,ComponentDrill
T12C3.988
%
G90
G05
T1
X8.25Y58.8
X8.25Y55.5
X8.25Y39.75
X8.25Y36.45
X8.25Y20.7
X8.25Y17.4
X8.25Y1.65
X8.25Y-1.65
X27.25Y58.8
X27.25Y55.5
X27.25Y39.75
X27.25Y36.45
X27.25Y20.7
X27.25Y17.4
X27.25Y1.65
X27.25Y-1.65
X46.25Y70.23
X46.25Y66.93
X46.25Y51.18
X46.25Y47.88
X46.25Y32.13
X46.25Y28.83
X46.25Y13.08
X46.25Y9.78
X65.15Y-10.732
X65.15Y-14.032
X65.25Y73.087
X65.25Y69.787
X65.25Y54.037
X65.25Y50.737
X65.25Y34.987
X65.25Y31.688
X65.25Y15.938
X65.25Y12.637
X84.15Y-10.732
X84.15Y-14.032
X84.25Y68.325
X84.25Y65.025
X84.25Y49.275
X84.25Y45.975
X84.25Y30.225
X84.25Y26.925
X84.25Y11.175
X84.25Y7.875
X103.25Y65.468
X103.25Y62.167
X103.25Y46.417
X103.25Y43.117
X103.25Y27.367
X103.25Y24.067
X103.25Y8.317
X103.25Y5.018
X104.788Y-17.44
X105.361Y-14.19
X105.75Y55.967
X105.75Y52.667
X105.75Y36.917
X105.75Y33.617
X105.75Y17.867
X105.75Y14.567
X115.949Y-6.55
X119.199Y-7.123
X134.66Y-9.849
X137.91Y-10.422
T2
X-7.12Y-8.12
X41.975Y-1.9
X50.45Y0.3
X69.45Y0.35
X88.45Y0.7
X114.2Y0.9
X118.473Y5.29
X118.5Y6.75
X119.75Y59.75
X119.75Y5.25
X120.0Y4.0
X120.4Y45.0
X121.4Y49.0
X121.4Y47.6
X121.5Y58.25
X121.63Y45.6
X121.75Y62.75
X123.2Y54.8
X129.27Y32.0
X131.5Y25.5
X133.0Y25.5
X134.2Y32.0
X140.2Y31.6
T3
X132.288Y62.287
X132.288Y59.747
X132.288Y57.207
X132.288Y54.667
X132.288Y52.127
X132.288Y49.587
X132.288Y47.047
X132.288Y44.508
X132.288Y41.968
X132.288Y39.427
X132.288Y36.887
X132.288Y34.347
X133.812Y62.287
X133.812Y59.747
X133.812Y57.207
X133.812Y54.667
X133.812Y52.127
X133.812Y49.587
X133.812Y47.047
X133.812Y44.508
X133.812Y41.968
X133.812Y39.427
X133.812Y36.887
X133.812Y34.347
T5
X8.25Y60.96
X8.25Y53.34
X8.25Y41.91
X8.25Y34.29
X8.25Y22.86
X8.25Y15.24
X8.25Y3.81
X8.25Y-3.81
X27.25Y60.96
X27.25Y53.34
X27.25Y41.91
X27.25Y34.29
X27.25Y22.86
X27.25Y15.24
X27.25Y3.81
X27.25Y-3.81
X46.25Y72.39
X46.25Y64.77
X46.25Y53.34
X46.25Y45.72
X46.25Y34.29
X46.25Y26.67
X46.25Y15.24
X46.25Y7.62
X65.15Y-8.572
X65.15Y-16.192
X65.25Y75.248
X65.25Y67.627
X65.25Y56.197
X65.25Y48.578
X65.25Y37.148
X65.25Y29.527
X65.25Y18.098
X65.25Y10.477
X84.15Y-8.572
X84.15Y-16.192
X84.25Y70.485
X84.25Y62.865
X84.25Y51.435
X84.25Y43.815
X84.25Y32.385
X84.25Y24.765
X84.25Y13.335
X84.25Y5.715
X103.25Y67.627
X103.25Y60.008
X103.25Y48.578
X103.25Y40.957
X103.25Y29.527
X103.25Y21.907
X103.25Y10.477
X103.25Y2.857
X104.413Y-19.567
X105.736Y-12.063
X105.75Y58.127
X105.75Y50.508
X105.75Y39.078
X105.75Y31.457
X105.75Y20.027
X105.75Y12.407
X113.822Y-6.175
X121.326Y-7.498
X132.533Y-9.474
X140.037Y-10.798
T6
X-2.54Y6.88
X-2.54Y-7.62
X-0.04Y-7.62
X2.46Y6.88
X2.46Y-7.62
X129.23Y27.918
X131.77Y27.918
X134.31Y27.918
X136.85Y27.918
X139.962Y18.76
X140.136Y13.763
T7
X125.43Y62.287
X125.43Y62.287
X125.43Y59.747
X125.43Y57.207
X125.43Y54.667
X125.43Y52.127
X125.43Y49.587
X125.43Y47.047
X125.43Y44.508
X125.43Y41.968
X125.43Y39.427
X125.43Y36.887
X125.43Y34.347
X140.67Y62.287
X140.67Y62.287
X140.67Y59.747
X140.67Y57.207
X140.67Y54.667
X140.67Y52.127
X140.67Y49.587
X140.67Y47.047
X140.67Y44.508
X140.67Y41.968
X140.67Y39.427
X140.67Y36.887
X140.67Y34.347
T8
X137.429Y19.672
X137.673Y12.676
T9
X-3.81Y59.69
X-3.81Y40.64
X-3.81Y21.59
X-3.81Y-2.54
X-2.54Y62.23
X-2.54Y43.18
X-2.54Y24.13
X-2.54Y-5.08
X2.54Y62.23
X2.54Y43.18
X2.54Y24.13
X2.54Y-5.08
X3.81Y59.69
X3.81Y40.64
X3.81Y21.59
X3.81Y-2.54
X15.19Y59.69
X15.19Y40.64
X15.19Y21.59
X15.19Y2.54
X16.46Y62.23
X16.46Y43.18
X16.46Y24.13
X16.46Y5.08
X21.54Y62.23
X21.54Y43.18
X21.54Y24.13
X21.54Y5.08
X22.81Y59.69
X22.81Y40.64
X22.81Y21.59
X22.81Y2.54
X34.19Y71.12
X34.19Y52.07
X34.19Y33.02
X34.19Y13.97
X35.46Y73.66
X35.46Y54.61
X35.46Y35.56
X35.46Y16.51
X40.54Y73.66
X40.54Y54.61
X40.54Y35.56
X40.54Y16.51
X41.81Y71.12
X41.81Y52.07
X41.81Y33.02
X41.81Y13.97
X53.09Y-9.842
X53.19Y73.977
X53.19Y54.927
X53.19Y35.877
X53.19Y16.828
X54.36Y-7.302
X54.46Y76.517
X54.46Y57.467
X54.46Y38.417
X54.46Y19.367
X59.44Y-7.302
X59.54Y76.517
X59.54Y57.467
X59.54Y38.417
X59.54Y19.367
X60.71Y-9.842
X60.81Y73.977
X60.81Y54.927
X60.81Y35.877
X60.81Y16.828
X72.09Y-9.842
X72.19Y69.215
X72.19Y50.165
X72.19Y31.115
X72.19Y12.065
X73.36Y-7.302
X73.46Y71.755
X73.46Y52.705
X73.46Y33.655
X73.46Y14.605
X78.44Y-7.302
X78.54Y71.755
X78.54Y52.705
X78.54Y33.655
X78.54Y14.605
X79.71Y-9.842
X79.81Y69.215
X79.81Y50.165
X79.81Y31.115
X79.81Y12.065
X91.19Y66.358
X91.19Y47.307
X91.19Y28.258
X91.19Y9.207
X92.46Y68.897
X92.46Y49.847
X92.46Y30.797
X92.46Y11.747
X93.639Y-11.219
X95.331Y-8.939
X97.54Y68.897
X97.54Y49.847
X97.54Y30.797
X97.54Y11.747
X98.81Y66.358
X98.81Y47.307
X98.81Y28.258
X98.81Y9.207
X100.334Y-9.821
X101.143Y-12.543
X110.19Y56.857
X110.19Y37.807
X110.19Y18.758
X110.697Y-16.581
X111.46Y59.398
X111.46Y40.347
X111.46Y21.297
X111.579Y-11.578
X112.978Y-18.272
X114.301Y-10.768
X116.54Y59.398
X116.54Y40.347
X116.54Y21.297
X117.81Y56.857
X117.81Y37.807
X117.81Y18.758
X136.692Y-22.454
X138.015Y-14.95
X139.414Y-21.644
X140.296Y-16.641
T10
X135.976Y0.447
X142.912Y1.391
T11
X-5.08Y57.15
X-5.08Y38.1
X-5.08Y19.05
X-5.08Y0.0
X5.08Y57.15
X5.08Y38.1
X5.08Y19.05
X5.08Y0.0
X13.92Y57.15
X13.92Y38.1
X13.92Y19.05
X13.92Y0.0
X24.08Y57.15
X24.08Y38.1
X24.08Y19.05
X24.08Y0.0
X32.92Y68.58
X32.92Y49.53
X32.92Y30.48
X32.92Y11.43
X43.08Y68.58
X43.08Y49.53
X43.08Y30.48
X43.08Y11.43
X51.82Y-12.383
X51.92Y71.438
X51.92Y52.387
X51.92Y33.337
X51.92Y14.287
X61.98Y-12.383
X62.08Y71.438
X62.08Y52.387
X62.08Y33.337
X62.08Y14.287
X70.82Y-12.383
X70.92Y66.675
X70.92Y47.625
X70.92Y28.575
X70.92Y9.525
X80.98Y-12.383
X81.08Y66.675
X81.08Y47.625
X81.08Y28.575
X81.08Y9.525
X89.92Y63.817
X89.92Y44.767
X89.92Y25.717
X89.92Y6.667
X91.947Y-13.5
X100.08Y63.817
X100.08Y44.767
X100.08Y25.717
X100.08Y6.667
X101.953Y-15.265
X108.92Y54.317
X108.92Y35.267
X108.92Y16.217
X115.259Y-19.964
X117.023Y-9.958
X119.08Y54.317
X119.08Y35.267
X119.08Y16.217
X133.97Y-23.263
X135.735Y-13.258
T12
X0.0Y57.15
X0.0Y38.1
X0.0Y19.05
X0.0Y0.0
X19.0Y57.15
X19.0Y38.1
X19.0Y19.05
X19.0Y0.0
X38.0Y68.58
X38.0Y49.53
X38.0Y30.48
X38.0Y11.43
X56.9Y-12.383
X57.0Y71.438
X57.0Y52.387
X57.0Y33.337
X57.0Y14.287
X75.9Y-12.383
X76.0Y66.675
X76.0Y47.625
X76.0Y28.575
X76.0Y9.525
X95.0Y63.817
X95.0Y44.767
X95.0Y25.717
X95.0Y6.667
X96.95Y-14.382
X114.0Y54.317
X114.0Y35.267
X114.0Y16.217
X116.141Y-14.961
X134.852Y-18.261
T4
X133.288Y2.402G85X132.693Y2.322
G05
X133.908Y-2.155G85X133.314Y-2.236
G05
X134.378Y2.551G85X133.783Y2.47
G05
X134.998Y-2.007G85X134.404Y-2.088
G05
X138.341Y3.09G85X137.747Y3.009
G05
X138.962Y-1.468G85X138.367Y-1.549
G05
X141.314Y3.495G85X140.72Y3.414
G05
X141.934Y-1.063G85X141.34Y-1.144
G05
T10
X-5.64Y-0.77G85X-5.64Y0.53
G05
X5.56Y-0.77G85X5.56Y0.53
G05
T0
M30
