G04 #@! TF.GenerationSoftware,KiCad,Pcbnew,6.0.5-a6ca702e91~116~ubuntu20.04.1*
G04 #@! TF.CreationDate,2022-08-09T06:44:49+00:00*
G04 #@! TF.ProjectId,spleeb,73706c65-6562-42e6-9b69-6361645f7063,v1.0.0*
G04 #@! TF.SameCoordinates,Original*
G04 #@! TF.FileFunction,Soldermask,Top*
G04 #@! TF.FilePolarity,Negative*
%FSLAX46Y46*%
G04 Gerber Fmt 4.6, Leading zero omitted, Abs format (unit mm)*
G04 Created by KiCad (PCBNEW 6.0.5-a6ca702e91~116~ubuntu20.04.1) date 2022-08-09 06:44:49*
%MOMM*%
%LPD*%
G01*
G04 APERTURE LIST*
G04 Aperture macros list*
%AMRoundRect*
0 Rectangle with rounded corners*
0 $1 Rounding radius*
0 $2 $3 $4 $5 $6 $7 $8 $9 X,Y pos of 4 corners*
0 Add a 4 corners polygon primitive as box body*
4,1,4,$2,$3,$4,$5,$6,$7,$8,$9,$2,$3,0*
0 Add four circle primitives for the rounded corners*
1,1,$1+$1,$2,$3*
1,1,$1+$1,$4,$5*
1,1,$1+$1,$6,$7*
1,1,$1+$1,$8,$9*
0 Add four rect primitives between the rounded corners*
20,1,$1+$1,$2,$3,$4,$5,0*
20,1,$1+$1,$4,$5,$6,$7,0*
20,1,$1+$1,$6,$7,$8,$9,0*
20,1,$1+$1,$8,$9,$2,$3,0*%
%AMHorizOval*
0 Thick line with rounded ends*
0 $1 width*
0 $2 $3 position (X,Y) of the first rounded end (center of the circle)*
0 $4 $5 position (X,Y) of the second rounded end (center of the circle)*
0 Add line between two ends*
20,1,$1,$2,$3,$4,$5,0*
0 Add two circle primitives to create the rounded ends*
1,1,$1,$2,$3*
1,1,$1,$4,$5*%
%AMFreePoly0*
4,1,14,0.635355,0.435355,0.650000,0.400000,0.650000,0.200000,0.635355,0.164645,0.035355,-0.435355,0.000000,-0.450000,-0.035355,-0.435355,-0.635355,0.164645,-0.650000,0.200000,-0.650000,0.400000,-0.635355,0.435355,-0.600000,0.450000,0.600000,0.450000,0.635355,0.435355,0.635355,0.435355,$1*%
%AMFreePoly1*
4,1,16,0.635355,1.035355,0.650000,1.000000,0.650000,-0.250000,0.635355,-0.285355,0.600000,-0.300000,-0.600000,-0.300000,-0.635355,-0.285355,-0.650000,-0.250000,-0.650000,1.000000,-0.635355,1.035355,-0.600000,1.050000,-0.564645,1.035355,0.000000,0.470710,0.564645,1.035355,0.600000,1.050000,0.635355,1.035355,0.635355,1.035355,$1*%
%AMFreePoly2*
4,1,37,0.012350,0.894884,0.074210,0.894507,0.088231,0.892412,0.224052,0.851793,0.236921,0.845846,0.355883,0.768739,0.366566,0.759420,0.459104,0.652023,0.466742,0.640080,0.525419,0.511028,0.529398,0.497421,0.549495,0.357088,0.550000,0.350000,0.550000,-0.350000,0.549996,-0.350610,0.549847,-0.362826,0.549158,-0.370511,0.525638,-0.510312,0.521328,-0.523818,0.459516,-0.651397,
0.451589,-0.663150,0.356454,-0.768254,0.345546,-0.777309,0.224736,-0.851486,0.211726,-0.857116,0.074953,-0.894405,0.060885,-0.896158,0.011462,-0.895252,0.000000,-0.900000,-0.500000,-0.900000,-0.535355,-0.885355,-0.550000,-0.850000,-0.550000,0.850000,-0.535355,0.885355,-0.500000,0.900000,0.000000,0.900000,0.012350,0.894884,0.012350,0.894884,$1*%
%AMFreePoly3*
4,1,41,0.003401,0.899884,0.118759,0.892020,0.127454,0.890651,0.305599,0.846234,0.315735,0.842505,0.480187,0.760871,0.489285,0.755052,0.632371,0.640008,0.640008,0.632371,0.755052,0.489285,0.760871,0.480187,0.842505,0.315735,0.846234,0.305599,0.890651,0.127454,0.892020,0.118759,0.899884,0.003401,0.899884,-0.003401,0.892020,-0.118759,0.890651,-0.127454,0.846234,-0.305599,
0.842505,-0.315735,0.760871,-0.480187,0.755052,-0.489285,0.640008,-0.632371,0.632371,-0.640008,0.489285,-0.755052,0.480187,-0.760871,0.315735,-0.842505,0.305599,-0.846234,0.127454,-0.890651,0.118759,-0.892020,0.003401,-0.899884,0.000000,-0.900000,-0.850000,-0.900000,-0.885355,-0.885355,-0.900000,-0.850000,-0.900000,0.850000,-0.885355,0.885355,-0.850000,0.900000,0.000000,0.900000,
0.003401,0.899884,0.003401,0.899884,$1*%
G04 Aperture macros list end*
%ADD10C,0.250000*%
%ADD11C,0.100000*%
%ADD12C,4.087800*%
%ADD13C,1.801800*%
%ADD14C,2.386000*%
%ADD15RoundRect,0.050000X-0.547352X-0.512743X0.338975X-0.669026X0.547352X0.512743X-0.338975X0.669026X0*%
%ADD16C,2.005000*%
%ADD17RoundRect,0.050000X-1.029867X-0.721121X0.721121X-1.029867X1.029867X0.721121X-0.721121X1.029867X0*%
%ADD18RoundRect,0.050000X0.600000X-0.450000X0.600000X0.450000X-0.600000X0.450000X-0.600000X-0.450000X0*%
%ADD19RoundRect,0.050000X0.889000X-0.889000X0.889000X0.889000X-0.889000X0.889000X-0.889000X-0.889000X0*%
%ADD20R,2.000000X3.200000*%
%ADD21C,1.600000*%
%ADD22RoundRect,0.050000X1.000000X-1.000000X1.000000X1.000000X-1.000000X1.000000X-1.000000X-1.000000X0*%
%ADD23C,2.100000*%
%ADD24HorizOval,1.700000X-0.297260X-0.040455X0.297260X0.040455X0*%
%ADD25C,1.700000*%
%ADD26FreePoly0,90.000000*%
%ADD27FreePoly0,270.000000*%
%ADD28RoundRect,0.050000X-0.800000X0.800000X-0.800000X-0.800000X0.800000X-0.800000X0.800000X0.800000X0*%
%ADD29FreePoly1,270.000000*%
%ADD30FreePoly1,90.000000*%
%ADD31FreePoly2,90.000000*%
%ADD32RoundRect,0.050000X-0.850000X0.850000X-0.850000X-0.850000X0.850000X-0.850000X0.850000X0.850000X0*%
%ADD33FreePoly3,270.000000*%
%ADD34C,1.900000*%
%ADD35C,2.200000*%
%ADD36RoundRect,0.050000X0.547352X0.512743X-0.338975X0.669026X-0.547352X-0.512743X0.338975X-0.669026X0*%
%ADD37RoundRect,0.050000X1.029867X0.721121X-0.721121X1.029867X-1.029867X-0.721121X0.721121X-1.029867X0*%
%ADD38RoundRect,0.050000X0.512743X-0.547352X0.669026X0.338975X-0.512743X0.547352X-0.669026X-0.338975X0*%
%ADD39RoundRect,0.050000X0.721121X-1.029867X1.029867X0.721121X-0.721121X1.029867X-1.029867X-0.721121X0*%
G04 APERTURE END LIST*
D10*
G04 #@! TO.C,MCU1*
X132413000Y36887500D02*
G75*
G03*
X132413000Y36887500I-125000J0D01*
G01*
X133937000Y36887500D02*
G75*
G03*
X133937000Y36887500I-125000J0D01*
G01*
X132413000Y52127500D02*
G75*
G03*
X132413000Y52127500I-125000J0D01*
G01*
X133937000Y41967500D02*
G75*
G03*
X133937000Y41967500I-125000J0D01*
G01*
X133937000Y54667500D02*
G75*
G03*
X133937000Y54667500I-125000J0D01*
G01*
X133937000Y52127500D02*
G75*
G03*
X133937000Y52127500I-125000J0D01*
G01*
X132413000Y39427500D02*
G75*
G03*
X132413000Y39427500I-125000J0D01*
G01*
X132413000Y62287500D02*
G75*
G03*
X132413000Y62287500I-125000J0D01*
G01*
X133937000Y39427500D02*
G75*
G03*
X133937000Y39427500I-125000J0D01*
G01*
X133937000Y49587500D02*
G75*
G03*
X133937000Y49587500I-125000J0D01*
G01*
X132413000Y41967500D02*
G75*
G03*
X132413000Y41967500I-125000J0D01*
G01*
X133937000Y59747500D02*
G75*
G03*
X133937000Y59747500I-125000J0D01*
G01*
X133937000Y47047500D02*
G75*
G03*
X133937000Y47047500I-125000J0D01*
G01*
X132413000Y57207500D02*
G75*
G03*
X132413000Y57207500I-125000J0D01*
G01*
X133937000Y57207500D02*
G75*
G03*
X133937000Y57207500I-125000J0D01*
G01*
X132413000Y59747500D02*
G75*
G03*
X132413000Y59747500I-125000J0D01*
G01*
X133937000Y34347500D02*
G75*
G03*
X133937000Y34347500I-125000J0D01*
G01*
X133937000Y44507500D02*
G75*
G03*
X133937000Y44507500I-125000J0D01*
G01*
X132413000Y49587500D02*
G75*
G03*
X132413000Y49587500I-125000J0D01*
G01*
X132413000Y34347500D02*
G75*
G03*
X132413000Y34347500I-125000J0D01*
G01*
X132413000Y44507500D02*
G75*
G03*
X132413000Y44507500I-125000J0D01*
G01*
X132413000Y47047500D02*
G75*
G03*
X132413000Y47047500I-125000J0D01*
G01*
X132413000Y54667500D02*
G75*
G03*
X132413000Y54667500I-125000J0D01*
G01*
X133937000Y62287500D02*
G75*
G03*
X133937000Y62287500I-125000J0D01*
G01*
G36*
X139146000Y49079500D02*
G01*
X138130000Y49079500D01*
X138130000Y50095500D01*
X139146000Y50095500D01*
X139146000Y49079500D01*
G37*
D11*
X139146000Y49079500D02*
X138130000Y49079500D01*
X138130000Y50095500D01*
X139146000Y50095500D01*
X139146000Y49079500D01*
G36*
X139146000Y59239500D02*
G01*
X138130000Y59239500D01*
X138130000Y60255500D01*
X139146000Y60255500D01*
X139146000Y59239500D01*
G37*
X139146000Y59239500D02*
X138130000Y59239500D01*
X138130000Y60255500D01*
X139146000Y60255500D01*
X139146000Y59239500D01*
G36*
X139146000Y33839500D02*
G01*
X138130000Y33839500D01*
X138130000Y34855500D01*
X139146000Y34855500D01*
X139146000Y33839500D01*
G37*
X139146000Y33839500D02*
X138130000Y33839500D01*
X138130000Y34855500D01*
X139146000Y34855500D01*
X139146000Y33839500D01*
G36*
X139146000Y56699500D02*
G01*
X138130000Y56699500D01*
X138130000Y57715500D01*
X139146000Y57715500D01*
X139146000Y56699500D01*
G37*
X139146000Y56699500D02*
X138130000Y56699500D01*
X138130000Y57715500D01*
X139146000Y57715500D01*
X139146000Y56699500D01*
G36*
X127970000Y43999500D02*
G01*
X126954000Y43999500D01*
X126954000Y45015500D01*
X127970000Y45015500D01*
X127970000Y43999500D01*
G37*
X127970000Y43999500D02*
X126954000Y43999500D01*
X126954000Y45015500D01*
X127970000Y45015500D01*
X127970000Y43999500D01*
G36*
X127970000Y56699500D02*
G01*
X126954000Y56699500D01*
X126954000Y57715500D01*
X127970000Y57715500D01*
X127970000Y56699500D01*
G37*
X127970000Y56699500D02*
X126954000Y56699500D01*
X126954000Y57715500D01*
X127970000Y57715500D01*
X127970000Y56699500D01*
G36*
X127970000Y61779500D02*
G01*
X126954000Y61779500D01*
X126954000Y62795500D01*
X127970000Y62795500D01*
X127970000Y61779500D01*
G37*
X127970000Y61779500D02*
X126954000Y61779500D01*
X126954000Y62795500D01*
X127970000Y62795500D01*
X127970000Y61779500D01*
G36*
X139146000Y61779500D02*
G01*
X138130000Y61779500D01*
X138130000Y62795500D01*
X139146000Y62795500D01*
X139146000Y61779500D01*
G37*
X139146000Y61779500D02*
X138130000Y61779500D01*
X138130000Y62795500D01*
X139146000Y62795500D01*
X139146000Y61779500D01*
G36*
X139146000Y41459500D02*
G01*
X138130000Y41459500D01*
X138130000Y42475500D01*
X139146000Y42475500D01*
X139146000Y41459500D01*
G37*
X139146000Y41459500D02*
X138130000Y41459500D01*
X138130000Y42475500D01*
X139146000Y42475500D01*
X139146000Y41459500D01*
G36*
X127970000Y36379500D02*
G01*
X126954000Y36379500D01*
X126954000Y37395500D01*
X127970000Y37395500D01*
X127970000Y36379500D01*
G37*
X127970000Y36379500D02*
X126954000Y36379500D01*
X126954000Y37395500D01*
X127970000Y37395500D01*
X127970000Y36379500D01*
G36*
X139146000Y38919500D02*
G01*
X138130000Y38919500D01*
X138130000Y39935500D01*
X139146000Y39935500D01*
X139146000Y38919500D01*
G37*
X139146000Y38919500D02*
X138130000Y38919500D01*
X138130000Y39935500D01*
X139146000Y39935500D01*
X139146000Y38919500D01*
G36*
X139146000Y54159500D02*
G01*
X138130000Y54159500D01*
X138130000Y55175500D01*
X139146000Y55175500D01*
X139146000Y54159500D01*
G37*
X139146000Y54159500D02*
X138130000Y54159500D01*
X138130000Y55175500D01*
X139146000Y55175500D01*
X139146000Y54159500D01*
G36*
X127970000Y54159500D02*
G01*
X126954000Y54159500D01*
X126954000Y55175500D01*
X127970000Y55175500D01*
X127970000Y54159500D01*
G37*
X127970000Y54159500D02*
X126954000Y54159500D01*
X126954000Y55175500D01*
X127970000Y55175500D01*
X127970000Y54159500D01*
G36*
X127970000Y46539500D02*
G01*
X126954000Y46539500D01*
X126954000Y47555500D01*
X127970000Y47555500D01*
X127970000Y46539500D01*
G37*
X127970000Y46539500D02*
X126954000Y46539500D01*
X126954000Y47555500D01*
X127970000Y47555500D01*
X127970000Y46539500D01*
G36*
X127970000Y41459500D02*
G01*
X126954000Y41459500D01*
X126954000Y42475500D01*
X127970000Y42475500D01*
X127970000Y41459500D01*
G37*
X127970000Y41459500D02*
X126954000Y41459500D01*
X126954000Y42475500D01*
X127970000Y42475500D01*
X127970000Y41459500D01*
G36*
X127970000Y51619500D02*
G01*
X126954000Y51619500D01*
X126954000Y52635500D01*
X127970000Y52635500D01*
X127970000Y51619500D01*
G37*
X127970000Y51619500D02*
X126954000Y51619500D01*
X126954000Y52635500D01*
X127970000Y52635500D01*
X127970000Y51619500D01*
G36*
X127970000Y33839500D02*
G01*
X126954000Y33839500D01*
X126954000Y34855500D01*
X127970000Y34855500D01*
X127970000Y33839500D01*
G37*
X127970000Y33839500D02*
X126954000Y33839500D01*
X126954000Y34855500D01*
X127970000Y34855500D01*
X127970000Y33839500D01*
G36*
X139146000Y43999500D02*
G01*
X138130000Y43999500D01*
X138130000Y45015500D01*
X139146000Y45015500D01*
X139146000Y43999500D01*
G37*
X139146000Y43999500D02*
X138130000Y43999500D01*
X138130000Y45015500D01*
X139146000Y45015500D01*
X139146000Y43999500D01*
G36*
X127970000Y59239500D02*
G01*
X126954000Y59239500D01*
X126954000Y60255500D01*
X127970000Y60255500D01*
X127970000Y59239500D01*
G37*
X127970000Y59239500D02*
X126954000Y59239500D01*
X126954000Y60255500D01*
X127970000Y60255500D01*
X127970000Y59239500D01*
G36*
X127970000Y49079500D02*
G01*
X126954000Y49079500D01*
X126954000Y50095500D01*
X127970000Y50095500D01*
X127970000Y49079500D01*
G37*
X127970000Y49079500D02*
X126954000Y49079500D01*
X126954000Y50095500D01*
X127970000Y50095500D01*
X127970000Y49079500D01*
G36*
X139146000Y36379500D02*
G01*
X138130000Y36379500D01*
X138130000Y37395500D01*
X139146000Y37395500D01*
X139146000Y36379500D01*
G37*
X139146000Y36379500D02*
X138130000Y36379500D01*
X138130000Y37395500D01*
X139146000Y37395500D01*
X139146000Y36379500D01*
G36*
X139146000Y46539500D02*
G01*
X138130000Y46539500D01*
X138130000Y47555500D01*
X139146000Y47555500D01*
X139146000Y46539500D01*
G37*
X139146000Y46539500D02*
X138130000Y46539500D01*
X138130000Y47555500D01*
X139146000Y47555500D01*
X139146000Y46539500D01*
G36*
X127970000Y38919500D02*
G01*
X126954000Y38919500D01*
X126954000Y39935500D01*
X127970000Y39935500D01*
X127970000Y38919500D01*
G37*
X127970000Y38919500D02*
X126954000Y38919500D01*
X126954000Y39935500D01*
X127970000Y39935500D01*
X127970000Y38919500D01*
G36*
X139146000Y51619500D02*
G01*
X138130000Y51619500D01*
X138130000Y52635500D01*
X139146000Y52635500D01*
X139146000Y51619500D01*
G37*
X139146000Y51619500D02*
X138130000Y51619500D01*
X138130000Y52635500D01*
X139146000Y52635500D01*
X139146000Y51619500D01*
G04 #@! TD*
D12*
G04 #@! TO.C,S18*
X76000000Y28575000D03*
D13*
X81080000Y28575000D03*
X70920000Y28575000D03*
D14*
X73460000Y33655000D03*
X78540000Y33655000D03*
X72190000Y31115000D03*
X79810000Y31115000D03*
G04 #@! TD*
D15*
G04 #@! TO.C,D32*
X134660062Y-9849416D03*
D16*
X140037113Y-10797535D03*
D15*
X137909928Y-10422454D03*
D17*
X132532877Y-9474335D03*
G04 #@! TD*
D12*
G04 #@! TO.C,S26*
X114000000Y35267500D03*
D13*
X108920000Y35267500D03*
X119080000Y35267500D03*
D14*
X116540000Y40347500D03*
X111460000Y40347500D03*
X117810000Y37807500D03*
X110190000Y37807500D03*
G04 #@! TD*
D16*
G04 #@! TO.C,D27*
X105750000Y58127500D03*
D18*
X105750000Y52667500D03*
X105750000Y55967500D03*
D19*
X105750000Y50507500D03*
G04 #@! TD*
D20*
G04 #@! TO.C,ROT1*
X-5640000Y-120000D03*
X5560000Y-120000D03*
D21*
X-2540000Y6880000D03*
X2460000Y6880000D03*
D22*
X-2540000Y-7620000D03*
D23*
X2460000Y-7620000D03*
X-40000Y-7620000D03*
G04 #@! TD*
D18*
G04 #@! TO.C,D3*
X8250000Y36450000D03*
D16*
X8250000Y41910000D03*
D19*
X8250000Y34290000D03*
D18*
X8250000Y39750000D03*
G04 #@! TD*
D16*
G04 #@! TO.C,D5*
X27250000Y3810000D03*
D18*
X27250000Y-1650000D03*
D19*
X27250000Y-3810000D03*
D18*
X27250000Y1650000D03*
G04 #@! TD*
D16*
G04 #@! TO.C,D17*
X84250000Y13335000D03*
D18*
X84250000Y7875000D03*
D19*
X84250000Y5715000D03*
D18*
X84250000Y11175000D03*
G04 #@! TD*
G04 #@! TO.C,D23*
X103250000Y43117500D03*
D16*
X103250000Y48577500D03*
D19*
X103250000Y40957500D03*
D18*
X103250000Y46417500D03*
G04 #@! TD*
D21*
G04 #@! TO.C,REF\u002A\u002A*
X142912305Y1391093D03*
X135976244Y447137D03*
D24*
X133611063Y-2195953D03*
X132990749Y2362031D03*
X134080702Y2510367D03*
X134701016Y-2047616D03*
X138044165Y3049770D03*
X138664479Y-1508213D03*
X141637077Y-1103660D03*
X141016763Y3454323D03*
G04 #@! TD*
D16*
G04 #@! TO.C,D29*
X84150000Y-8572500D03*
D18*
X84150000Y-14032500D03*
X84150000Y-10732500D03*
D19*
X84150000Y-16192500D03*
G04 #@! TD*
D16*
G04 #@! TO.C,D19*
X84250000Y51435000D03*
D18*
X84250000Y45975000D03*
X84250000Y49275000D03*
D19*
X84250000Y43815000D03*
G04 #@! TD*
D16*
G04 #@! TO.C,D11*
X46250000Y53340000D03*
D18*
X46250000Y47880000D03*
X46250000Y51180000D03*
D19*
X46250000Y45720000D03*
G04 #@! TD*
D13*
G04 #@! TO.C,S30*
X91947177Y-13500367D03*
X101952823Y-15264633D03*
D12*
X96950000Y-14382500D03*
D14*
X95330721Y-8938610D03*
X100333544Y-9820743D03*
X101143184Y-12542688D03*
X93638949Y-11219489D03*
G04 #@! TD*
D25*
G04 #@! TO.C,MCU1*
X140670000Y47047500D03*
D26*
X127208000Y54667500D03*
D25*
X140670000Y39427500D03*
D26*
X127208000Y44507500D03*
D25*
X125430000Y59747500D03*
D26*
X127208000Y47047500D03*
D27*
X138892000Y59747500D03*
D25*
X140670000Y36887500D03*
D28*
X125430000Y62287500D03*
D27*
X138892000Y34347500D03*
D25*
X125430000Y54667500D03*
D26*
X127208000Y59747500D03*
D25*
X140670000Y59747500D03*
X125430000Y44507500D03*
D26*
X127208000Y57207500D03*
D27*
X138892000Y49587500D03*
D25*
X125430000Y52127500D03*
X140670000Y62287500D03*
X140670000Y54667500D03*
X140670000Y44507500D03*
D27*
X138892000Y52127500D03*
X138892000Y41967500D03*
D26*
X127208000Y52127500D03*
D25*
X125430000Y39427500D03*
D27*
X138892000Y47047500D03*
D25*
X125430000Y36887500D03*
X140670000Y57207500D03*
D27*
X138892000Y62287500D03*
X138892000Y57207500D03*
D25*
X125430000Y41967500D03*
X140670000Y34347500D03*
D27*
X138892000Y39427500D03*
D26*
X127208000Y39427500D03*
X127208000Y36887500D03*
X127208000Y34347500D03*
D25*
X140670000Y41967500D03*
X140670000Y49587500D03*
D27*
X138892000Y36887500D03*
D26*
X127208000Y62287500D03*
X127208000Y41967500D03*
D27*
X138892000Y44507500D03*
X138892000Y54667500D03*
D25*
X125430000Y57207500D03*
X140670000Y52127500D03*
X125430000Y34347500D03*
D26*
X127208000Y49587500D03*
D25*
X125430000Y62287500D03*
X125430000Y49587500D03*
X125430000Y47047500D03*
D29*
X137876000Y62287500D03*
X137876000Y59747500D03*
X137876000Y57207500D03*
X137876000Y54667500D03*
X137876000Y52127500D03*
X137876000Y49587500D03*
X137876000Y47047500D03*
X137876000Y44507500D03*
X137876000Y41967500D03*
X137876000Y39427500D03*
X137876000Y36887500D03*
X137876000Y34347500D03*
D30*
X128224000Y34347500D03*
X128224000Y36887500D03*
X128224000Y39427500D03*
X128224000Y41967500D03*
X128224000Y44507500D03*
X128224000Y47047500D03*
X128224000Y49587500D03*
X128224000Y52127500D03*
X128224000Y54667500D03*
X128224000Y57207500D03*
X128224000Y59747500D03*
X128224000Y62287500D03*
G04 #@! TD*
D13*
G04 #@! TO.C,S17*
X81080000Y9525000D03*
X70920000Y9525000D03*
D12*
X76000000Y9525000D03*
D14*
X78540000Y14605000D03*
X73460000Y14605000D03*
X79810000Y12065000D03*
X72190000Y12065000D03*
G04 #@! TD*
D16*
G04 #@! TO.C,D22*
X103250000Y29527500D03*
D18*
X103250000Y24067500D03*
X103250000Y27367500D03*
D19*
X103250000Y21907500D03*
G04 #@! TD*
D16*
G04 #@! TO.C,D10*
X46250000Y34290000D03*
D18*
X46250000Y28830000D03*
D19*
X46250000Y26670000D03*
D18*
X46250000Y32130000D03*
G04 #@! TD*
D13*
G04 #@! TO.C,S14*
X51920000Y33337500D03*
D12*
X57000000Y33337500D03*
D13*
X62080000Y33337500D03*
D14*
X54460000Y38417500D03*
X59540000Y38417500D03*
X53190000Y35877500D03*
X60810000Y35877500D03*
G04 #@! TD*
D18*
G04 #@! TO.C,D1*
X8250000Y-1650000D03*
D16*
X8250000Y3810000D03*
D19*
X8250000Y-3810000D03*
D18*
X8250000Y1650000D03*
G04 #@! TD*
D13*
G04 #@! TO.C,S22*
X100080000Y25717500D03*
D12*
X95000000Y25717500D03*
D13*
X89920000Y25717500D03*
D14*
X92460000Y30797500D03*
X97540000Y30797500D03*
X91190000Y28257500D03*
X98810000Y28257500D03*
G04 #@! TD*
D12*
G04 #@! TO.C,S20*
X76000000Y66675000D03*
D13*
X81080000Y66675000D03*
X70920000Y66675000D03*
D14*
X73460000Y71755000D03*
X78540000Y71755000D03*
X79810000Y69215000D03*
X72190000Y69215000D03*
G04 #@! TD*
D18*
G04 #@! TO.C,D24*
X103250000Y62167500D03*
D16*
X103250000Y67627500D03*
D18*
X103250000Y65467500D03*
D19*
X103250000Y60007500D03*
G04 #@! TD*
D13*
G04 #@! TO.C,S2*
X-5080000Y19050000D03*
D12*
X0Y19050000D03*
D13*
X5080000Y19050000D03*
D14*
X-2540000Y24130000D03*
X2540000Y24130000D03*
X3810000Y21590000D03*
X-3810000Y21590000D03*
G04 #@! TD*
D12*
G04 #@! TO.C,S29*
X75900000Y-12382500D03*
D13*
X70820000Y-12382500D03*
X80980000Y-12382500D03*
D14*
X73360000Y-7302500D03*
X78440000Y-7302500D03*
X79710000Y-9842500D03*
X72090000Y-9842500D03*
G04 #@! TD*
D16*
G04 #@! TO.C,D15*
X65250000Y56197500D03*
D18*
X65250000Y50737500D03*
X65250000Y54037500D03*
D19*
X65250000Y48577500D03*
G04 #@! TD*
D31*
G04 #@! TO.C,OLED1*
X136850000Y29568500D03*
X134310000Y29568500D03*
X131770000Y29568500D03*
X129230000Y29568500D03*
D32*
X136850000Y27917500D03*
D33*
X134310000Y27917500D03*
X131770000Y27917500D03*
X129230000Y27917500D03*
G04 #@! TD*
D13*
G04 #@! TO.C,S28*
X61980000Y-12382500D03*
D12*
X56900000Y-12382500D03*
D13*
X51820000Y-12382500D03*
D14*
X54360000Y-7302500D03*
X59440000Y-7302500D03*
X53090000Y-9842500D03*
X60710000Y-9842500D03*
G04 #@! TD*
D12*
G04 #@! TO.C,S10*
X38000000Y30480000D03*
D13*
X32920000Y30480000D03*
X43080000Y30480000D03*
D14*
X40540000Y35560000D03*
X35460000Y35560000D03*
X34190000Y33020000D03*
X41810000Y33020000D03*
G04 #@! TD*
D13*
G04 #@! TO.C,S8*
X24080000Y57150000D03*
X13920000Y57150000D03*
D12*
X19000000Y57150000D03*
D14*
X16460000Y62230000D03*
X21540000Y62230000D03*
X22810000Y59690000D03*
X15190000Y59690000D03*
G04 #@! TD*
D16*
G04 #@! TO.C,D4*
X8250000Y60960000D03*
D18*
X8250000Y55500000D03*
D19*
X8250000Y53340000D03*
D18*
X8250000Y58800000D03*
G04 #@! TD*
G04 #@! TO.C,D12*
X46250000Y66930000D03*
D16*
X46250000Y72390000D03*
D19*
X46250000Y64770000D03*
D18*
X46250000Y70230000D03*
G04 #@! TD*
D16*
G04 #@! TO.C,D20*
X84250000Y70485000D03*
D18*
X84250000Y65025000D03*
D19*
X84250000Y62865000D03*
D18*
X84250000Y68325000D03*
G04 #@! TD*
D12*
G04 #@! TO.C,S23*
X95000000Y44767500D03*
D13*
X89920000Y44767500D03*
X100080000Y44767500D03*
D14*
X92460000Y49847500D03*
X97540000Y49847500D03*
X91190000Y47307500D03*
X98810000Y47307500D03*
G04 #@! TD*
D13*
G04 #@! TO.C,S9*
X43080000Y11430000D03*
D12*
X38000000Y11430000D03*
D13*
X32920000Y11430000D03*
D14*
X35460000Y16510000D03*
X40540000Y16510000D03*
X34190000Y13970000D03*
X41810000Y13970000D03*
G04 #@! TD*
D18*
G04 #@! TO.C,D21*
X103250000Y5017500D03*
D16*
X103250000Y10477500D03*
D18*
X103250000Y8317500D03*
D19*
X103250000Y2857500D03*
G04 #@! TD*
D16*
G04 #@! TO.C,D26*
X105750000Y39077500D03*
D18*
X105750000Y33617500D03*
X105750000Y36917500D03*
D19*
X105750000Y31457500D03*
G04 #@! TD*
D13*
G04 #@! TO.C,S13*
X62080000Y14287500D03*
X51920000Y14287500D03*
D12*
X57000000Y14287500D03*
D14*
X59540000Y19367500D03*
X54460000Y19367500D03*
X60810000Y16827500D03*
X53190000Y16827500D03*
G04 #@! TD*
D13*
G04 #@! TO.C,S16*
X51920000Y71437500D03*
X62080000Y71437500D03*
D12*
X57000000Y71437500D03*
D14*
X54460000Y76517500D03*
X59540000Y76517500D03*
X53190000Y73977500D03*
X60810000Y73977500D03*
G04 #@! TD*
D13*
G04 #@! TO.C,S6*
X24080000Y19050000D03*
D12*
X19000000Y19050000D03*
D13*
X13920000Y19050000D03*
D14*
X16460000Y24130000D03*
X21540000Y24130000D03*
X15190000Y21590000D03*
X22810000Y21590000D03*
G04 #@! TD*
D16*
G04 #@! TO.C,D28*
X65150000Y-8572500D03*
D18*
X65150000Y-14032500D03*
D19*
X65150000Y-16192500D03*
D18*
X65150000Y-10732500D03*
G04 #@! TD*
D34*
G04 #@! TO.C,B1*
X140136487Y13762647D03*
X139961990Y18759601D03*
D35*
X137672910Y12676008D03*
X137428613Y19671744D03*
G04 #@! TD*
D16*
G04 #@! TO.C,D31*
X113821530Y-6175020D03*
D36*
X119198581Y-7123139D03*
D37*
X121325766Y-7498220D03*
D36*
X115948715Y-6550101D03*
G04 #@! TD*
D13*
G04 #@! TO.C,S15*
X62080000Y52387500D03*
X51920000Y52387500D03*
D12*
X57000000Y52387500D03*
D14*
X59540000Y57467500D03*
X54460000Y57467500D03*
X53190000Y54927500D03*
X60810000Y54927500D03*
G04 #@! TD*
D18*
G04 #@! TO.C,D25*
X105750000Y14567500D03*
D16*
X105750000Y20027500D03*
D18*
X105750000Y17867500D03*
D19*
X105750000Y12407500D03*
G04 #@! TD*
D13*
G04 #@! TO.C,S12*
X32920000Y68580000D03*
X43080000Y68580000D03*
D12*
X38000000Y68580000D03*
D14*
X40540000Y73660000D03*
X35460000Y73660000D03*
X34190000Y71120000D03*
X41810000Y71120000D03*
G04 #@! TD*
D13*
G04 #@! TO.C,S24*
X100080000Y63817500D03*
X89920000Y63817500D03*
D12*
X95000000Y63817500D03*
D14*
X92460000Y68897500D03*
X97540000Y68897500D03*
X91190000Y66357500D03*
X98810000Y66357500D03*
G04 #@! TD*
D18*
G04 #@! TO.C,D8*
X27250000Y55500000D03*
D16*
X27250000Y60960000D03*
D19*
X27250000Y53340000D03*
D18*
X27250000Y58800000D03*
G04 #@! TD*
D13*
G04 #@! TO.C,S25*
X108920000Y16217500D03*
D12*
X114000000Y16217500D03*
D13*
X119080000Y16217500D03*
D14*
X116540000Y21297500D03*
X111460000Y21297500D03*
X110190000Y18757500D03*
X117810000Y18757500D03*
G04 #@! TD*
D13*
G04 #@! TO.C,S11*
X43080000Y49530000D03*
D12*
X38000000Y49530000D03*
D13*
X32920000Y49530000D03*
D14*
X35460000Y54610000D03*
X40540000Y54610000D03*
X41810000Y52070000D03*
X34190000Y52070000D03*
G04 #@! TD*
D16*
G04 #@! TO.C,D2*
X8250000Y22860000D03*
D18*
X8250000Y17400000D03*
D19*
X8250000Y15240000D03*
D18*
X8250000Y20700000D03*
G04 #@! TD*
D13*
G04 #@! TO.C,S21*
X89920000Y6667500D03*
X100080000Y6667500D03*
D12*
X95000000Y6667500D03*
D14*
X97540000Y11747500D03*
X92460000Y11747500D03*
X98810000Y9207500D03*
X91190000Y9207500D03*
G04 #@! TD*
D16*
G04 #@! TO.C,D6*
X27250000Y22860000D03*
D18*
X27250000Y17400000D03*
X27250000Y20700000D03*
D19*
X27250000Y15240000D03*
G04 #@! TD*
D12*
G04 #@! TO.C,S1*
X0Y0D03*
D13*
X5080000Y0D03*
X-5080000Y0D03*
D14*
X2540000Y-5080000D03*
X-2540000Y-5080000D03*
X3810000Y-2540000D03*
X-3810000Y-2540000D03*
G04 #@! TD*
D13*
G04 #@! TO.C,S27*
X108920000Y54317500D03*
D12*
X114000000Y54317500D03*
D13*
X119080000Y54317500D03*
D14*
X111460000Y59397500D03*
X116540000Y59397500D03*
X117810000Y56857500D03*
X110190000Y56857500D03*
G04 #@! TD*
D16*
G04 #@! TO.C,D14*
X65250000Y37147500D03*
D18*
X65250000Y31687500D03*
D19*
X65250000Y29527500D03*
D18*
X65250000Y34987500D03*
G04 #@! TD*
D13*
G04 #@! TO.C,S31*
X117023183Y-9958461D03*
D12*
X116141050Y-14961284D03*
D13*
X115258917Y-19964107D03*
D14*
X110697160Y-16580563D03*
X111579293Y-11577740D03*
X114301238Y-10768100D03*
X112978039Y-18272335D03*
G04 #@! TD*
D12*
G04 #@! TO.C,S5*
X19000000Y0D03*
D13*
X13920000Y0D03*
X24080000Y0D03*
D14*
X16460000Y5080000D03*
X21540000Y5080000D03*
X22810000Y2540000D03*
X15190000Y2540000D03*
G04 #@! TD*
D18*
G04 #@! TO.C,D18*
X84250000Y26925000D03*
D16*
X84250000Y32385000D03*
D19*
X84250000Y24765000D03*
D18*
X84250000Y30225000D03*
G04 #@! TD*
D13*
G04 #@! TO.C,S19*
X81080000Y47625000D03*
D12*
X76000000Y47625000D03*
D13*
X70920000Y47625000D03*
D14*
X78540000Y52705000D03*
X73460000Y52705000D03*
X79810000Y50165000D03*
X72190000Y50165000D03*
G04 #@! TD*
D16*
G04 #@! TO.C,D7*
X27250000Y41910000D03*
D18*
X27250000Y36450000D03*
D19*
X27250000Y34290000D03*
D18*
X27250000Y39750000D03*
G04 #@! TD*
D13*
G04 #@! TO.C,S32*
X133970265Y-23263422D03*
D12*
X134852398Y-18260599D03*
D13*
X135734531Y-13257776D03*
D14*
X140296288Y-16641320D03*
X139414155Y-21644143D03*
X138015409Y-14949548D03*
X136692210Y-22453783D03*
G04 #@! TD*
D16*
G04 #@! TO.C,D30*
X105736264Y-12062980D03*
D38*
X104788145Y-17440031D03*
D39*
X104413064Y-19567216D03*
D38*
X105361183Y-14190165D03*
G04 #@! TD*
D16*
G04 #@! TO.C,D13*
X65250000Y18097500D03*
D18*
X65250000Y12637500D03*
D19*
X65250000Y10477500D03*
D18*
X65250000Y15937500D03*
G04 #@! TD*
D12*
G04 #@! TO.C,S4*
X0Y57150000D03*
D13*
X-5080000Y57150000D03*
X5080000Y57150000D03*
D14*
X2540000Y62230000D03*
X-2540000Y62230000D03*
X-3810000Y59690000D03*
X3810000Y59690000D03*
G04 #@! TD*
D13*
G04 #@! TO.C,S3*
X-5080000Y38100000D03*
D12*
X0Y38100000D03*
D13*
X5080000Y38100000D03*
D14*
X-2540000Y43180000D03*
X2540000Y43180000D03*
X-3810000Y40640000D03*
X3810000Y40640000D03*
G04 #@! TD*
D13*
G04 #@! TO.C,S7*
X13920000Y38100000D03*
D12*
X19000000Y38100000D03*
D13*
X24080000Y38100000D03*
D14*
X21540000Y43180000D03*
X16460000Y43180000D03*
X15190000Y40640000D03*
X22810000Y40640000D03*
G04 #@! TD*
D16*
G04 #@! TO.C,D16*
X65250000Y75247500D03*
D18*
X65250000Y69787500D03*
X65250000Y73087500D03*
D19*
X65250000Y67627500D03*
G04 #@! TD*
D16*
G04 #@! TO.C,D9*
X46250000Y15240000D03*
D18*
X46250000Y9780000D03*
X46250000Y13080000D03*
D19*
X46250000Y7620000D03*
G04 #@! TD*
M02*
