G04 #@! TF.GenerationSoftware,KiCad,Pcbnew,6.0.5-a6ca702e91~116~ubuntu20.04.1*
G04 #@! TF.CreationDate,2022-08-09T06:44:49+00:00*
G04 #@! TF.ProjectId,spleeb,73706c65-6562-42e6-9b69-6361645f7063,v1.0.0*
G04 #@! TF.SameCoordinates,Original*
G04 #@! TF.FileFunction,Profile,NP*
%FSLAX46Y46*%
G04 Gerber Fmt 4.6, Leading zero omitted, Abs format (unit mm)*
G04 Created by KiCad (PCBNEW 6.0.5-a6ca702e91~116~ubuntu20.04.1) date 2022-08-09 06:44:49*
%MOMM*%
%LPD*%
G01*
G04 APERTURE LIST*
G04 #@! TA.AperFunction,Profile*
%ADD10C,0.150000*%
G04 #@! TD*
G04 APERTURE END LIST*
D10*
X-9500000Y-7500000D02*
X-9500000Y65264955D01*
X-9500000Y-7500000D02*
G75*
G03*
X-7500000Y-9500000I1999999J-1D01*
G01*
X46900777Y-21555441D02*
G75*
G03*
X47996818Y-21882500I1096023J1672941D01*
G01*
X104631187Y-25472204D02*
G75*
G03*
X104650485Y-25475708I377613J2024904D01*
G01*
X140092278Y-31732265D02*
X104650484Y-25475708D01*
X28999223Y-9827059D02*
G75*
G03*
X27903182Y-9500000I-1096023J-1672941D01*
G01*
X46900782Y-21555433D02*
X28999218Y-9827067D01*
X95646315Y80420673D02*
G75*
G03*
X94304602Y80937500I-1341715J-1483173D01*
G01*
X113428685Y64334327D02*
G75*
G03*
X114770398Y63817500I1341715J1483173D01*
G01*
X142549995Y16340583D02*
G75*
G03*
X142565092Y16095345I1999705J17D01*
G01*
X104631187Y-25472204D02*
X85581920Y-21916457D01*
X27903182Y-9500000D02*
X-7500000Y-9500000D01*
X145805691Y-10849705D02*
X142409579Y-30110015D01*
X140092288Y-31732209D02*
G75*
G03*
X142409579Y-30110014I347712J1969509D01*
G01*
X-8204722Y67136683D02*
X28109313Y80809228D01*
X142550000Y61817500D02*
G75*
G03*
X140550000Y63817500I-2000000J0D01*
G01*
X142565092Y16095345D02*
X145820983Y-10257170D01*
X-8204722Y67136683D02*
G75*
G03*
X-9500000Y65264955I704720J-1871727D01*
G01*
X114770397Y63817500D02*
X140550000Y63817500D01*
X145805688Y-10849704D02*
G75*
G03*
X145820983Y-10257171I-1969588J347304D01*
G01*
X28814035Y80937500D02*
X94304603Y80937500D01*
X28814035Y80937487D02*
G75*
G03*
X28109313Y80809228I-35J-1999987D01*
G01*
X85581919Y-21916464D02*
G75*
G03*
X85214937Y-21882500I-367019J-1966036D01*
G01*
X85214937Y-21882500D02*
X47996818Y-21882500D01*
X142550000Y61817500D02*
X142550000Y16340583D01*
X95646317Y80420674D02*
X113428683Y64334326D01*
M02*
