G04 #@! TF.GenerationSoftware,KiCad,Pcbnew,6.0.5-a6ca702e91~116~ubuntu20.04.1*
G04 #@! TF.CreationDate,2022-08-09T06:44:49+00:00*
G04 #@! TF.ProjectId,spleeb,73706c65-6562-42e6-9b69-6361645f7063,v1.0.0*
G04 #@! TF.SameCoordinates,Original*
G04 #@! TF.FileFunction,Legend,Bot*
G04 #@! TF.FilePolarity,Positive*
%FSLAX46Y46*%
G04 Gerber Fmt 4.6, Leading zero omitted, Abs format (unit mm)*
G04 Created by KiCad (PCBNEW 6.0.5-a6ca702e91~116~ubuntu20.04.1) date 2022-08-09 06:44:49*
%MOMM*%
%LPD*%
G01*
G04 APERTURE LIST*
%ADD10C,0.100000*%
%ADD11C,0.120000*%
%ADD12C,0.150000*%
G04 APERTURE END LIST*
D10*
G04 #@! TO.C,D32*
X136600656Y-9785424D02*
X136461738Y-10573270D01*
X136461738Y-10573270D02*
X135940312Y-10075158D01*
X135546389Y-10005699D02*
X135940312Y-10075158D01*
X136531197Y-10179347D02*
X137023601Y-10266171D01*
X135940312Y-10075158D02*
X135844806Y-10616802D01*
X135940312Y-10075158D02*
X136600656Y-9785424D01*
X135940312Y-10075158D02*
X136035819Y-9533514D01*
G04 #@! TO.C,D27*
X105750000Y53967500D02*
X106300000Y53967500D01*
X105750000Y53567500D02*
X105750000Y53967500D01*
X106150000Y54567500D02*
X105750000Y53967500D01*
X105750000Y54567500D02*
X105750000Y55067500D01*
X105750000Y53967500D02*
X105200000Y53967500D01*
X105750000Y53967500D02*
X105350000Y54567500D01*
X105350000Y54567500D02*
X106150000Y54567500D01*
D11*
G04 #@! TO.C,ROT1*
X-4140000Y-7920000D02*
X-4140000Y-7320000D01*
X-3840000Y-7620000D02*
X-4140000Y-7920000D01*
X-5840000Y-2120000D02*
X-5840000Y-6220000D01*
X-40000Y-620000D02*
X-40000Y380000D01*
X-1340000Y5980000D02*
X1260000Y5980000D01*
X5860000Y-2120000D02*
X5860000Y-6220000D01*
X-540000Y-120000D02*
X460000Y-120000D01*
X-4140000Y-7320000D02*
X-3840000Y-7620000D01*
X-5940000Y5980000D02*
X-3340000Y5980000D01*
X5860000Y5980000D02*
X5860000Y1880000D01*
X3260000Y5980000D02*
X5860000Y5980000D01*
X-5940000Y1880000D02*
X-5940000Y5980000D01*
X-5840000Y-6220000D02*
X5860000Y-6220000D01*
D10*
G04 #@! TO.C,D3*
X8250000Y37750000D02*
X8800000Y37750000D01*
X8650000Y38350000D02*
X8250000Y37750000D01*
X8250000Y37750000D02*
X7700000Y37750000D01*
X8250000Y37350000D02*
X8250000Y37750000D01*
X7850000Y38350000D02*
X8650000Y38350000D01*
X8250000Y38350000D02*
X8250000Y38850000D01*
X8250000Y37750000D02*
X7850000Y38350000D01*
G04 #@! TO.C,D5*
X27250000Y-750000D02*
X27250000Y-350000D01*
X27250000Y250000D02*
X27250000Y750000D01*
X27250000Y-350000D02*
X26700000Y-350000D01*
X27650000Y250000D02*
X27250000Y-350000D01*
X26850000Y250000D02*
X27650000Y250000D01*
X27250000Y-350000D02*
X26850000Y250000D01*
X27250000Y-350000D02*
X27800000Y-350000D01*
G04 #@! TO.C,D17*
X84250000Y9175000D02*
X83850000Y9775000D01*
X84250000Y9175000D02*
X83700000Y9175000D01*
X84650000Y9775000D02*
X84250000Y9175000D01*
X84250000Y9175000D02*
X84800000Y9175000D01*
X84250000Y8775000D02*
X84250000Y9175000D01*
X83850000Y9775000D02*
X84650000Y9775000D01*
X84250000Y9775000D02*
X84250000Y10275000D01*
G04 #@! TO.C,D23*
X102850000Y45017500D02*
X103650000Y45017500D01*
X103250000Y44017500D02*
X103250000Y44417500D01*
X103650000Y45017500D02*
X103250000Y44417500D01*
X103250000Y44417500D02*
X102850000Y45017500D01*
X103250000Y45017500D02*
X103250000Y45517500D01*
X103250000Y44417500D02*
X102700000Y44417500D01*
X103250000Y44417500D02*
X103800000Y44417500D01*
G04 #@! TO.C,D29*
X84550000Y-12132500D02*
X84150000Y-12732500D01*
X84150000Y-12732500D02*
X83600000Y-12732500D01*
X84150000Y-12732500D02*
X83750000Y-12132500D01*
X83750000Y-12132500D02*
X84550000Y-12132500D01*
X84150000Y-12132500D02*
X84150000Y-11632500D01*
X84150000Y-13132500D02*
X84150000Y-12732500D01*
X84150000Y-12732500D02*
X84700000Y-12732500D01*
G04 #@! TO.C,D19*
X83850000Y47875000D02*
X84650000Y47875000D01*
X84650000Y47875000D02*
X84250000Y47275000D01*
X84250000Y46875000D02*
X84250000Y47275000D01*
X84250000Y47875000D02*
X84250000Y48375000D01*
X84250000Y47275000D02*
X83850000Y47875000D01*
X84250000Y47275000D02*
X83700000Y47275000D01*
X84250000Y47275000D02*
X84800000Y47275000D01*
G04 #@! TO.C,D11*
X46250000Y49780000D02*
X46250000Y50280000D01*
X46250000Y49180000D02*
X45700000Y49180000D01*
X46250000Y49180000D02*
X46800000Y49180000D01*
X46250000Y49180000D02*
X45850000Y49780000D01*
X46250000Y48780000D02*
X46250000Y49180000D01*
X45850000Y49780000D02*
X46650000Y49780000D01*
X46650000Y49780000D02*
X46250000Y49180000D01*
D12*
G04 #@! TO.C,MCU1*
X141940000Y61017500D02*
X141940000Y63557500D01*
X139400000Y63557500D02*
X141940000Y63557500D01*
X139400000Y61017500D02*
X141940000Y61017500D01*
X139400000Y63557500D02*
X139400000Y61017500D01*
D10*
G04 #@! TO.C,D22*
X103250000Y25367500D02*
X103800000Y25367500D01*
X103250000Y25367500D02*
X102700000Y25367500D01*
X103250000Y24967500D02*
X103250000Y25367500D01*
X103250000Y25967500D02*
X103250000Y26467500D01*
X103650000Y25967500D02*
X103250000Y25367500D01*
X102850000Y25967500D02*
X103650000Y25967500D01*
X103250000Y25367500D02*
X102850000Y25967500D01*
G04 #@! TO.C,D10*
X46250000Y30130000D02*
X45700000Y30130000D01*
X46650000Y30730000D02*
X46250000Y30130000D01*
X45850000Y30730000D02*
X46650000Y30730000D01*
X46250000Y30730000D02*
X46250000Y31230000D01*
X46250000Y29730000D02*
X46250000Y30130000D01*
X46250000Y30130000D02*
X46800000Y30130000D01*
X46250000Y30130000D02*
X45850000Y30730000D01*
G04 #@! TO.C,D1*
X8250000Y-350000D02*
X7850000Y250000D01*
X8250000Y-350000D02*
X8800000Y-350000D01*
X8250000Y-750000D02*
X8250000Y-350000D01*
X8650000Y250000D02*
X8250000Y-350000D01*
X7850000Y250000D02*
X8650000Y250000D01*
X8250000Y250000D02*
X8250000Y750000D01*
X8250000Y-350000D02*
X7700000Y-350000D01*
G04 #@! TO.C,D24*
X103250000Y63467500D02*
X103800000Y63467500D01*
X103250000Y63467500D02*
X102850000Y64067500D01*
X102850000Y64067500D02*
X103650000Y64067500D01*
X103250000Y64067500D02*
X103250000Y64567500D01*
X103250000Y63067500D02*
X103250000Y63467500D01*
X103650000Y64067500D02*
X103250000Y63467500D01*
X103250000Y63467500D02*
X102700000Y63467500D01*
G04 #@! TO.C,D15*
X65250000Y52037500D02*
X65800000Y52037500D01*
X64850000Y52637500D02*
X65650000Y52637500D01*
X65250000Y52037500D02*
X64850000Y52637500D01*
X65250000Y52037500D02*
X64700000Y52037500D01*
X65650000Y52637500D02*
X65250000Y52037500D01*
X65250000Y51637500D02*
X65250000Y52037500D01*
X65250000Y52637500D02*
X65250000Y53137500D01*
G04 #@! TO.C,D4*
X8250000Y56800000D02*
X7700000Y56800000D01*
X8250000Y56800000D02*
X7850000Y57400000D01*
X8250000Y56800000D02*
X8800000Y56800000D01*
X7850000Y57400000D02*
X8650000Y57400000D01*
X8250000Y56400000D02*
X8250000Y56800000D01*
X8250000Y57400000D02*
X8250000Y57900000D01*
X8650000Y57400000D02*
X8250000Y56800000D01*
G04 #@! TO.C,D12*
X46250000Y68830000D02*
X46250000Y69330000D01*
X46250000Y68230000D02*
X45850000Y68830000D01*
X46250000Y67830000D02*
X46250000Y68230000D01*
X45850000Y68830000D02*
X46650000Y68830000D01*
X46250000Y68230000D02*
X45700000Y68230000D01*
X46650000Y68830000D02*
X46250000Y68230000D01*
X46250000Y68230000D02*
X46800000Y68230000D01*
G04 #@! TO.C,D20*
X84250000Y66925000D02*
X84250000Y67425000D01*
X84650000Y66925000D02*
X84250000Y66325000D01*
X84250000Y66325000D02*
X83850000Y66925000D01*
X84250000Y65925000D02*
X84250000Y66325000D01*
X83850000Y66925000D02*
X84650000Y66925000D01*
X84250000Y66325000D02*
X84800000Y66325000D01*
X84250000Y66325000D02*
X83700000Y66325000D01*
G04 #@! TO.C,D21*
X102850000Y6917500D02*
X103650000Y6917500D01*
X103650000Y6917500D02*
X103250000Y6317500D01*
X103250000Y6317500D02*
X102850000Y6917500D01*
X103250000Y6917500D02*
X103250000Y7417500D01*
X103250000Y5917500D02*
X103250000Y6317500D01*
X103250000Y6317500D02*
X103800000Y6317500D01*
X103250000Y6317500D02*
X102700000Y6317500D01*
G04 #@! TO.C,D26*
X105750000Y34917500D02*
X105350000Y35517500D01*
X105750000Y34917500D02*
X106300000Y34917500D01*
X105750000Y34917500D02*
X105200000Y34917500D01*
X105750000Y34517500D02*
X105750000Y34917500D01*
X105350000Y35517500D02*
X106150000Y35517500D01*
X105750000Y35517500D02*
X105750000Y36017500D01*
X106150000Y35517500D02*
X105750000Y34917500D01*
G04 #@! TO.C,D28*
X65150000Y-12732500D02*
X64750000Y-12132500D01*
X65150000Y-12132500D02*
X65150000Y-11632500D01*
X65150000Y-12732500D02*
X64600000Y-12732500D01*
X64750000Y-12132500D02*
X65550000Y-12132500D01*
X65550000Y-12132500D02*
X65150000Y-12732500D01*
X65150000Y-13132500D02*
X65150000Y-12732500D01*
X65150000Y-12732500D02*
X65700000Y-12732500D01*
D11*
G04 #@! TO.C,B1*
X139006065Y12322319D02*
X142683824Y12450749D01*
X138733849Y20117567D02*
X142411608Y20245997D01*
X143753330Y17641236D02*
X143840579Y15142759D01*
X142591340Y15099135D02*
X143840579Y15142759D01*
X142411608Y20245997D02*
X142683824Y12450749D01*
X138171811Y18446935D02*
X138328859Y13949676D01*
X142504091Y17597612D02*
X143753330Y17641236D01*
D10*
G04 #@! TO.C,D31*
X117257987Y-7187131D02*
X117396905Y-6399285D01*
X117918331Y-6897397D02*
X117822824Y-7439041D01*
X117327446Y-6793208D02*
X116835042Y-6706384D01*
X117918331Y-6897397D02*
X118013837Y-6355753D01*
X117396905Y-6399285D02*
X117918331Y-6897397D01*
X118312254Y-6966856D02*
X117918331Y-6897397D01*
X117918331Y-6897397D02*
X117257987Y-7187131D01*
G04 #@! TO.C,D25*
X105750000Y15867500D02*
X106300000Y15867500D01*
X105350000Y16467500D02*
X106150000Y16467500D01*
X105750000Y15867500D02*
X105350000Y16467500D01*
X105750000Y15867500D02*
X105200000Y15867500D01*
X106150000Y16467500D02*
X105750000Y15867500D01*
X105750000Y16467500D02*
X105750000Y16967500D01*
X105750000Y15467500D02*
X105750000Y15867500D01*
G04 #@! TO.C,D8*
X27250000Y56800000D02*
X27800000Y56800000D01*
X27250000Y56400000D02*
X27250000Y56800000D01*
X27250000Y56800000D02*
X26850000Y57400000D01*
X26850000Y57400000D02*
X27650000Y57400000D01*
X27250000Y57400000D02*
X27250000Y57900000D01*
X27250000Y56800000D02*
X26700000Y56800000D01*
X27650000Y57400000D02*
X27250000Y56800000D01*
G04 #@! TO.C,D2*
X8250000Y19300000D02*
X8250000Y19800000D01*
X8250000Y18700000D02*
X7850000Y19300000D01*
X8250000Y18700000D02*
X8800000Y18700000D01*
X8250000Y18300000D02*
X8250000Y18700000D01*
X8250000Y18700000D02*
X7700000Y18700000D01*
X8650000Y19300000D02*
X8250000Y18700000D01*
X7850000Y19300000D02*
X8650000Y19300000D01*
G04 #@! TO.C,D6*
X27250000Y18700000D02*
X26700000Y18700000D01*
X27250000Y18700000D02*
X27800000Y18700000D01*
X27250000Y18300000D02*
X27250000Y18700000D01*
X27650000Y19300000D02*
X27250000Y18700000D01*
X27250000Y19300000D02*
X27250000Y19800000D01*
X27250000Y18700000D02*
X26850000Y19300000D01*
X26850000Y19300000D02*
X27650000Y19300000D01*
G04 #@! TO.C,D14*
X65250000Y32987500D02*
X64850000Y33587500D01*
X64850000Y33587500D02*
X65650000Y33587500D01*
X65650000Y33587500D02*
X65250000Y32987500D01*
X65250000Y32987500D02*
X65800000Y32987500D01*
X65250000Y33587500D02*
X65250000Y34087500D01*
X65250000Y32987500D02*
X64700000Y32987500D01*
X65250000Y32587500D02*
X65250000Y32987500D01*
G04 #@! TO.C,D18*
X84250000Y28225000D02*
X84800000Y28225000D01*
X84650000Y28825000D02*
X84250000Y28225000D01*
X84250000Y28225000D02*
X83850000Y28825000D01*
X84250000Y28825000D02*
X84250000Y29325000D01*
X84250000Y28225000D02*
X83700000Y28225000D01*
X83850000Y28825000D02*
X84650000Y28825000D01*
X84250000Y27825000D02*
X84250000Y28225000D01*
G04 #@! TO.C,D7*
X27250000Y38350000D02*
X27250000Y38850000D01*
X27250000Y37750000D02*
X27800000Y37750000D01*
X27250000Y37350000D02*
X27250000Y37750000D01*
X27650000Y38350000D02*
X27250000Y37750000D01*
X27250000Y37750000D02*
X26700000Y37750000D01*
X27250000Y37750000D02*
X26850000Y38350000D01*
X26850000Y38350000D02*
X27650000Y38350000D01*
G04 #@! TO.C,D30*
X105118076Y-15568896D02*
X105204900Y-15076492D01*
X105013887Y-16159781D02*
X104724153Y-15499437D01*
X105013887Y-16159781D02*
X104472243Y-16064274D01*
X104944428Y-16553704D02*
X105013887Y-16159781D01*
X105511999Y-15638355D02*
X105013887Y-16159781D01*
X104724153Y-15499437D02*
X105511999Y-15638355D01*
X105013887Y-16159781D02*
X105555531Y-16255287D01*
G04 #@! TO.C,D13*
X65250000Y13937500D02*
X64850000Y14537500D01*
X65250000Y13937500D02*
X64700000Y13937500D01*
X65250000Y14537500D02*
X65250000Y15037500D01*
X65650000Y14537500D02*
X65250000Y13937500D01*
X65250000Y13537500D02*
X65250000Y13937500D01*
X65250000Y13937500D02*
X65800000Y13937500D01*
X64850000Y14537500D02*
X65650000Y14537500D01*
G04 #@! TO.C,D16*
X65650000Y71687500D02*
X65250000Y71087500D01*
X65250000Y71087500D02*
X64700000Y71087500D01*
X65250000Y70687500D02*
X65250000Y71087500D01*
X65250000Y71687500D02*
X65250000Y72187500D01*
X65250000Y71087500D02*
X65800000Y71087500D01*
X65250000Y71087500D02*
X64850000Y71687500D01*
X64850000Y71687500D02*
X65650000Y71687500D01*
G04 #@! TO.C,D9*
X46250000Y11680000D02*
X46250000Y12180000D01*
X46250000Y11080000D02*
X46800000Y11080000D01*
X46250000Y11080000D02*
X45850000Y11680000D01*
X46250000Y11080000D02*
X45700000Y11080000D01*
X45850000Y11680000D02*
X46650000Y11680000D01*
X46650000Y11680000D02*
X46250000Y11080000D01*
X46250000Y10680000D02*
X46250000Y11080000D01*
G04 #@! TD*
M02*
